<?xml version='1.0' encoding='utf-8'?>
<!-- Generator: imaengine 6.0   -->
<svg xmlns:xlink="http://www.w3.org/1999/xlink" xmlns="http://www.w3.org/2000/svg" viewBox="0,0,590,580" style="enable-background:new 0 0 590 580;" version="1.1">
<defs/>
<g id="layer0" visibility="hidden">
<path d="M255,569C266.999,569 279.001,569 291,569C302.498,569 315.825,569 326,569C343.576,563.245 366.719,563.05 381,554C390.047,551.048 400.093,549.092 407,544C415.636,541.138 422.129,534.304 431,533C444.268,522.937 460.603,515.934 471,503C477.108,497.109 483.447,491.446 492,488C493.806,478.308 502.97,474.145 506,467C519.261,456.93 526.011,440.342 536,427C539.54,418.541 547.138,414.136 546,401C553.593,397.095 554.21,384.385 557,377C565.566,362.235 566.172,339.503 572,322C572,310.001 572,297.999 572,286C571.499,275.003 572.824,260.351 571,252C568.012,231.657 563.75,212.581 557,196C553.476,187.525 551.733,177.266 546,171C542.551,162.951 537.092,155.082 535,147C524.322,134.347 517.278,118.053 506,106C499.536,100.465 493.218,94.7807 488,88C481.779,82.7235 474.605,76.5697 470,71C455.073,62.5964 443.532,50.7993 427,44C415.236,32.4331 395.054,29.2769 379,22C361.37,16.2988 342.998,11.3331 320,11C315.747,3.25433 298.378,8.62091 288,7C276.281,6.77911 261.677,5.50226 257,11C235.645,12.976 216.859,17.5281 198,22C193.58,29.5789 179.296,27.2969 173,33C164.521,36.0189 159.005,43.8307 149,44C135.931,54.2617 121.785,63.4537 109,74C105.47,82.4685 94.8202,83.8214 90,91C81.3307,93.8285 80.8968,106.722 73,109C63.4047,122.736 53.9148,136.584 44,150C42.5047,160.504 35.1796,165.181 33,175C29.0386,182.536 25.247,192.072 24,201C17.4052,217.736 14.3171,237.986 11,258C10.5367,269.535 13.3838,284.385 7,290C15.2215,293.276 8.90381,312.921 11,321C15.0349,340.296 18.4789,360.19 23,379C26.7942,387.205 30.4729,395.528 33,405C37.663,411.835 43.2656,419.56 46,427C54.1375,442.194 64.4277,455.241 73,470C80.0134,474.985 85.1314,481.87 91,488C99.1181,491.38 101.402,502.423 111,503C121.875,515.456 136.858,523.811 151,533C164.989,542.342 182.788,547.881 200,554C215.946,561.385 236.601,564.068 255,569ZM317,546C298.547,545.916 269.777,549.963 256,544C234.771,543.583 221.385,534.059 202,533C189.414,523.939 169.655,520.788 159,511C145.109,503.56 134.512,492.819 121,485C112.103,472.251 97.1612,464.282 91,450C79.7111,439.643 71.5668,424.876 64,412C55.8256,398.528 50.2482,381.195 44,367C39.6879,349.981 34.9244,333.407 33,314C34.8763,294.23 29.6472,266.091 36,252C34.3849,228.739 46.0408,217.484 47,198C53.9372,183.291 60.8414,167.285 69,155C78.3115,142.98 86.0714,129.403 98,120C103.12,103.474 120.468,97.9114 131,88C141.429,77.0975 155.021,69.352 169,62C182.667,54.0206 198.439,46.8824 215,43C231.065,37.7342 247.185,32.5164 269,33C292.486,27.6254 298.91,34.3707 326,33C343.698,36.9484 365.507,38.0493 377,47C394.176,51.4706 410.603,57.9537 422,67C437.308,73.0232 447.304,84.3645 459,94C470.796,103.851 481.164,116.393 492,126C499.38,140.266 512.931,149.625 517,166C525.107,179.539 533.846,193.711 536,212C543.962,225.369 546.059,244.61 549,263C548.557,281.094 553.886,311.145 546,323C546.185,344.831 538.227,359.784 535,377C526.303,389.95 521.418,407.975 514,421C504.343,432.674 497.359,447.028 485,456C479.703,472.349 463.868,479.425 453,489C440.96,498.291 428.891,507.56 414,514C401.856,523.502 383.721,528.277 371,536C350.914,537.245 338.971,546.64 317,546Z" fill="#000000"/>
<path d="M262,492C278.921,492 297.325,492 313,492C326.282,488.361 344.117,487.792 354,482C368.52,479.599 378.649,471.324 390,467C399.9,459.979 413.793,455.468 419,445C432.724,441.803 437.187,427.862 448,423C451.747,409.826 464.535,404.21 466,390C473.43,380.51 478.809,367.484 484,357C487.396,343.475 494.252,331.927 492,314C497.33,302.41 493.581,280.256 495,266C490.885,253.194 491.846,233.829 484,226C482.407,210.672 473.874,200.801 470,189C461.496,180.583 457.599,166.076 448,160C439.754,151.325 431.573,141.102 422,135C416.064,124.016 402.596,119.079 393,113C386.102,102.977 367.846,102.829 360,95C345.415,92.6642 333.453,86.2215 316,88C309.133,82.3897 279.249,81.7731 273,88C255.129,87.0502 239.295,89.6197 229,95C213.359,96.2798 204.086,105.411 192,109C184.518,118.439 169.622,121.947 163,131C152.75,137.671 141.011,144.336 138,157C127.787,163.707 120.268,174.593 116,186C105.133,192.053 106.49,211.815 98,219C92.9015,230.822 92.135,248.46 87,259C87,275.921 87,294.325 87,310C88.7998,325.121 94.4939,337.831 95,353C101.894,363.026 105.585,377.74 112,387C115.778,400.143 127.074,407.251 131,419C140.352,426.569 149.021,436.304 157,444C169.436,448.485 173.951,462.374 189,463C193.087,475.834 214.879,472.446 221,482C235.152,484.769 249.596,488.729 262,492ZM310,470C298.349,469.743 275.713,474.736 269,467C252.427,468.683 243.396,461.223 231,460C221.782,453.886 209.256,451.076 200,445C188.949,441.161 182.86,430.76 173,427C166.325,418.343 157.727,411.605 149,405C144.543,394.566 137.689,384.931 131,378C124.818,369.292 124.22,353.4 117,347C115.736,333.374 113.203,319.417 109,310C109.883,295.551 107.576,277.908 111,266C111.924,252.034 115.285,238.905 120,230C124.236,218.905 127.736,207.068 135,199C135.833,184.943 148.112,180.732 153,172C160.036,163.704 165.804,154.136 177,150C181.494,139.604 196.007,137.627 203,131C211.884,124.994 223.027,119.647 234,117C245.578,113.687 256.759,108.379 271,109C286.332,109 301.668,109 317,109C327.664,113.226 343.045,114.335 353,118C361.617,124.715 375.558,126.11 382,135C393.503,138.387 403.011,145.369 409,153C416.523,160.809 424.354,168.314 433,175C439.569,183.322 443.029,196.351 452,201C454.365,213.526 462.13,222.251 463,235C468.175,244.716 472.015,257.365 470,273C476.583,283.25 471.648,302.643 470,313C470.43,328.32 463.657,338.037 463,351C456.143,359.475 452.578,371.246 448,382C442.409,391.299 431.996,397.376 430,409C418.187,412.519 416.746,426.414 404,429C398.257,438.147 384.676,441.056 379,449C363.988,448.879 360.422,461.802 346,461C334.475,464.365 320.845,467.225 310,470Z" fill="#000000"/>
<path d="M208,405C226.259,406.594 239.367,403.032 248,395C261.577,392.333 262.901,375.892 270,368C272.566,348.769 266.69,337.975 262,326C255.706,316.05 242.135,311.856 233,306C214.108,303.773 200.659,306.994 191,314C181.336,320.58 175.824,332.833 171,343C168.299,362.366 173.032,374.303 178,386C185.241,395.004 197.366,400.643 208,405Z" fill="#000000"/>
<path d="M215,274C228.391,270.47 246.034,269.709 251,259C261.767,253.102 266.381,241.046 270,228C273.284,207.795 262.432,200.243 257,190C251.869,178.466 236.553,177.112 226,171C208.93,170.851 197.403,177.728 189,185C178.893,191.558 171.321,200.656 171,217C167.189,237.732 176.065,247.26 182,257C191.694,263.971 201.907,270.428 215,274Z" fill="#000000"/>
<path d="M357,274C370.391,270.47 388.034,269.709 393,259C403.767,253.102 408.381,241.046 412,228C415.284,207.795 404.432,200.243 399,190C393.869,178.466 378.553,177.112 368,171C350.93,170.851 339.403,177.728 331,185C320.893,191.558 313.321,200.656 313,217C309.189,237.732 318.065,247.26 324,257C333.694,263.971 343.907,270.428 357,274ZM233,247C214.935,250.748 197.787,246.77 196,233C187.654,217.621 198.319,201.888 208,198C227.5,192.817 240.863,200.581 244,213C255.961,226.008 238.718,241.211 233,247ZM375,247C356.935,250.748 339.787,246.77 338,233C329.654,217.621 340.319,201.888 350,198C369.5,192.817 382.863,200.581 386,213C397.961,226.008 380.718,241.211 375,247Z" fill="#000000"/>
</g>
<g id="layer1" visibility="hidden">
<path d="M282,566C294.709,565.118 302.616,566.564 314,564C323.084,561.586 337.19,562.365 343,558C363.727,555.396 382.1,550.431 397,542C413.557,535.226 429.806,528.137 443,518C458.926,510.595 471.282,499.613 482,487C494.473,476.142 505.021,463.352 515,450C522.639,434.308 534.211,422.542 541,406C541.767,408.725 555.376,382.985 556,365C560.259,345.928 564.945,327.276 567,306C566.813,282.856 568.239,258.092 562,241C559.149,220.52 553.756,202.575 547,186C537.531,173.39 534.189,149.836 523,142C516.228,125.441 503.464,114.867 494,101C483.949,87.7203 468.971,79.3596 457,68C443.166,58.5031 427.865,50.4657 413,42C396.631,35.0375 381.655,26.6765 362,23C344.62,17.0494 324.287,14.0439 302,13C291.842,11.1926 277.845,11.847 269,14C255.822,12.3198 249.698,19.5236 238,18C219.532,22.863 201.334,28.0029 184,34C169.232,42.563 152.84,49.5086 139,59C124.509,67.8398 111.117,77.7858 100,90C88.6781,102.009 73.1578,109.827 66,126C60.4002,143.731 46.3322,153.001 41,171C34.0875,187.418 26.3004,202.969 23,223C17.9671,242.021 16.3713,262.947 12,280C10.5958,304.735 17.2397,321.429 20,342C24.685,360.646 28.987,379.682 37,395C47.0866,408.244 45.8483,432.821 61,441C70.3193,453.932 81.6874,468.749 89,481C103.589,485.975 111.495,504.253 128,510C138.458,522.873 157.57,527.099 171,537C184.299,547.032 205.288,549.381 223,555C240.881,560.45 261.466,563.203 282,566ZM287,490C299.358,486.116 316.527,487.626 330,484C343.391,480.47 357.344,476.019 368,471C379.056,465.135 393.021,460.696 402,454C410.255,445.59 422.385,441.05 429,431C437.315,422.394 448.148,414.823 452,403C461.624,395.959 464.279,381.944 471,372C476.836,360.915 480.099,345.774 485,335C487.571,320.906 491.538,308.203 490,290C492.081,272.225 486.176,256.227 486,245C482.53,231.805 476.007,221.658 473,208C467.07,197.009 459.892,185.783 455,175C444.307,169.028 443.327,153.338 432,148C425.906,137.173 410.623,134.052 405,124C391.96,120.375 385.371,110.294 373,106C358.448,103.632 346.628,97.0473 333,95C316.819,92.6376 310.869,86.1543 291,89C272.697,87.6182 259.905,93.2305 246,95C228.713,94.6338 221.435,105.76 208,108C196.169,113.09 186.443,121.768 176,127C164.451,132.116 157.376,141.711 149,150C140.391,158.312 130.565,166.89 125,177C122.915,191.58 109.033,194.368 108,210C101.972,220.893 98.6287,235.954 96,249C93.6562,262.48 89.242,276.925 90,291C91.597,306.324 93.9787,322.346 98,334C100.131,348.534 105.086,360.249 110,372C115.308,383.612 123.595,393.73 128,405C138.296,411.369 140.867,425.468 152,431C162.185,437.736 169.683,448.642 180,454C192.825,457.612 191.545,468.627 209,471C222.709,474.212 235.967,479.358 249,482C260.761,486.981 279.77,486.253 287,490ZM508,438C498.861,447.749 489.808,462.513 478,472C470.608,486.606 453.321,491.323 445,505C431.431,513.429 415.39,519.392 402,528C386.993,534.639 370.647,541.204 353,544C336.834,549.832 314.08,549.082 292,549C268.315,549.362 251.413,549.11 232,546C214.714,541.289 198.356,535.641 182,530C163.723,522.62 162.085,512.964 144,507C130.148,498.855 118.512,488.486 108,477C98.3604,464.993 84.2135,456.23 78,442C65.0181,432.984 62.0463,413.951 52,402C44.9655,387.388 39.0937,370.35 35,354C30.9961,334.076 30.846,318.082 28,297C26.8479,274.202 30.3733,254.817 33,237C35.9555,217.958 41.2917,201.289 47,185C52.2864,168.64 65.5266,158.97 71,144C80.3121,131.314 89.231,118.229 101,108C111.906,96.9081 122.261,85.2586 134,75C149.491,68.4928 160.069,57.0669 176,51C190.684,44.038 208.062,38.5049 224,34C240.609,28.611 261.203,27.2006 284,28C305.754,27.8923 329.282,27.2747 346,31C363.213,35.7852 381.776,39.2258 393,50C413.816,50.8305 424.398,63.1588 438,70C447.84,82.1578 461.55,90.4521 474,100C486.671,108.975 495.398,123.158 505,134C513.446,147.552 523.172,159.83 529,176C536.807,189.839 543.097,206.459 546,224C552.712,239.286 550.581,263.421 551,285C550.802,306.448 552.076,330.633 548,347C543.975,364.973 538.989,381.992 531,396C523.972,410.618 518.507,428.064 508,438ZM208,398C222.656,397.766 241.175,399.795 247,392C253.025,383.135 263.849,377.469 262,362C264.202,349.028 260.765,332.632 255,326C249.06,317.274 237.195,314.471 226,311C214,309.935 195.337,307.141 195,321C181.789,322.679 180.569,337.949 176,347C173.109,361.358 180.631,372.631 184,382C189.435,392.819 196.158,391.944 208,398ZM351,398C365.732,397.841 384.102,399.722 389,391C396.76,383.87 405.642,376.262 404,361C406.287,351.181 403.12,332.808 397,327C392.147,316.962 377.917,314.703 368,311C356,309.935 337.337,307.141 337,321C323.959,322.849 322.221,337.601 318,347C314.76,361.009 322.801,372.801 326,382C331.356,392.71 339.227,392.88 351,398ZM243,373C244.051,386.741 202.394,388.68 199,376C187.994,359.69 182.461,356.041 193,340C196.958,324.667 224.013,319.902 237,329C249.218,335.079 254.328,362.66 243,373ZM390,360C386.799,366.579 386.43,382.049 374,382C366.096,384.74 344.099,386.48 343,378C332.306,376.064 336.016,355.659 328,358C331.044,349.04 335.72,348.184 337,334C341.996,329.471 361.804,324.064 363,328C366.049,316.185 339.278,330.043 361,321C376.253,325.228 366.518,327.668 381,332C389.184,335.645 394.104,348.481 390,360ZM208,266C224.121,267.456 235.604,264.269 245,259C254.824,254.159 258.037,242.703 262,232C264.223,218.953 262.299,203.639 255,197C250.284,187.051 239.304,183.361 230,178C213.22,175.885 203.781,181.116 194,186C186.813,193.478 177.866,199.2 177,213C171.789,225.192 178.12,239.241 182,248C187.429,257.236 198.965,260.37 208,266ZM350,266C366.121,267.456 377.604,264.269 387,259C396.824,254.159 400.037,242.703 404,232C406.223,218.953 404.299,203.639 397,197C393.999,185.336 380.304,184.361 372,178C355.505,176.17 345.464,180.799 336,186C328.813,193.478 319.866,199.2 319,213C313.789,225.192 320.12,239.241 324,248C329.393,257.272 340.709,260.626 350,266ZM474,256C475.693,269.875 474.569,288.125 475,302C474.999,317.566 474.17,333.864 469,343C465.368,354.936 460.799,367.493 455,376C450.805,387.137 442.753,394.421 438,405C428.7,411.268 420.509,420.203 414,428C406.121,435.161 396.095,442.081 389,447C380.327,453.894 367.533,458.227 358,463C345.725,466.057 335.433,471.101 321,472C305.432,472 288.306,472 274,472C258.024,472.644 245.222,470.109 234,466C225.479,458.954 208.701,458.604 202,451C190.884,446.784 182.019,440.313 174,433C166.432,425.001 157.307,416.999 151,409C142.482,402.186 134.88,394.452 131,383C122.027,376.405 119.292,362.014 115,352C110.796,340.872 107.784,328.548 108,313C108,297.432 108,280.306 108,266C107.02,249.453 110.823,236.129 115,226C119.671,215.103 124.538,202.844 130,194C135.563,184.232 141.948,175.28 150,168C156.627,159.059 165.978,151.284 173,144C180.861,136.529 191.752,132.083 199,124C211.974,121.407 222.966,115.272 233,111C246.042,108.71 257.336,104.667 272,104C282.824,104.732 304.774,102.802 316,105C331.587,104.745 341.06,110.608 354,113C362.956,119.611 378.212,121.482 385,129C397.698,131.633 401.309,143.36 413,147C419.725,155.842 429.19,163.504 436,171C443.933,178.399 446.46,191.208 453,200C452.028,186.261 461.862,213.832 465,219C467.925,231.407 472.538,242.13 474,256ZM248,212C252.548,233.684 245.159,249.808 229,252C208.858,255.333 194.013,248.236 191,232C184.84,213.66 194.564,195.249 209,193C228.454,189.631 247.063,194.086 248,212ZM390,212C395.021,234.158 386.803,249.452 371,252C351.078,255.113 336.233,248.016 333,232C326.612,213.431 336.906,195.592 351,193C370.208,189.877 389.274,193.876 390,212Z" fill="#250000" fill-opacity="0.379767"/>
<path d="M410.202,221.997C410.202,248.798 388.476,270.524 361.675,270.524C334.874,270.524 313.148,248.798 313.148,221.997C313.148,195.196 334.874,173.47 361.675,173.47C388.476,173.47 410.202,195.196 410.202,221.997Z" fill="#000000"/>
<path d="M410.202,221.997C410.202,248.798 388.476,270.524 361.675,270.524C334.874,270.524 313.148,248.798 313.148,221.997C313.148,195.196 334.874,173.47 361.675,173.47C388.476,173.47 410.202,195.196 410.202,221.997Z" fill="#000000"/>
<path d="M410.202,221.997C410.202,248.798 388.476,270.524 361.675,270.524C334.874,270.524 313.148,248.798 313.148,221.997C313.148,195.196 334.874,173.47 361.675,173.47C388.476,173.47 410.202,195.196 410.202,221.997Z" fill="#000000"/>
<path d="M410.202,221.997C410.202,248.798 388.476,270.524 361.675,270.524C334.874,270.524 313.148,248.798 313.148,221.997C313.148,195.196 334.874,173.47 361.675,173.47C388.476,173.47 410.202,195.196 410.202,221.997Z" fill="#000000"/>
</g>
<g id="layer2">
<path d="M362.392,263.988C339.498,263.988 320.939,245.429 320.939,222.535C320.939,199.641 339.498,181.081 362.392,181.081C385.286,181.081 403.845,199.641 403.845,222.535C403.845,245.429 385.286,263.988 362.392,263.988Z" stroke="#000000" stroke-width="20" stroke-linecap="round" fill="none" stroke-linejoin="round"/>
<path d="M363.107,396.883C340.213,396.883 321.654,378.324 321.654,355.43C321.654,332.536 340.213,313.977 363.107,313.977C386.001,313.977 404.56,332.536 404.56,355.43C404.56,378.324 386.001,396.883 363.107,396.883Z" stroke="#000000" stroke-width="20" stroke-linecap="round" fill="none" stroke-linejoin="round"/>
<path d="M218.956,264.895C196.062,264.895 177.503,246.336 177.503,223.442C177.503,200.548 196.062,181.989 218.956,181.989C241.85,181.989 260.409,200.548 260.409,223.442C260.409,246.336 241.85,264.895 218.956,264.895Z" stroke="#000000" stroke-width="20" stroke-linecap="round" fill="none" stroke-linejoin="round"/>
<path d="M218.57,396.504C195.676,396.504 177.117,377.945 177.117,355.051C177.117,332.157 195.676,313.598 218.57,313.598C241.464,313.598 260.023,332.157 260.023,355.051C260.023,377.945 241.464,396.504 218.57,396.504Z" stroke="#000000" stroke-width="20" stroke-linecap="round" fill="none" stroke-linejoin="round"/>
<path d="M290.783,481.172C184.33,481.172 98.0327,394.875 98.0327,288.422C98.0327,181.969 184.33,95.6718 290.783,95.6718C397.236,95.6718 483.533,181.969 483.533,288.422C483.533,394.875 397.236,481.172 290.783,481.172Z" stroke="#000000" stroke-width="25" stroke-linecap="round" fill="none" stroke-linejoin="round"/>
<path d="M290.78,557.822C141.993,557.822 21.3781,437.207 21.3781,288.42C21.3781,139.633 141.993,19.0181 290.78,19.0181C439.567,19.0181 560.182,139.633 560.182,288.42C560.182,437.207 439.567,557.822 290.78,557.822Z" stroke="#000000" stroke-width="25.2549" stroke-linecap="round" fill="none" stroke-linejoin="round"/>
</g>
</svg>
