<?xml version='1.0' encoding='utf-8'?>
<!-- Generator: imaengine 6.0   -->
<svg xmlns:xlink="http://www.w3.org/1999/xlink" xmlns="http://www.w3.org/2000/svg" viewBox="0,0,670,670" style="enable-background:new 0 0 670 670;" version="1.1">
<defs/>
<g id="layer0" visibility="hidden">
<path d="M101,628C102.381,627.944 103.381,625.27 104,626L105,625C105.402,623.657 107.598,621.816 108,622L109,621C109.402,619.657 111.598,617.816 112,618L113,617C116.586,612.587 120.587,608.586 125,605L126,604C137.088,592.768 148.555,580.677 160,571C169.244,558.246 181.99,548.988 192,537C202.777,525.779 214.614,515.612 225,504C236.176,493.178 247.178,482.176 258,471C269.435,460.437 279.758,448.756 291,438C302.77,427.772 312.56,415.558 325,406C335.09,394.093 346.141,383.139 357,372C367.965,360.967 379.161,350.158 390,339C401.458,328.138 412.881,316.003 424,306C434.633,294.635 446.36,284.358 457,273C467.323,261.325 479.537,251.535 489,239C501.216,229.218 511.602,217.6 523,207C534.335,196.337 544.622,184.62 556,174C567.179,163.182 577.562,151.559 589,141C599.783,129.785 608.062,116.06 616,102C621.503,87.4317 632.278,70.8672 626,50L625,50L624,48L623,48L623,47L622,47L622,46L621,46L620,44C609.183,39.9433 593.143,42.7042 585,47C574.574,50.5723 565.487,55.4879 556,60C547.895,65.8932 539.147,71.1483 533,79C529.238,84.9203 513.484,94.8392 518,98C519.746,97.6905 523.064,98.0475 522,99C533.776,99.4006 544.578,102.556 556,102C571.459,100.8 567.063,115.544 559,119C552.603,124.602 543.981,127.982 537,133C528.503,136.502 520.634,140.636 513,145C505.451,149.45 495.37,151.371 488,156C480.588,160.587 471.239,163.24 464,168C454.295,170.294 445.976,173.977 438,178C428.692,180.691 424.573,188.574 418,194C411.667,199.844 405.333,207.467 399,212C394.033,219.031 386.952,223.953 381,230C375.98,236.979 368.517,241.519 364,249C357.2,254.199 351.247,260.248 345,266C339.794,272.792 332.985,277.986 327,284C322.033,291.031 314.952,295.953 309,302C304.087,309.086 296.356,313.357 292,321C284.915,325.914 279.351,332.352 273,338C267.853,345.03 259.646,350.78 255,357C249.001,362.999 242.999,369.001 237,375C231.001,380.999 224.999,387.001 219,393C213.001,398.999 206.999,405.001 201,411C195.001,416.999 188.999,423.001 183,429C177.001,434.999 170.999,441.001 165,447C159.001,452.999 152.999,459.001 147,465C141.001,470.999 134.999,477.001 129,483C122.667,488.844 116.333,496.467 110,501C104.202,507.201 98.0724,513.074 93,520C85.5282,524.527 80.4145,531.416 75,538C67.3569,542.356 63.0856,550.087 56,555C53.8127,561.451 36.758,566.895 47,574C52.9994,579.999 59.0006,586.001 65,592C70.9994,597.999 77.0006,604.001 83,610C88.9994,615.999 95.0006,622.001 101,628Z" fill="#221E1F"/>
<path d="M568,627L569,627L568,626L568,627Z" fill="#020202"/>
<path d="M569,627C576.235,619.57 584.282,612.947 591,605C598.878,598.213 605.406,590.071 614,584C617.698,575.666 636.704,568.94 621,561C613.207,554.581 606.248,545.685 599,540C591.404,532.931 585.065,524.6 577,518C570.036,510.299 562.701,502.964 555,496C548.166,488.169 540.206,481.459 533,474C525.764,467.024 518.219,458.714 512,452L511,452L511,451C506.587,447.414 502.586,443.413 499,439L498,439L498,438C496.657,437.598 494.816,435.402 495,435L494,435L494,434C489.587,430.414 485.586,426.413 482,422L481,422L481,421C479.657,420.598 477.816,418.402 478,418L477,418L477,417C472.587,413.414 468.586,409.413 465,405L464,405L464,404C457.035,397.633 450.367,390.965 444,384L443,384L443,383C441.657,382.598 439.816,380.402 440,380L439,380L439,379C435.963,376.704 433.295,374.037 431,371L430,371L430,370L428,370L428,369L427,369L427,368L426,368L425,366L424,366L424,365C423.767,362.834 420.888,361.03 420,361L419,361L419,360L418,360L418,359L417,358L416,358L416,357L415,357L415,356L414,356L414,355L413,355L412,353L411,353L411,352C398.222,359.492 386.968,373.311 376,385C368.565,395.023 337.632,408.472 361,419C372.328,430.665 384.865,442.335 395,454C406.737,465.256 419.004,477.195 430,488C441.665,499.328 453.335,511.865 465,522C475.436,534.558 487.972,546.227 499,557C510.665,568.328 522.334,580.865 534,591C544.602,603.391 557.097,615.103 568,626L569,627Z" fill="#231F20"/>
<path d="M104,626L105,625L104,626Z" fill="#3F3F3B"/>
<path d="M108,622L109,621L108,622Z" fill="#3F3F3B"/>
<path d="M112,618L113,617L112,618Z" fill="#3F3F3B"/>
<path d="M125,605L126,604L125,605Z" fill="#3F3F3B"/>
<path d="M511,452L512,452L511,451L511,452Z" fill="#010101"/>
<path d="M498,439L499,439L498,438L498,439Z" fill="#020202"/>
<path d="M494,435L495,435L494,434L494,435Z" fill="#020202"/>
<path d="M481,422L482,422L481,421L481,422Z" fill="#020202"/>
<path d="M477,418L478,418L477,417L477,418Z" fill="#020202"/>
<path d="M464,405L465,405L464,404L464,405Z" fill="#010101"/>
<path d="M443,384L444,384L443,383L443,384Z" fill="#020202"/>
<path d="M439,380L440,380L439,379L439,380Z" fill="#020202"/>
<path d="M430,371L431,371L430,370L430,371Z" fill="#020202"/>
<path d="M428,370L428,369L428,370Z" fill="#020202"/>
<path d="M427,369L428,369L427,368L427,369Z" fill="#020202"/>
<path d="M426,368L427,368L425,366L426,368Z" fill="#020202"/>
<path d="M424,366L425,366L424,365L424,366Z" fill="#020202"/>
<path d="M419,361L420,361L419,360L419,361Z" fill="#030303"/>
<path d="M418,360L419,360L418,359L418,360Z" fill="#030303"/>
<path d="M416,358L417,358L416,357L416,358Z" fill="#030303"/>
<path d="M415,357L416,357L415,356L415,357Z" fill="#030303"/>
<path d="M414,356L415,356L414,355L414,356Z" fill="#030303"/>
<path d="M413,355L414,355L412,353L413,355Z" fill="#030303"/>
<path d="M411,353L412,353L411,352L411,353Z" fill="#030303"/>
<path d="M260,319C271.535,309.562 282.161,297.925 292,288C297.864,277.201 321.894,267.16 315,256L314,256L314,255L313,255L313,254C311.564,252 307.889,250 308,248L307,248L307,247C304.667,244.667 302.333,242.333 300,240L299,240L299,239C294.229,235.772 291.357,230.642 287,227L286,227L286,226C284.657,225.598 282.816,223.402 283,223L282,223L282,222C277.587,218.414 273.586,214.413 270,210L269,210L269,209C267,207.564 265,203.889 263,204L262,204L262,203L261,203L261,202L260,201L259,201L259,200L258,200L258,199L257,199L257,198L256,197L255,197L255,196L254,196L254,195C253.767,192.834 250.888,191.03 250,191L249,191L249,190L248,190L247,188L246,188L246,187L245,187L245,186L244,186L244,185L243,184L242,184L242,183L241,183L241,182C239.188,181.412 238.271,177.647 237,178L236,178L236,177L235,177L234,175L233,175L233,174L232,174L232,173L231,173L231,171C226.587,167.414 222.586,163.413 219,159L218,159L218,158C215.667,155.667 213.333,153.333 211,151L210,151L210,150C205.229,146.772 202.357,141.642 198,138L197,138L197,137C195.657,136.598 193.816,134.402 194,134L193,134L193,133C189.963,130.704 187.295,128.037 185,125L184,125L184,124C182.657,123.598 180.816,121.402 181,121L180,121L180,120C178.657,119.598 176.816,117.402 177,117L176,117L176,116C172.963,113.704 170.295,111.037 168,108L167,108L167,107C165.657,106.598 163.816,104.402 164,104L163,104L163,103C156.035,96.6331 149.367,89.9652 143,83L142,83L142,82C133.304,74.4515 123.969,66.0215 114,61L113,61L113,60C108.248,57.3304 101.311,54.6935 98,52L97,53C85.5866,46.7239 69.268,39.1967 52,43L51,44C49.6192,44.0555 48.6189,46.7299 48,46L47,47L46,48L44,50L43,52C40.2792,63.386 43.4805,78.1904 47,85C50.9214,93.744 54.0746,103.26 59,111C63.9803,118.685 68.4612,126.873 75,133C81.3327,139.333 87.6673,145.667 94,152C96.0006,154.966 97.6676,149.311 99,150C102.266,135.669 99.1809,113.539 106,104C119.256,105.061 124.478,120.965 131,130C137.285,141.312 142.885,154.757 149,165C153.443,178.154 160.779,189.863 165,202C170.256,214.341 175.843,227.798 181,239C189.598,247.999 199.641,257.001 207,266C216.941,273.656 225.087,284.555 234,292C242.598,300.999 252.641,310.001 260,319Z" fill="#221F1F"/>
<path d="M314,256L315,256L314,255L314,256Z" fill="#020202"/>
<path d="M313,255L314,255L313,254L313,255Z" fill="#020202"/>
<path d="M307,248L308,248L307,247L307,248Z" fill="#020202"/>
<path d="M299,240L300,240L299,239L299,240Z" fill="#020202"/>
<path d="M286,227L287,227L286,226L286,227Z" fill="#020202"/>
<path d="M282,223L283,223L282,222L282,223Z" fill="#020202"/>
<path d="M269,210L270,210L269,209L269,210Z" fill="#030303"/>
<path d="M262,204L263,204L262,203L262,204Z" fill="#030303"/>
<path d="M261,203L262,203L261,202L261,203Z" fill="#030303"/>
<path d="M259,201L260,201L259,200L259,201Z" fill="#030303"/>
<path d="M258,200L259,200L258,199L258,200Z" fill="#030303"/>
<path d="M257,199L258,199L257,198L257,199Z" fill="#030303"/>
<path d="M255,197L256,197L255,196L255,197Z" fill="#030303"/>
<path d="M254,196L255,196L254,195L254,196Z" fill="#030303"/>
<path d="M249,191L250,191L249,190L249,191Z" fill="#030303"/>
<path d="M248,190L249,190L247,188L248,190Z" fill="#030303"/>
<path d="M246,188L247,188L246,187L246,188Z" fill="#030303"/>
<path d="M245,187L246,187L245,186L245,187Z" fill="#030303"/>
<path d="M244,186L245,186L244,185L244,186Z" fill="#030303"/>
<path d="M242,184L243,184L242,183L242,184Z" fill="#030303"/>
<path d="M241,183L242,183L241,182L241,183Z" fill="#030303"/>
<path d="M236,178L237,178L236,177L236,178Z" fill="#020202"/>
<path d="M235,177L236,177L234,175L235,177Z" fill="#020202"/>
<path d="M233,175L234,175L233,174L233,175Z" fill="#020202"/>
<path d="M232,174L233,174L232,173L232,174Z" fill="#020202"/>
<path d="M231,173L232,173L231,171L231,173Z" fill="#020202"/>
<path d="M218,159L219,159L218,158L218,159Z" fill="#020202"/>
<path d="M97,156C98.2014,154.802 98.6259,150.544 99,150C96.6898,152.186 95.6553,152.255 97,156Z" fill="#020202"/>
<path d="M94,153L94,152L94,153Z" fill="#020202"/>
<path d="M210,151L211,151L210,150L210,151Z" fill="#020202"/>
<path d="M197,138L198,138L197,137L197,138Z" fill="#020202"/>
<path d="M193,134L194,134L193,133L193,134Z" fill="#020202"/>
<path d="M184,125L185,125L184,124L184,125Z" fill="#020202"/>
<path d="M180,121L181,121L180,120L180,121Z" fill="#020202"/>
<path d="M176,117L177,117L176,116L176,117Z" fill="#020202"/>
<path d="M167,108L168,108L167,107L167,108Z" fill="#020202"/>
<path d="M163,104L164,104L163,103L163,104Z" fill="#020202"/>
<path d="M518,99L522,99C522.675,96.8891 517.326,98.5629 518,98L518,99Z" fill="#040404"/>
<path d="M142,83L143,83L142,82L142,83Z" fill="#020202"/>
<path d="M113,61L114,61L113,60L113,61Z" fill="#020202"/>
<path d="M97,53L98,52L97,53Z" fill="#020202"/>
<path d="M43,52L44,51L43,52Z" fill="#020202"/>
<path d="M44,50L46,48L44,50Z" fill="#020202"/>
<path d="M625,50L626,50L624,48L625,50Z" fill="#020202"/>
<path d="M46,48L47,47L46,48Z" fill="#020202"/>
<path d="M623,48L624,48L623,47L623,48Z" fill="#020202"/>
<path d="M47,47L48,46L47,47Z" fill="#020202"/>
<path d="M622,47L623,47L622,46L622,47Z" fill="#020202"/>
<path d="M48,46L50,44L48,46Z" fill="#020202"/>
<path d="M621,46L622,46L620,44L621,46Z" fill="#020202"/>
<path d="M51,44L52,43L51,44Z" fill="#020202"/>
</g>
<g id="layer1" visibility="hidden">
<path d="M99,627C107.53,623.531 112.982,616.98 119,611C125.206,605.207 130.793,598.792 137,593C143.153,587.155 149.203,581.202 154,574C161.566,570.069 167.038,562.213 172,557C178.332,551.333 184.017,545.016 190,539C195.999,533.001 202.001,526.999 208,521C214.546,515.547 219.736,508.735 226,503C231.498,497.001 238.825,490.999 243,485C251.067,481.069 255.214,473.213 262,468C268.426,462.427 273.347,455.346 280,450C286.313,444.314 291.632,437.631 298,432C303.869,426.371 310.307,419.482 315,414C321.965,408.966 326.111,401.11 334,397C339.026,390.027 345.147,384.146 351,378C357.829,372.831 362.549,365.548 369,360C375.653,355.155 380.575,346.749 387,343C393.37,337.371 398.483,330.482 405,325C411.348,319.349 416.43,312.428 423,307C429.264,301.265 434.454,294.453 441,289C446.95,283.452 452.995,276.17 458,271C464.653,265.654 469.575,258.573 476,253C481.999,247.001 488.001,240.999 494,235C499.999,229.001 506.001,222.999 512,217C518.368,211.87 523.687,203.862 530,200C536.137,194.138 541.539,187.538 548,182C554.354,176.355 559.15,169.149 566,164C572.169,158.17 577.251,151.25 584,146C590.52,141.022 594.983,132.158 601,128C610.566,113.587 601.29,120.293 595,128C582.851,138.632 591.039,125.802 595,121C599.349,113.351 606.784,108.783 610,100C614.396,92.8984 621.16,86.3351 624,79C629.086,75.4921 628.409,46.4946 626,69C626.945,75.2236 608.494,89.7667 615,78C621.787,72.7886 622.006,61.0047 625,52C625.643,44.3373 616.231,40.5995 608,46C595.811,45.8093 591.822,53.8236 583,57C573.056,58.7966 590.935,46.7386 595,45C601.953,40.2119 579.427,47.6232 577,51C572.048,57.5463 563.714,62.5397 558,67C548.846,69.845 544.84,77.8409 537,82C531.854,88.8526 523.998,92.9991 518,99C527.23,96.4908 536.079,91.811 547,94C555.829,91.3308 567.601,89.7762 572,84C570.428,94.4266 555.842,91.8427 549,97C535.34,100.813 528.24,100.826 547,102C553.819,96.5648 567.056,94.4021 569,106C584.869,109.802 558.316,90.0544 570,94C572.855,106.717 589.914,87.3015 578,102C574,110.926 568.409,112.429 562,120C556.249,126.247 550.107,132.108 542,136C534.991,140.489 526.127,144.952 521,150C504.764,158.669 513.461,146.476 522,143C528.216,134.209 509.609,147.064 506,149C500.856,155.855 491.145,158.146 486,165C477.032,166.527 472.057,177.531 463,175C456.696,174.932 484.659,161.175 467,165C460.034,170.032 452.788,174.789 446,180C439.589,185.587 430.884,188.885 425,195C417.677,199.175 411.676,206.501 407,212C401.001,217.999 394.999,224.001 389,230C383.001,235.498 376.999,242.825 371,247C365.001,252.999 358.999,259.001 353,265C347.502,270.999 340.175,277.001 336,283C330.001,288.999 323.999,295.001 318,301C312.001,306.999 305.999,313.001 300,319C294.001,324.999 287.999,331.001 282,337C276.001,342.498 269.999,349.825 264,354C258.001,359.999 251.999,366.001 246,372C240.001,377.999 233.999,384.001 228,390C222.001,395.999 215.999,402.001 210,408C204.502,413.999 197.175,420.001 193,426C187.001,431.999 180.999,438.001 175,444C169.001,449.999 162.999,456.001 157,462C151.001,467.999 144.999,474.001 139,480C133.001,485.498 126.999,492.825 121,497C115.001,502.999 108.999,509.001 103,515C97.0006,520.999 90.9994,527.001 85,533C79.0006,538.999 72.9994,545.001 67,551C61.3716,556.869 54.8085,563.634 49,568C39.8634,580.453 56.357,570.008 59,564C67.1083,560.11 71.3958,552.395 78,547C83.9994,541.001 90.0006,534.999 96,529C101.999,523.502 108.001,516.175 114,512C119.999,506.001 126.001,499.999 132,494C137.999,488.001 144.001,481.999 150,476C155.999,470.001 162.001,463.999 168,458C173.498,452.001 180.825,445.999 185,440C190.999,434.001 197.001,427.999 203,422C208.999,416.001 215.001,409.999 221,404C226.999,398.001 233.001,391.999 239,386C244.999,380.502 251.001,373.175 257,369C262.999,363.001 269.001,356.999 275,351C280.498,345.001 287.825,338.999 292,333C297.999,327.001 304.001,320.999 310,315C315.999,309.502 322.001,302.175 328,298C333.999,292.001 340.001,285.999 346,280C351.999,274.001 358.001,267.999 364,262C369.999,256.001 376.001,249.999 382,244C387.498,238.001 394.825,231.999 399,226C404.999,220.001 411.001,213.999 417,208C422.999,203.262 429.001,193.085 435,194C429.001,199.999 422.999,206.001 417,212C411.001,217.498 404.999,224.825 399,229C393.001,234.999 386.999,241.001 381,247C375.001,252.999 368.999,259.001 363,265C357.001,270.999 350.999,277.001 345,283C339.502,288.999 332.175,295.001 328,301C322.001,306.999 315.999,313.001 310,319C304.001,324.498 297.999,331.825 292,336C286.001,341.999 279.999,348.001 274,354C268.502,359.999 261.175,366.001 257,372C251.001,377.999 244.999,384.001 239,390C233.001,395.999 226.999,402.001 221,408C215.001,413.999 208.999,420.001 203,426C197.001,431.498 190.999,438.825 185,443C179.001,448.999 172.999,455.001 167,461C161.001,466.999 154.999,473.001 149,479C143.001,484.999 136.999,491.001 131,497C125.502,502.999 118.175,509.001 114,515C108.001,520.999 101.999,527.001 96,533C90.0006,538.999 83.9994,545.001 78,551C73.2569,556.025 70.2763,564.796 63,570C66.7158,581.878 48.4179,571.324 56,582C55.6078,592.384 73.3889,577.161 65,593C72.2234,590.746 76.8525,598.784 88,599C85.1322,606.091 92.6132,615.806 102,611C94.3298,616.726 88.3925,618.921 99,627ZM568,627C578.238,619.641 587.24,609.598 595,601C604.03,592.699 612.266,583.597 622,576C637.043,557.206 613.128,579.825 609,585C600.334,593.666 591.666,602.334 583,611C569.351,624.192 567.111,625.154 579,611C587.568,603.335 597.405,591.535 603,587C617.606,575.047 611.544,578.664 618,566C613.668,558.227 615.471,551.521 603,545C603.303,543.271 599.336,541.007 599,540C589.381,533.235 594.736,540.191 583,531C565.077,522.098 574.437,524.251 563,511C550.181,503.056 552.179,491.242 543,483C535.763,480.844 534.612,477.3 530,472C522.504,469.587 522.8,468.27 517,457C495.115,461.65 507.176,450.336 508,448C502.277,444.626 493.49,449.497 495,439C478.816,438.158 487.637,421.814 477,423C484.336,418.116 460.618,421.397 463,410C470.693,406.808 445.685,407.102 440,399C422.027,415.787 429.932,399.779 439,396C439.674,378.938 419.504,388.473 414,395C410.979,382.013 450.465,382.499 434,379C421.8,376.799 414.993,366.663 403,382C398.168,381.335 411.466,365.304 428,369C418.844,369.992 404.062,356.884 397,372C380.943,388.283 404.761,364.098 409,360C426.505,372.694 415.158,342.429 402,357C393.507,365.839 385.086,374.754 376,383C368,392.332 357.489,399.158 353,412C355.489,415.605 359.594,412.507 361,411C367.29,393.978 359.068,418.081 368,413C371.487,409.508 368.014,419.63 368,420C367.457,435.023 372.745,410.139 377,428C382.135,451.947 379.469,428.713 388,419C401.971,409.767 388.578,424.944 389,430C405.659,442.766 374.469,421.642 391,441C398.706,439.13 393.323,447.758 393,448C394.262,460.071 398.664,430.877 402,432C415.039,419.131 396.834,451.55 399,445C401.691,456.229 416.941,461.619 421,471C423.57,495.673 426.524,468.663 428,480C443.328,479.359 448.427,499.791 437,489C428.516,499.439 447.717,491.131 454,504C466.938,506.084 470.53,527.647 482,510C496.22,505.19 475.526,523.085 466,518C450.493,511.806 467.398,529.825 479,523C484.308,541.838 504.256,511.239 500,526C496.475,538.167 473.217,527.255 473,531C478.122,536.978 494.047,536.995 502,540C520.314,526.322 513.137,543.826 500,546C479.545,529.214 483.834,555.504 501,547C512.537,558.745 506.601,559.437 518,554C524.128,534.775 533.812,554.984 517,558C501.657,569.098 519.857,575.813 524,577C518.609,597.485 541.144,550.892 529,568C525.514,569.948 526.375,569.525 528,566C538.694,551.453 536.643,563.852 537,564C531.712,578.15 525.065,572.296 538,587C539.215,611.7 536.998,570.359 549,572C555.94,576.42 532.483,589.055 549,598C549.416,621.506 553.246,597.428 558,589C571.626,577.584 554.464,609.485 555,602C557.848,623.784 577.984,608.173 573,602C582.494,594.712 589.935,590.661 595,580C602.774,570.885 618.963,560.722 597,558C585.248,575.171 577.284,563.345 594,553C600.902,557.039 622.445,563.728 609,574C598.198,580.53 591.279,590.947 582,599C580.978,610.432 556.29,617.648 568,627ZM86,614C90.2596,610.23 86.6456,605.002 83,604C74.6841,606.463 87.585,610.82 86,614ZM85,593C90.6876,585.268 94.9259,581.04 98,588C94.3039,586.207 84.4715,595.242 85,593ZM69,581C81.9985,562.414 90.4391,575.428 73,584C75.2518,580.919 76.7136,577.046 80,575C73.9148,590.44 60.456,575.539 69,581ZM504,563C514.03,561.51 503.326,556.395 502,554C490.652,553.698 505.052,560.317 504,563ZM590,546C585.825,539.348 570.758,565.343 573,548C586.541,542.926 581.359,527.284 567,536C555.455,546.541 558.581,529.456 571,527C577.144,535.171 591.157,535.888 590,546ZM586,532C594.891,530.573 582.358,523.427 581,522C572.172,523.342 587.029,527.944 586,532ZM566,522C563.754,504.489 543.731,542.256 545,524C555.366,510.557 559.507,505.063 566,522ZM541,506C556.173,493.279 532.389,523.721 535,511C522.295,515.352 553.076,490.24 541,506ZM473,497C474.735,500.578 466.648,497.311 461,506C460.375,499.596 478.535,486.086 473,497ZM535,491C532.492,494.645 516.742,507.468 521,495C536.066,490.941 522.144,472.114 514,484C499.183,498.911 507.737,475.044 518,474C524.005,484.236 535.451,485.072 535,491ZM445,489C449.111,488.27 449.437,489.23 452,486C466.313,471.909 452.815,486.55 456,488C448.907,499.487 450.616,490.489 445,489ZM500,466C507.35,450.49 524.812,475.815 507,465C501.6,477.638 484.811,474.053 500,466ZM498,454C497.706,439.861 479.512,474.892 481,457C498.25,453.701 489.293,433.945 479,442C465.526,457.505 465.542,439.473 478,433C482.108,433.596 493.69,446.942 498,454ZM418,444C431.071,435.494 419.288,450.48 415,453C406.682,457.282 423.918,437.957 418,444ZM461,429C460.766,408.264 485.758,441.197 468,426C458.29,444.777 447.129,428.211 461,429ZM378,421C366.171,421.351 375.833,408.314 378,402C394.383,399.008 364.522,417.411 378,421ZM447,417C454.622,404.932 466.032,417.773 452,416C443.8,431.884 434.572,419.027 447,417ZM454,404C463.674,402.107 457.833,396.749 453,396C440.779,395.796 453.918,401.154 454,404ZM442,393C448.073,391.494 446.424,382.52 443,387C435.389,384.664 439.322,389.307 442,393ZM427,377C434.532,376.358 432.884,369.035 428,370C416.205,368.52 425.246,373.076 427,377ZM255,314C262.866,303.878 254.679,301.94 265,298C265.678,301.229 263.324,308.754 276,297C282.333,290.667 288.667,284.333 295,278C300.618,270.953 306.174,263.839 313,258C312.176,257.281 306.8,243.272 305,252C294.848,250.945 307.073,234.937 296,245C292.201,236.732 278.488,242.633 275,250C262.617,245.02 290.021,244.346 282,235C274.71,221.698 269.078,233.771 260,237C257.449,233.189 268.343,222.835 280,225C289.015,217.95 262.612,228.229 263,216C255.725,212.453 244.783,233.296 246,221C251.657,219.067 258.137,208.13 268,215C282.236,222.912 267.488,210.44 267,208C253.364,220.625 253.978,197.643 247,198C251.89,176.838 244.109,199.119 242,202C246.001,208.947 226.629,221.788 237,205C247.998,198.817 242.253,188.949 235,183C236.917,160.688 229.253,194.665 233,191C228.067,199.198 214.327,206.329 225,191C224.242,174.385 230.522,190.352 226,176C219.327,173.496 224.276,149.837 220,174C212.988,172.972 213.428,192.324 208,184C210.843,177.629 221.114,171.744 217,163C224.597,150.925 206.106,163.151 202,154C191.535,135.35 214.392,162.563 208,148C207.282,138.074 189.939,152.506 196,140C194.059,134.001 189.805,127.036 181,133C190.934,114.717 175.138,131.981 177,121C182.631,110.518 162.641,127.677 162,112C172.617,119.172 171.73,109.305 163,109C173.999,98.5218 146.405,108.086 159,114C151.479,110.856 144.717,123.236 140,129C142.829,137.529 143.529,148.441 144,155C146.791,159.03 148.392,136.411 144,133C148.023,114.993 143.014,150.989 152,131C157.042,126.065 168.328,114.195 171,126C174.032,126.743 161.695,125.871 156,135C148.233,137.826 146.265,155.861 155,160C144.223,161.845 157.268,189.803 155,168C159.332,151.43 163.926,156.017 157,170C162.256,177.389 155.092,192.509 163,194C162.43,184.212 162.134,169.399 171,166C176.356,161.866 185.266,149.527 188,151C201.643,144.867 187.108,159.437 181,162C173.537,160.004 169.892,174.179 166,181C166.365,192.756 166.831,200.741 169,210C172.861,221.251 169.183,188.95 174,188C187.334,184.272 169.857,199.614 173,209C181.267,216.203 168.94,227.003 180,234C178.295,223.71 179.429,209.132 186,204C192.121,204.775 178.893,215.685 182,226C193.654,233.902 183.384,237.89 186,244C189.909,256.164 205.696,235.558 206,252C215.735,256.941 210.313,258.823 212,270C213.26,280.538 226.839,261.484 221,279C225.022,292.818 231.253,253.69 225,269C228.124,261.1 241.183,250.476 236,264C223.482,271.007 240.536,279.556 228,274C230.898,285.91 242.572,282.958 237,295C236.902,287.601 247.124,275.837 246,274C257.053,266.063 244.348,283.538 243,287C238.763,296.704 253.836,299.451 258,306C257.844,311.517 242.512,299.512 255,314ZM262,287C277.565,277.687 258.873,294.938 255,298C264.634,290.617 256.269,284.075 262,287ZM219,263C209.876,264.681 220.332,249.242 220,247C236.149,242.901 211.993,258.097 219,263ZM203,262C206.071,259.419 203.626,253.021 199,253C191.869,254.278 204.143,259.262 203,262ZM298,255C295.533,256.649 286.993,269.671 283,264C285.699,257.936 294.597,249.404 298,255ZM192,243C190.391,239.943 185.487,222.977 197,224C194.293,225.624 190.516,244.505 201,239C204.696,226.146 221.909,236.189 208,240C204.302,241.215 192.198,248.757 192,243ZM284,235C293.411,231.99 285.555,222.297 283,230C271.579,222.714 284.216,231.677 284,235ZM258,206C268.503,203.449 256.476,201.271 256,196C249.363,194.684 254.366,203.888 258,206ZM213,169C216.434,171.438 205.574,176.931 210,173C214.158,155.701 197.66,172.682 193,175C194.795,167.237 204.048,154.986 213,169ZM93,152C93.5649,141.889 103.603,131.417 100,124C95.9119,130.513 90.2216,145.996 93,152ZM155,146C156.143,149.927 153.691,163.454 153,151C148.288,144.544 161.208,138.699 155,146ZM137,144C139.477,133.433 137.928,117.162 131,116C136.909,126.111 131.001,133.98 137,144ZM173,141C187.416,135.403 187.421,141.266 173,145C155.376,166.565 164.506,134.942 173,141ZM87,140C90.9371,129.548 94.6477,110.932 105,105C123.02,95.1489 116.858,100.687 131,100C154.915,91.7384 119.517,76.9984 117,95C107.871,90.9646 130.708,76.2667 137,79C129.416,77.8487 96.0216,74.686 119,72C144.111,76.2287 114.704,57.4742 109,72C113.451,55.3167 75.9971,76.0343 91,65C98.9237,51.2979 122.488,75.6667 109,59C100.075,60.5253 77.3186,50.7672 70,63C61.0987,68.1827 50.1172,89.6467 59,99C57.1753,128.308 60.3946,88.7693 69,86C57.9786,95.258 73.9853,117.143 67,122C76.0926,152.168 69.3421,93.1954 76,116C91.1983,97.136 77.1569,126.759 74,120C74.1288,124.537 75.3433,127.99 80,128C78.1613,152.862 82.0229,123.027 86,119C102.294,99.6588 76.2161,133.01 87,140ZM128,127C127.223,124.675 129.993,107.092 127,113C118.378,116.845 128.663,121.372 128,127ZM137,121C148.906,109.648 162.79,110.326 142,98C137.876,99.2756 134.133,103.215 133,106C140.86,104.928 140.6,102.671 137,121ZM119,113C125.659,108.833 136.47,107.471 121,107C109.101,100.571 114.086,106.335 119,113ZM154,103C160.411,99.9866 156.705,95.2452 150,95C141.614,94.4266 153.405,100.58 154,103ZM52,99C48.6302,80.5866 63.0313,63.5181 65,63C61.3836,58.1544 87.4768,49.4269 98,52C84.7073,46.1213 61.8954,48.9609 55,60C49.6712,69.6739 45.9766,85.6233 52,99ZM141,91C149.684,83.2018 139.824,82.5653 140,84C128.981,81.2779 136.494,85.9118 141,91ZM44,80C45.5653,68.8999 49.3669,60.0323 55,53C58.0939,48.3016 80.7363,44.5091 75,44C64.5542,40.1138 56.6108,47.624 49,52C44.9441,61.6372 39.9806,67.9696 44,80ZM618,53C620.687,58.7901 608.347,60.8009 604,57C602.367,50.8954 622.701,44.4349 618,53Z" fill="#250000" fill-opacity="0.379767"/>
</g>
<g id="layer2">
<path d="M1.69858,597.743C1.69858,597.743 367.511,248.215 413.767,201.041C461.381,158.923 552.015,116.96 597.107,80.1894C604.449,74.2022 606.125,70.3319 597.509,69.2656C581.521,67.287 534.027,68.4035 541.157,60.2445C557.275,41.8011 573.152,26.3941 585.121,18.7475C610.671,2.42423 672.237,-3.60544 667.941,27.1649C663.645,57.9353 647.403,86.9607 619.451,114.859C591.499,142.757 68.2588,666.302 68.2588,666.302L1.69858,597.743Z" fill="#000000"/>
<path d="M668.155,597.743C668.155,597.743 302.342,248.215 256.086,201.041C208.473,158.923 117.838,116.96 72.7465,80.1895C65.4043,74.2022 63.7281,70.332 72.3445,69.2656C88.3327,67.2871 135.826,68.4035 128.696,60.2445C112.578,41.8011 96.7016,26.3942 84.7326,18.7475C59.1824,2.42425 -2.38384,-3.60541 1.91241,27.165C6.20874,57.9353 22.4507,86.9607 50.4026,114.859C78.3544,142.757 601.595,666.302 601.595,666.302L668.155,597.743Z" fill="#000000"/>
</g>
</svg>
