<?xml version='1.0' encoding='utf-8'?>
<!-- Generator: imaengine 6.0   -->
<svg xmlns:xlink="http://www.w3.org/1999/xlink" xmlns="http://www.w3.org/2000/svg" viewBox="0,0,620,910" style="enable-background:new 0 0 620 910;" version="1.1">
<defs/>
<g id="layer0" visibility="hidden">
<path d="M0,967C17.597,967 36.6418,967 53,967C70.3316,967 87.6684,967 105,967C122.597,967 141.642,967 158,967C175.332,967 192.668,967 210,967C227.597,967 246.642,967 263,967C280.332,967 297.668,967 315,967C332.597,967 351.642,967 368,967C385.332,967 402.668,967 420,967C437.597,967 456.642,967 473,967C490.332,967 507.668,967 525,967C542.597,967 561.642,967 578,967C595.332,967 612.668,967 630,967C647.597,967 666.642,967 683,967C700.332,967 717.668,967 735,967C752.597,967 771.642,967 788,967C805.332,967 822.668,967 840,967C840,946.702 840,925.084 840,906C840,886.002 840,865.998 840,846C840,825.702 840,804.084 840,785C840,765.002 840,744.998 840,725C840,704.702 840,683.084 840,664C840,644.002 840,623.998 840,604C840,583.702 840,562.084 840,543C840,523.002 840,502.998 840,483C840,462.702 840,441.084 840,422C840,402.002 840,381.998 840,362C840,341.702 840,320.084 840,301C840,281.002 840,260.998 840,241C840,220.702 840,199.084 840,180C840,160.002 840,139.998 840,120C840,100.002 840,79.998 840,60C840,40.002 840,19.998 840,0C822.403,0 803.358,0 787,0C769.668,0 752.332,0 735,0C717.403,0 698.358,0 682,0C664.668,0 647.332,0 630,0C612.403,0 593.358,0 577,0C559.668,0 542.332,0 525,0C507.403,0 488.358,0 472,0C454.668,0 437.332,0 420,0C402.403,0 383.358,0 367,0C349.668,0 332.332,0 315,0C297.403,0 278.358,0 262,0C244.668,0 227.332,0 210,0C192.403,0 173.358,0 157,0C139.668,0 122.332,0 105,0C87.403,0 68.3582,0 52,0C34.6684,0 17.3316,0 0,0C0,20.2978 0,41.9158 0,61C0,80.998 0,101.002 0,121C0,141.298 0,162.916 0,182C0,201.998 0,222.002 0,242C0,262.298 0,283.916 0,303C0,322.998 0,343.002 0,363C0,383.298 0,404.916 0,424C0,443.998 0,464.002 0,484C0,504.298 0,525.916 0,545C0,564.998 0,585.002 0,605C0,625.298 0,646.916 0,666C0,685.998 0,706.002 0,726C0,746.298 0,767.916 0,787C0,806.998 0,827.002 0,847C0,866.998 0,887.002 0,907C0,926.998 0,947.002 0,967ZM457,930C446.508,931.753 430.07,930.536 417,931C403.001,931 388.999,931 375,931L375,930L372,930C367.334,930 362.666,930 358,930L358,929C345.09,929.054 331.789,927.767 321,927C308.343,926.801 296.958,923.598 286,923C275.706,920.438 262.112,919.445 253,917C241.924,915.41 231.624,913.041 221,911C210.358,908.786 197.912,906.644 189,904C179.19,901.145 168.381,899.284 159,896C147.996,894.148 137.994,889.562 129,887C120.84,882.494 108.602,882.063 107,871C108.701,859.845 112.629,849.185 114,839C117.815,829.959 120.803,818.359 123,809C125.903,799.047 128.754,787.31 132,779C133.984,768.319 136.981,758.646 140,749C142.796,738.94 146.038,727.594 148,718C151.879,709.214 153.609,698.275 157,689C158.852,677.996 163.659,668.215 165,658C168.391,648.725 170.121,637.786 174,629C175.847,617.991 179.835,607.391 182,598C185.016,588.16 187.803,576.36 191,568C193.139,557.283 197.254,546.81 199,537C201.794,527.128 204.837,517.503 207,507C209.939,497.083 213.584,486.14 216,477C218.898,467.233 221.353,457.019 224,447C227.448,437.592 229.714,425.27 233,417C235.177,406.511 238.45,397.116 241,387C246.641,376.296 238.047,364.759 238,355C234.402,345.742 231.54,334.016 229,325C226.51,314.634 223.148,303.408 221,294C218.244,284.09 215.756,273.91 213,264C212.106,250.25 221.749,245.305 226,238C231.528,230.863 236.964,223.63 241,215C246.084,207.228 250.155,196.711 254,189C256.841,179.175 260.837,170.503 260,157C260,152.265 260,145.23 260,142C260.163,129.172 257.602,119.063 255,109C252.175,99.16 247.549,91.1161 245,81C240.186,67.1196 255.23,66.9191 261,61C269.848,57.1824 277.476,52.1414 286,48C295.479,44.814 302.088,38.7534 313,37C322.964,39.701 329.347,45.9874 338,50C346.987,53.6785 354.871,58.4635 365,61C373.109,65.5562 383.173,68.1611 395,69C401.07,69 409.389,69 414,69C429.971,68.3056 442.427,64.0917 455,60C466.983,55.3184 478.105,49.7698 489,44C499.057,31.9883 510.653,38.4368 522,45C533.55,50.1146 543.45,56.8852 555,62C566.315,66.333 577.994,76.6294 568,91C563.803,103.468 558.525,114.86 557,130C554.478,142.935 554.375,162.774 556,177C557.731,191.934 562.108,204.227 568,215C573.155,226.51 583.39,232.945 590,243C601.07,247.989 605.742,263.697 599,278C595.231,290.896 591.734,304.069 588,317C585.414,331.079 580.894,343.229 578,357C571.965,369.264 571.91,384.944 579,396C581.093,410.573 588.335,420 591,434C594.741,446.924 599.259,459.076 603,472C607.592,484.073 611.409,496.926 616,509C619.741,521.924 624.259,534.076 628,547C632.592,559.073 636.409,571.926 641,584C644.741,596.924 649.259,609.076 653,622C657.592,634.073 661.409,646.926 666,659C669.815,671.849 674.395,683.94 678,697C683.249,708.416 685.938,722.397 690,735C694.592,747.073 698.409,759.926 703,772C706.741,784.924 711.259,797.076 715,810C718.823,822.842 723.044,835.291 727,848C729.155,858.312 741.837,878.154 725,882C713.629,887.294 699.507,889.842 687,894C673.794,897.459 660.657,900.992 647,904C634.52,908.185 619.077,909.412 606,913C592.174,915.839 577.812,918.147 563,920C548.965,922.63 534.035,924.37 520,927C505.258,928.503 486.689,927.698 473,929C470.449,931.115 464.079,929.413 460,930L457,930Z" fill="#FFFEFE"/>
<path d="M375,931C388.999,931 403.001,931 417,931C430.07,930.536 446.508,931.753 457,930C455.254,930 451.218,930 451,930C438.335,930 425.665,930 413,930C400.335,930 387.665,930 375,930L375,931Z" fill="#A0A2A1"/>
<path d="M358,930C362.666,930 367.334,930 372,930C369.368,927.897 360.632,929.598 358,929L358,930Z" fill="#504D4D"/>
<path d="M372,930L375,930C387.665,930 400.335,930 413,930C425.665,930 438.335,930 451,930C452.254,927.921 457.186,929.519 460,929C464.079,929 470.449,929 473,929C486.689,927.698 505.258,928.503 520,927C534.035,924.37 548.965,922.63 563,920C577.812,918.147 592.174,915.839 606,913C619.077,909.412 634.52,908.185 647,904C660.657,900.992 673.794,897.459 687,894C699.507,889.842 713.629,887.294 725,882C741.837,878.154 729.155,858.312 727,848C723.044,835.291 718.823,822.842 715,810C711.259,797.076 706.741,784.924 703,772C698.409,759.926 694.592,747.073 690,735C685.938,722.397 683.249,708.416 678,697C674.395,683.94 669.815,671.849 666,659C661.409,646.926 657.592,634.073 653,622C649.259,609.076 644.741,596.924 641,584C636.409,571.926 632.592,559.073 628,547C624.259,534.076 619.741,521.924 616,509C611.409,496.926 607.592,484.073 603,472C599.259,459.076 594.741,446.924 591,434C588.335,420 581.093,410.573 579,396C571.91,384.944 571.965,369.264 578,357C580.894,343.229 585.414,331.079 588,317C591.734,304.069 595.231,290.896 599,278C605.742,263.697 601.07,247.989 590,243C583.39,232.945 573.155,226.51 568,215C562.108,204.227 557.731,191.934 556,177C554.375,162.774 554.478,142.935 557,130C558.525,114.86 563.803,103.468 568,91C577.994,76.6294 566.315,66.333 555,62C543.45,56.8852 533.55,50.1146 522,45C510.653,38.4368 499.057,31.9883 489,44C478.105,49.7698 466.983,55.3184 455,60C442.427,64.0917 429.971,68.3056 414,69C409.389,71.055 401.071,69.4046 395,70L395,69C383.173,68.1611 373.109,65.5562 365,61C354.871,58.4635 346.987,53.6785 338,50C329.347,45.9874 322.964,39.701 313,37C302.088,38.7534 295.479,44.814 286,48C277.476,52.1414 269.848,57.1824 261,61C255.23,66.9191 240.186,67.1196 245,81C247.549,91.1161 252.175,99.16 255,109C257.602,119.063 260.163,129.172 260,142C261.482,144.718 261.482,155.763 260,157C260.837,170.503 256.841,179.175 254,189C250.155,196.711 246.084,207.228 241,215C236.964,223.63 231.528,230.863 226,238C221.749,245.305 212.106,250.25 213,264C215.756,273.91 218.244,284.09 221,294C223.148,303.408 226.51,314.634 229,325C231.54,334.016 234.402,345.742 238,355C238.047,364.759 246.641,376.296 241,387C238.45,397.116 235.177,406.511 233,417C229.714,425.27 227.448,437.592 224,447C221.353,457.019 218.898,467.233 216,477C213.584,486.14 209.939,497.083 207,507C204.837,517.503 201.794,527.128 199,537C197.254,546.81 193.139,557.283 191,568C187.803,576.36 185.016,588.16 182,598C179.835,607.391 175.847,617.991 174,629C170.121,637.786 168.391,648.725 165,658C163.659,668.215 158.852,677.996 157,689C153.609,698.275 151.879,709.214 148,718C146.038,727.594 142.796,738.94 140,749C136.981,758.646 133.984,768.319 132,779C128.754,787.31 125.903,799.047 123,809C120.803,818.359 117.815,829.959 114,839C112.629,849.185 108.701,859.845 107,871C108.602,882.063 120.84,882.494 129,887C137.994,889.562 147.996,894.148 159,896C168.381,899.284 179.19,901.145 189,904C197.912,906.644 210.358,908.786 221,911C231.624,913.041 241.924,915.41 253,917C262.112,919.445 275.706,920.438 286,923C296.958,923.598 308.343,926.801 321,927C331.789,927.767 345.09,929.054 358,929C360.632,929.598 369.368,927.897 372,930ZM431,902C431.222,904.111 423.873,902.437 421,903C420.782,903 416.746,903 415,903C411,903 407,903 403,903C399.667,903 396.333,903 393,903L393,902C380.761,902.241 368.883,902.115 358,901C345.647,901.354 336.03,898.969 325,898C312.685,898.316 303.417,895.581 292,895C281.755,893.247 272.098,890.901 261,890C251.369,887.632 240.597,886.401 231,884C221.809,881.192 210.911,880.088 202,877C191.563,875.438 182.842,872.157 173,870C163.363,867.638 154.108,864.891 145,862C132.305,859.766 142.722,847.131 143,838C148.013,829.851 163.431,836.931 171,838C180.543,840.456 190.131,842.87 200,845C210.373,846.626 219.459,849.543 230,851C239.153,853.845 250.207,854.794 260,857C270.86,858.139 280.762,860.239 292,861C301.904,863.095 313.099,863.902 324,865C333.761,866.105 347.928,865.895 359,867C362.436,867.563 368.111,865.889 370,868L373,868C376.436,868 382.111,868 384,868C398.89,868 415.38,868 429,868C433,868 437,868 441,868L444,868C445.325,865.889 452.674,867.563 454,867C464.75,866.194 479.118,865.974 491,865C502.405,864.849 514.724,862.58 527,862C536.592,860.036 549.797,858.653 561,857C571.004,855.448 584.083,853.939 595,852C604.154,849.598 616.894,847.75 627,845C637.645,844.089 648.916,840.772 659,838C668.817,836.261 681.165,834.021 691,831C697.661,836.719 700.474,849.746 701,859C694.555,864.111 681.045,865.189 672,869C661.815,870.371 651.155,874.299 640,876C630.756,878.312 618.984,881.128 608,883C599.118,885.675 586.643,887.788 575,889C565.468,891.024 552.832,892.976 542,895C531.633,896.189 518.157,897.301 507,899C495.618,899.175 482.906,901.05 470,901C458.763,903.095 443.718,901.386 431,902ZM435,840C424.825,841.824 411.498,840.499 400,841L400,840C393.334,840 386.666,840 380,840C364.453,838.882 347.622,839.043 332,838C317.336,836.42 300.811,835.18 288,833C273.545,831.211 258.696,828.295 246,826C231.856,823.899 217.601,820.39 206,817C190.959,815.376 178.947,810.718 165,808C144.717,808.108 159.884,785.764 161,777C164.305,764.06 168.081,750.072 172,739C174.692,725.447 178.984,711.975 182,700C185.695,687.03 189.291,673.956 193,661C196.695,648.45 200.291,634.282 204,623C206.916,609.672 211.179,596.17 215,585C217.692,571.447 221.984,557.975 225,546C228.695,533.45 232.291,519.282 236,508C239.048,494.803 243.083,481.074 247,470C249.369,456.125 254.092,443.083 257,431C263.412,421.167 257.246,397.237 276,401C278.632,398.897 287.368,400.598 290,400C295.399,400 303.082,400 307,400C316.332,400 325.668,400 335,400C339.735,400 346.77,400 350,400C371.331,400 392.669,400 414,400C435.331,400 456.669,400 478,400C499.331,400 520.669,400 542,400C560.542,402.789 555.752,428.917 565,441C570.054,457.278 575.388,473.281 581,489C586.054,505.278 591.388,521.281 597,537C602.054,553.278 607.388,569.281 613,585C618.054,601.278 623.388,617.281 629,633C633.844,649.487 639.396,665.273 645,681C650.347,696.984 655.141,713.528 660,730C666.089,745.242 670.482,762.187 676,778C677.685,781.648 679.019,785.648 680,790C693.716,806.745 672.402,808.118 661,811C642.97,814.301 624.755,817.423 608,822C589.642,824.973 570.85,827.518 553,831C534.247,833.578 515.708,836.376 495,837C475.549,838.521 455.474,840.709 435,840ZM545,372C523.878,373.542 500.32,372.656 478,373C464.668,373 451.332,373 438,373C424.668,373 411.332,373 398,373C387.334,373 376.666,373 366,373L366,372C354.001,372 341.999,372 330,372C310.377,372 289.404,372 271,372L271,371C266.207,357.128 262.394,342.271 258,328C254.856,312.479 249.681,298.984 247,283C237.236,267.818 245.002,253.56 254,244C261.451,233.179 268.885,220.926 274,209C279.66,195.995 283.092,180.757 285,164C286.981,147.719 286.438,125.429 283,113C279.583,99.1765 267.502,80.9168 288,78C303.205,62.114 311.062,82.996 315,94C322.654,105.01 332.825,113.51 342,123C352.475,130.798 365.343,137.616 378,142C391.298,145.435 414.468,146.724 429,143C444.684,140.411 456.743,132.784 467,126C478.637,118.972 488.2,109.865 496,99C505.051,92.3578 504.866,64.367 521,75C537.231,79.4937 546.393,86.7705 535,105C529.807,118.08 527.256,135.215 526,151C526,155.666 526,160.334 526,165C527.421,175.578 527.807,187.194 531,196C534.059,204.439 537.185,214.641 541,221C545.99,228.009 549.128,236.873 556,242C559.674,249.824 568.325,254.5 572,261C575.339,268.471 568.116,279.328 568,289C564.921,297.418 562.856,308.681 560,316C558.402,326.401 554.831,334.833 553,345C549.35,352.847 548.204,365.029 545,372ZM410,118C411.081,119.299 406.836,119.09 405,119L405,118L401,118C387.13,116.98 375.806,111.813 367,107C358.061,101.048 348.112,94.5081 343,86C342.296,78.0182 361.386,93.5168 370,92C380.076,96.5887 394.07,97.2649 409,97C422.775,95.8843 437.98,94.6001 447,90C453.246,89.8795 479.535,75.5505 469,88C461.901,95.7917 453.421,103.801 445,109C434.685,113.35 424.806,118.141 410,118Z" fill="#030000"/>
<path d="M451,930C451.218,930 455.254,930 457,930L460,930L460,929C457.186,929.519 452.254,927.921 451,930Z" fill="#2A2828"/>
<path d="M460,930C464.079,929.413 470.449,931.115 473,929C470.449,929 464.079,929 460,929L460,930Z" fill="#504D4D"/>
<path d="M393,903C396.333,903 399.667,903 403,903L403,902C399.667,902 396.333,902 393,902L393,903Z" fill="#A4A1A1"/>
<path d="M403,903C407,903 411,903 415,903C413.036,900.885 404.964,902.587 403,902L403,903Z" fill="#D1CFD0"/>
<path d="M415,903C416.746,903 420.782,903 421,903C422.325,900.889 429.674,902.563 431,902C443.718,901.386 458.763,903.095 470,901C482.906,901.05 495.618,899.175 507,899C518.157,897.301 531.633,896.189 542,895C552.832,892.976 565.468,891.024 575,889C586.643,887.788 599.118,885.675 608,883C618.984,881.128 630.756,878.312 640,876C651.155,874.299 661.815,870.371 672,869C681.045,865.189 694.555,864.111 701,859C700.474,849.746 697.661,836.719 691,831C681.165,834.021 668.817,836.261 659,838C648.916,840.772 637.645,844.089 627,845C616.894,847.75 604.154,849.598 595,852C584.083,853.939 571.004,855.448 561,857C549.797,858.653 536.592,860.036 527,862C514.724,862.58 502.405,864.849 491,865C479.118,865.974 464.75,866.194 454,867C452.675,869.111 445.326,867.437 444,868L441,868C439.036,870.115 430.964,868.413 429,869C414.11,869 397.62,869 384,869C380.564,869 374.889,869 373,869L373,868L370,868C366.564,868 360.889,868 359,868L359,867C347.928,865.895 333.761,866.105 324,865C313.099,863.902 301.904,863.095 292,861C280.762,860.239 270.86,858.139 260,857C250.207,854.794 239.153,853.845 230,851C219.459,849.543 210.373,846.626 200,845C190.131,842.87 180.543,840.456 171,838C163.431,836.931 148.013,829.851 143,838C142.722,847.131 132.305,859.766 145,862C154.108,864.891 163.363,867.638 173,870C182.842,872.157 191.563,875.438 202,877C210.911,880.088 221.809,881.192 231,884C240.597,886.401 251.369,887.632 261,890C272.098,890.901 281.755,893.247 292,895C303.417,895.581 312.685,898.316 325,898C336.03,898.969 345.647,901.354 358,901C368.883,902.115 380.761,902.241 393,902C396.333,902 399.667,902 403,902C404.964,902.587 413.036,900.885 415,903Z" fill="#FFFDFD"/>
<path d="M421,903C423.873,902.437 431.222,904.111 431,902C429.674,902.563 422.325,900.889 421,903Z" fill="#D1CFD0"/>
<path d="M373,869C374.889,869 380.564,869 384,869L384,868C382.111,868 376.436,868 373,868L373,869Z" fill="#D2CFCF"/>
<path d="M384,869C397.62,869 414.11,869 429,869L429,868C415.38,868 398.89,868 384,868L384,869Z" fill="#A0A2A1"/>
<path d="M429,869C430.964,868.413 439.036,870.115 441,868C437,868 433,868 429,868L429,869Z" fill="#D2CFCF"/>
<path d="M359,868C360.889,868 366.564,868 370,868C368.111,865.889 362.436,867.563 359,867L359,868Z" fill="#787678"/>
<path d="M444,868C445.326,867.437 452.675,869.111 454,867C452.674,867.563 445.325,865.889 444,868Z" fill="#797676"/>
<path d="M400,841C411.498,840.499 424.825,841.824 435,840C423.502,840 410.175,840 400,840L400,841Z" fill="#504D4D"/>
<path d="M380,840C386.666,840 393.334,840 400,840C410.175,840 423.502,840 435,840C455.474,840.709 475.549,838.521 495,837C515.708,836.376 534.247,833.578 553,831C570.85,827.518 589.642,824.973 608,822C624.755,817.423 642.97,814.301 661,811C672.402,808.118 693.716,806.745 680,790C679.019,785.648 677.685,781.648 676,778C670.482,762.187 666.089,745.242 660,730C655.141,713.528 650.347,696.984 645,681C639.396,665.273 633.844,649.487 629,633C623.388,617.281 618.054,601.278 613,585C607.388,569.281 602.054,553.278 597,537C591.388,521.281 586.054,505.278 581,489C575.388,473.281 570.054,457.278 565,441C555.752,428.917 560.542,402.789 542,400C520.669,400 499.331,400 478,400C456.669,400 435.331,400 414,400C392.669,400 371.331,400 350,400C346.77,402.103 339.735,400.402 335,401C325.668,401 316.332,401 307,401C301.601,401 293.918,401 290,401C285.334,401 280.666,401 276,401C257.246,397.237 263.412,421.167 257,431C254.092,443.083 249.369,456.125 247,470C243.083,481.074 239.048,494.803 236,508C232.291,519.282 228.695,533.45 225,546C221.984,557.975 217.692,571.447 215,585C211.179,596.17 206.916,609.672 204,623C200.291,634.282 196.695,648.45 193,661C189.291,673.956 185.695,687.03 182,700C178.984,711.975 174.692,725.447 172,739C168.081,750.072 164.305,764.06 161,777C159.884,785.764 144.717,808.108 165,808C178.947,810.718 190.959,815.376 206,817C217.601,820.39 231.856,823.899 246,826C258.696,828.295 273.545,831.211 288,833C300.811,835.18 317.336,836.42 332,838C347.622,839.043 364.453,838.882 380,840Z" fill="#FFFEFE"/>
<path d="M276,401C280.666,401 285.334,401 290,401L290,400C287.368,400.598 278.632,398.897 276,401Z" fill="#504D4D"/>
<path d="M290,401C293.918,401 301.601,401 307,401L307,400C303.082,400 295.399,400 290,400L290,401Z" fill="#797676"/>
<path d="M307,401C316.332,401 325.668,401 335,401L335,400C325.668,400 316.332,400 307,400L307,401Z" fill="#A4A1A1"/>
<path d="M335,401C339.735,400.402 346.77,402.103 350,400C346.77,400 339.735,400 335,400L335,401Z" fill="#D2CFCF"/>
<path d="M366,373C376.666,373 387.334,373 398,373L398,372C387.334,372 376.666,372 366,372L366,373Z" fill="#2A2828"/>
<path d="M398,373C411.332,373 424.668,373 438,373C451.332,373 464.668,373 478,373L478,372C465.335,372 452.665,372 440,372C427.823,372 413.866,372 403,372C401.564,372 397.889,372 398,372L398,373Z" fill="#504D4D"/>
<path d="M478,373C500.32,372.656 523.878,373.542 545,372C522.68,372 499.122,372 478,372L478,373Z" fill="#787678"/>
<path d="M271,372C289.404,372 310.377,372 330,372L330,371C310.377,371 289.404,371 271,371L271,372Z" fill="#A3A1A2"/>
<path d="M330,372C341.999,372 354.001,372 366,372C376.666,372 387.334,372 398,372C399.436,372 403.111,372 403,372C392.622,370.201 377.378,371.488 367,371C354.823,371 340.866,371 330,371L330,372Z" fill="#D2CFCF"/>
<path d="M403,372C413.866,372 427.823,372 440,372C452.665,372 465.335,372 478,372C499.122,372 522.68,372 545,372C548.204,365.029 549.35,352.847 553,345C554.831,334.833 558.402,326.401 560,316C562.856,308.681 564.921,297.418 568,289C568.116,279.328 575.339,268.471 572,261C568.325,254.5 559.674,249.824 556,242C549.128,236.873 545.99,228.009 541,221C537.185,214.641 534.059,204.439 531,196C527.807,187.194 527.421,175.578 526,165L525,165C525.598,160.863 523.897,152.127 526,151C527.256,135.215 529.807,118.08 535,105C546.393,86.7705 537.231,79.4937 521,75C504.866,64.367 505.051,92.3578 496,99C488.2,109.865 478.637,118.972 467,126C456.743,132.784 444.684,140.411 429,143C414.468,146.724 391.298,145.435 378,142C365.343,137.616 352.475,130.798 342,123C332.825,113.51 322.654,105.01 315,94C311.062,82.996 303.205,62.114 288,78C267.502,80.9168 279.583,99.1765 283,113C286.438,125.429 286.981,147.719 285,164C283.092,180.757 279.66,195.995 274,209C268.885,220.926 261.451,233.179 254,244C245.002,253.56 237.236,267.818 247,283C249.681,298.984 254.856,312.479 258,328C262.394,342.271 266.207,357.128 271,371C289.404,371 310.377,371 330,371C340.866,371 354.823,371 367,371C377.378,371.488 392.622,370.201 403,372Z" fill="#FFFEFE"/>
<path d="M525,165L526,165C526,160.334 526,155.666 526,151C523.897,152.127 525.598,160.863 525,165Z" fill="#D2CFCF"/>
<path d="M260,157C261.482,155.763 261.482,144.718 260,142C260,145.23 260,152.265 260,157Z" fill="#787678"/>
<path d="M405,119C406.836,119.09 411.081,119.299 410,118C408.564,118 404.889,118 405,118L405,119Z" fill="#2A2828"/>
<path d="M401,118L405,118C406.436,118 410.111,118 410,118C424.806,118.141 434.685,113.35 445,109C453.421,103.801 461.901,95.7917 469,88C479.535,75.5505 453.246,89.8795 447,90C437.98,94.6001 422.775,95.8843 409,97C394.07,97.2649 380.076,96.5887 370,92C361.386,93.5168 342.296,78.0182 343,86C348.112,94.5081 358.061,101.048 367,107C375.806,111.813 387.13,116.98 401,118Z" fill="#FFFEFE"/>
<path d="M395,70C401.071,69.4046 409.389,71.055 414,69C409.389,69 401.07,69 395,69L395,70Z" fill="#4F4D4F"/>
</g>
<g id="layer1">
<path d="M145.017,57.8045C179.883,157.077 137.853,201.585 114.075,238.358C112.476,240.832 143.632,366.401 143.632,366.401L9.75642,846.453C94.1613,901.825 423.412,925.831 603.834,849.417L445.071,365.681L473.847,241.907C425.628,187.657 413.156,140.132 441.412,61.0434C441.412,61.0434 402.189,35.0516 391.256,31.2393C318.172,76.6117 243.046,65.7931 196.564,31.0267L145.017,57.8045Z" stroke="#000000" stroke-width="20" stroke-linecap="round" fill="none" stroke-linejoin="round"/>
<path d="M199.096,37.3917C250.765,134.276 350.627,124.855 390.227,36.0092" stroke="#000000" stroke-width="20" stroke-linecap="round" fill="none" stroke-linejoin="round"/>
<path d="M143.481,365.786C143.481,365.786 432.464,364.459 443.399,366.239" stroke="#000000" stroke-width="20" stroke-linecap="round" fill="none" stroke-linejoin="round"/>
<path d="M26.366,794.781C157.207,832.889 365.963,855.616 584.91,794.207" stroke="#000000" stroke-width="20" stroke-linecap="round" fill="none" stroke-linejoin="round"/>
</g>
</svg>
