<?xml version='1.0' encoding='utf-8'?>
<!-- Generator: imaengine 6.0   -->
<svg xmlns:xlink="http://www.w3.org/1999/xlink" xmlns="http://www.w3.org/2000/svg" viewBox="0,0,821,580" style="enable-background:new 0 0 821 580;" version="1.1">
<defs/>
<g id="layer0">
<path d="M568.413,276.504C568.413,301.447 548.193,321.668 523.249,321.668C498.306,321.668 478.085,301.447 478.085,276.504C478.085,251.56 498.306,231.34 523.249,231.34C548.193,231.34 568.413,251.56 568.413,276.504Z" stroke="#000000" stroke-width="13.6702" stroke-linecap="round" fill="none" stroke-linejoin="round"/>
<path d="M677.458,229.149C677.458,292.08 665.374,343.096 650.468,343.096C635.562,343.096 623.478,292.08 623.478,229.149C623.478,166.218 635.562,115.203 650.468,115.203C665.374,115.203 677.458,166.218 677.458,229.149Z" stroke="#000000" stroke-width="16" stroke-linecap="round" fill="none" stroke-linejoin="round"/>
<path d="M697.074,88.5541L779.062,88.5541C782.913,88.5541 786.036,91.6764 786.036,95.5281L786.036,109.476C786.036,113.328 782.913,116.45 779.062,116.45L697.074,116.45C693.222,116.45 690.1,113.328 690.1,109.476L690.1,95.5281C690.1,91.6764 693.222,88.5541 697.074,88.5541Z" stroke="#000000" stroke-width="16.3375" stroke-linecap="round" fill="#000000" stroke-linejoin="round"/>
<path d="M676.38,160.583C676.38,160.583 681.118,125.295 711.358,124.911C726.862,124.714 684.018,98.832 684.018,98.832C682.121,117.5 680.547,135.727 663.421,117.668L676.38,160.583Z" fill="#000000"/>
<path d="M503.625,31.2745L530.854,31.2745C536.059,31.2745 540.278,35.7199 540.278,41.2037L540.278,120.638C540.278,126.121 536.059,130.567 530.854,130.567L503.625,130.567C498.421,130.567 494.201,126.121 494.201,120.638L494.201,41.2037C494.201,35.7199 498.421,31.2745 503.625,31.2745Z" stroke="#000000" stroke-width="17.6559" stroke-linecap="round" fill="none" stroke-linejoin="round"/>
<path d="M490.272,123.198C490.272,123.198 495.283,137.002 485.597,141.191C473.36,146.484 302.259,190.643 257.284,189.607C212.309,188.572 135.143,147.538 107.562,143.65C79.9822,139.761 68.4263,145.475 64.3127,148.937C60.1991,152.399 54.4435,386.821 64.5959,387.886C90.1441,390.567 128.156,391.688 137.086,383.94C146.016,376.192 147.75,310.715 183.107,294.673C213.92,280.693 375.563,276.141 403.053,289.396C430.542,302.651 451.165,313.584 450.636,352.779C450.107,391.973 452.823,422.957 442.917,424.854C433.011,426.751 33.4481,426.77 21.6328,425.806C14.8607,425.254 9.38366,555.801 22.2812,555.801C38.7457,555.801 670.104,555.736 670.104,555.736C671.831,546.745 680.809,443.968 665.939,435.46C659.393,431.714 607.643,435.879 604.425,428.045C601.207,420.21 605.335,230.277 604.429,222.627C603.523,214.976 598.686,187.397 582.535,168.292C570.661,154.247 532.57,146.874 527.204,132.664C524.324,125.953 490.272,123.198 490.272,123.198Z" fill="#000000"/>
<path d="M591.965,188.16C591.965,188.16 598.814,208.107 606.86,208.233C614.906,208.36 618.585,188.961 621.142,180.503C623.7,172.046 624.285,280.283 624.285,280.283C624.285,280.283 618.339,260.099 610.859,259.367C603.379,258.635 602.269,270.649 598.887,277.792C595.505,284.936 591.965,188.16 591.965,188.16Z" fill="#000000"/>
<path d="M119.023,376.501L119.023,433.136" stroke="#000000" stroke-width="2.97544" stroke-linecap="round" fill="none" stroke-linejoin="round"/>
<path d="M94.7099,383.413C94.7099,383.413 105.152,389.026 105.919,408.647C106.687,428.268 94.1673,429.993 94.1673,429.993L111.226,430.817L111.082,380.949L94.7099,383.413Z" fill="#000000"/>
<path d="M127.67,383.993L127.67,429.44L138.349,429.44C138.349,429.44 132.565,421.553 132.304,405.4C132.043,389.248 136.543,378.202 136.543,378.202L127.67,383.993Z" fill="#000000"/>
</g>
</svg>
