<?xml version='1.0' encoding='utf-8'?>
<!-- Generator: imaengine 6.0   -->
<svg xmlns:xlink="http://www.w3.org/1999/xlink" xmlns="http://www.w3.org/2000/svg" viewBox="0,0,700,320" style="enable-background:new 0 0 700 320;" version="1.1">
<defs/>
<g id="layer0">
<path d="M694.287,130.868C684.874,108.636 666.047,90.7106 644.616,79.9951C615.374,65.3741 582.226,62.1694 549.979,60.6673L548.577,43.9432C514.228,43.3423 396.658,10.5951 366.715,2.18298C362.008,0.881099 357.202,0.180092 352.294,0.180092C346.686,0.180092 341.178,1.08138 335.871,2.78385C268.073,24.9157 203.28,41.9403 142.792,51.8546L142.792,69.2797C118.057,65.7746 92.9206,67.4771 68.9861,74.7876C45.4522,81.998 19.4147,94.0154 8.09834,117.249C-13.3325,161.513 10.5018,214.99 53.1633,235.619C79.0005,248.138 107.642,250.441 135.883,251.542L133.579,262.158C180.347,265.863 295.212,306.922 324.755,317.738C329.462,319.44 334.369,320.342 339.376,320.342L357.202,320.342C360.306,320.342 363.511,320.041 366.515,319.34L562.898,275.176L559.193,253.345C608.564,254.647 662.341,244.833 689.38,199.067C701.698,178.036 703.801,153.201 694.287,130.868ZM343.482,32.8271L344.583,32.1261L345.785,32.5267C347.087,32.9273 475.071,68.779 537.261,72.985L536.86,78.6933C477.375,74.5873 358.503,42.0404 345.385,38.3351C321.75,51.2537 170.132,86.1039 163.623,87.6061L162.321,81.998C218.502,69.1795 328.761,42.3408 343.482,32.8271ZM150.504,185.447L137.485,244.432C92.9206,242.529 41.847,236.721 18.1128,193.559C7.59766,174.431 4.39304,150.997 10.8023,129.967C18.5134,104.631 41.3463,91.8122 64.9804,83.6003C89.9163,74.8878 116.755,72.3842 142.893,76.3899L142.893,85.5031L138.586,131.469L138.586,152.099C138.586,157.307 140.389,162.414 143.594,166.52L147.199,171.026C150.303,175.132 151.605,180.34 150.504,185.447ZM349.09,296.808L348.189,297.108L347.287,296.808C298.717,279.383 239.432,264.761 160.718,250.942L161.72,245.333C240.233,259.153 299.619,273.674 348.289,291.099C411.079,270.169 473.269,256.049 538.563,247.837L539.264,253.545C474.07,261.757 411.88,275.877 349.09,296.808ZM686.076,189.853C675.56,211.084 656.233,227.107 634.301,235.82C610.066,245.434 583.728,247.136 557.891,246.135L557.09,241.328L537.662,196.763L539.064,180.941L533.355,154.402L550.68,101.226C552.083,97.0197 552.583,92.5132 552.183,88.0067L550.48,67.6774C599.351,70.0808 655.732,78.1925 682.971,124.159C694.988,144.588 696.591,168.723 686.076,189.853Z" fill="#000000"/>
</g>
</svg>
