<?xml version='1.0' encoding='utf-8'?>
<!-- Generator: imaengine 6.0   -->
<svg xmlns:xlink="http://www.w3.org/1999/xlink" xmlns="http://www.w3.org/2000/svg" viewBox="0,0,840,976" style="enable-background:new 0 0 840 976;" version="1.1">
<defs/>
<g id="layer0">
<path d="M393.115,508.362C393.115,527.191 377.851,542.456 359.021,542.456C340.192,542.456 324.927,527.191 324.927,508.362C324.927,489.532 340.192,474.268 359.021,474.268C377.851,474.268 393.115,489.532 393.115,508.362Z" fill="#000000"/>
<path d="M715.099,2.20485C709.505,2.52498 700.387,10.9227 695.974,17.3611C687.148,30.2379 395.635,359.387 382.693,374.767C369.75,390.148 365.233,390.309 359.536,390.142C353.84,389.976 345.515,382.036 337.536,373.205C329.558,364.373 45.7991,47.56 26.4425,21.8613C7.08574,-3.83767 -3.41984,5.61222 6.19252,36.0801C15.8049,66.5479 96.9989,254.738 123.005,305.643C149.011,356.547 221.989,467.715 246.193,496.549C270.396,525.383 241.13,544.049 241.13,544.049C241.13,544.049 239.793,544.801 215.068,578.955C190.342,613.109 162.443,608.018 162.443,608.018L173.474,614.143L236.724,616.674L291.943,651.549L322.13,705.08C322.13,705.08 342.753,746.227 331.036,699.799C319.32,653.37 332.203,654.964 337.161,643.33C342.12,631.697 362.036,611.674 362.036,611.674C362.036,611.674 387.609,646.044 394.224,666.517C400.839,686.991 393.724,715.017 393.724,715.017L406.068,685.049L442.318,642.767L506.13,613.455L562.911,617.142C562.911,617.142 582.549,609.083 554.88,604.205C527.212,599.327 521.32,596.044 513.818,591.049C506.316,586.053 487.455,551.438 482.786,540.111C478.118,528.785 445.507,530.654 482.63,487.611C519.753,444.568 565.27,370.404 614.13,268.674C662.99,166.943 693.719,87.0796 713.068,35.4549C722.742,9.64245 720.693,1.88472 715.099,2.20485ZM670.102,89.1652C670.102,89.1652 642.571,160.509 620.874,209.633C597.124,255.708 544.577,360.696 500.633,426.515C458.853,476.581 457.522,502.754 436.693,485.361C412.306,466.105 398.036,445.444 390.193,432.955C382.349,420.466 380.951,411.817 392.036,397.861C403.122,383.905 670.102,89.1651 670.102,89.1652ZM52.7863,86.1426C55.198,77.3197 318.658,381.134 328.161,393.267C337.665,405.401 350.878,414.372 334.849,430.642C318.82,446.913 300.017,474.377 288.318,484.517C276.618,494.658 270.735,494.417 257.224,479.611C243.713,464.805 169.219,353.361 144.568,303.893C119.917,254.424 50.3746,94.9654 52.7863,86.1426ZM362.661,441.924C368.716,441.698 374.764,444.619 379.505,450.861C388.988,463.345 441.655,523.727 451.724,533.799C461.793,543.87 468.017,550.935 473.349,561.986C478.681,573.037 491.715,588.26 491.505,594.924C491.296,601.587 495.875,606.782 476.318,614.361C456.76,621.941 443.432,632.935 434.693,640.236C425.953,647.537 414.228,655.992 402.755,639.174C391.282,622.355 386.209,601.207 359.536,579.924C332.864,558.64 312.896,540.255 302.724,529.58C292.552,518.905 297.244,507.094 302.911,501.674C308.579,496.253 336.18,464.634 345.755,451.892C350.543,445.522 356.607,442.149 362.661,441.924ZM276.411,541.705C281.034,542.082 286.536,544.66 292.786,551.361C309.453,569.231 325.903,578.873 331.536,585.924C337.169,592.975 351.009,593.628 337.911,616.049C324.814,638.469 329.427,631.895 320.943,641.392C312.459,650.89 311.209,654.855 296.911,644.049C282.614,633.242 250.781,611.922 244.005,610.736C237.229,609.551 232.683,596.817 239.318,584.236C245.953,571.655 248.786,567.424 248.786,567.424C248.786,567.424 256.915,553.703 260.911,549.299C263.409,546.546 268.707,541.077 276.411,541.705Z" fill="#000000"/>
<path d="M645.472,735.432C645.472,802.894 590.783,857.582 523.322,857.582C455.86,857.582 401.172,802.894 401.172,735.433C401.172,667.971 455.86,613.283 523.322,613.283C590.783,613.283 645.472,667.971 645.472,735.432Z" stroke="#000000" stroke-width="25" stroke-linecap="round" fill="none" stroke-linejoin="round"/>
<path d="M323.885,737.013C323.885,804.598 269.097,859.387 201.512,859.387C133.927,859.387 79.1388,804.598 79.1388,737.013C79.1387,669.429 133.927,614.64 201.512,614.64C269.097,614.64 323.885,669.429 323.885,737.013Z" stroke="#000000" stroke-width="25.0457" stroke-linecap="round" fill="none" stroke-linejoin="round"/>
<path d="M268.47,737.014C268.47,773.995 238.491,803.974 201.51,803.974C164.529,803.974 134.55,773.995 134.55,737.014C134.55,700.033 164.529,670.054 201.51,670.054C238.491,670.054 268.47,700.033 268.47,737.014Z" stroke="#000000" stroke-width="25" stroke-linecap="round" fill="none" stroke-linejoin="round"/>
<path d="M590.28,735.434C590.28,772.415 560.301,802.394 523.32,802.394C486.339,802.394 456.36,772.415 456.36,735.434C456.36,698.453 486.339,668.474 523.32,668.474C560.301,668.474 590.28,698.453 590.28,735.434Z" stroke="#000000" stroke-width="25" stroke-linecap="round" fill="none" stroke-linejoin="round"/>
</g>
</svg>
