<?xml version="1.0" encoding="UTF-8" standalone="no"?>
<svg
   xmlns:dc="http://purl.org/dc/elements/1.1/"
   xmlns:cc="http://creativecommons.org/ns#"
   xmlns:rdf="http://www.w3.org/1999/02/22-rdf-syntax-ns#"
   xmlns:svg="http://www.w3.org/2000/svg"
   xmlns="http://www.w3.org/2000/svg"
   viewBox="0 0 1066.6667 1066.6667"
   height="1066.6667"
   width="1066.6667"
   xml:space="preserve"
   id="svg2"
   version="1.1"><metadata
     id="metadata8"><rdf:RDF><cc:Work
         rdf:about=""><dc:format>image/svg+xml</dc:format><dc:type
           rdf:resource="http://purl.org/dc/dcmitype/StillImage" /></cc:Work></rdf:RDF></metadata><defs
     id="defs6" /><g
     transform="matrix(1.3333333,0,0,-1.3333333,0,1066.6667)"
     id="g10"><g
       transform="scale(0.1)"
       id="g12"><path
         id="path14"
         style="fill:#efefec;fill-opacity:1;fill-rule:evenodd;stroke:none"
         d="M 0,0 H 8000 V 8000 H 0 V 0" /><path
         id="path16"
         style="fill:#1a1919;fill-opacity:1;fill-rule:nonzero;stroke:none"
         d="m 6613.96,6662.28 c 25.92,-20.73 66.99,-29.11 119.62,-43.06 43.46,-11.56 64.59,-30.3 64.59,-62.6 0,-44.66 -37.88,-73.76 -96.09,-73.76 -57.81,0 -92.9,29.1 -104.06,86.12 h -19.94 c 6.78,-66.19 52.63,-105.26 124.8,-105.26 68.18,0 116.02,39.47 116.02,92.5 0,52.63 -34.68,71.37 -104.86,89.31 -15.55,4.39 -29.9,7.98 -42.26,11.57 -40.27,12.36 -63.4,26.71 -63.4,64.19 0,37.88 34.69,65.79 88.12,65.79 53.43,0 85.72,-26.31 92.5,-75.76 h 19.94 c -5.59,57.42 -47.85,93.7 -110.05,93.7 -68.18,0 -111.64,-37.48 -111.64,-86.52 0,-22.73 9.17,-42.66 26.71,-56.22 z m -350.07,-190.59 h 19.94 v 174.24 c 0,45.46 1.2,78.95 26.71,107.66 19.14,21.53 47.85,33.49 83.73,33.49 65.79,0 91.31,-33.49 91.31,-105.66 v -209.73 h 19.93 v 216.11 c 0,78.15 -36.68,117.22 -112.03,117.22 -51.44,0 -89.32,-22.32 -109.65,-61 v 53.43 h -19.94 z m -337.71,162.68 c 0,96.49 48.65,152.71 123.21,152.71 74.16,0 123.2,-56.22 123.2,-152.71 0,-96.89 -49.04,-152.71 -123.2,-152.71 -74.56,0 -123.21,55.82 -123.21,152.71 z m -19.53,0 c 0,-106.86 55.02,-170.65 142.74,-170.65 87.31,0 143.14,63.79 143.14,170.65 0,106.46 -55.83,170.65 -143.14,170.65 -87.72,0 -142.74,-64.19 -142.74,-170.65 z m -56.62,-57.42 h -18.74 c -7.18,-58.21 -51.43,-95.29 -108.05,-95.29 -74.16,0 -122.8,55.82 -122.8,152.71 0,96.49 48.64,152.71 122.8,152.71 54.62,0 95.29,-32.3 103.66,-84.53 h 19.94 c -8.77,63.8 -54.62,102.47 -123.6,102.47 -87.32,0 -142.74,-64.19 -142.74,-170.65 0,-106.86 56.62,-170.65 141.14,-170.65 71.37,0 120.81,43.46 128.39,113.23 z M 5488,6471.69 h 19.93 v 325.76 H 5488 Z m 0,398.33 h 19.93 v 52.63 H 5488 Z m -487.63,-218.9 c 4.79,85.32 52.23,135.96 120.41,135.96 64.59,0 111.64,-51.03 111.64,-135.96 z m 247.2,-83.34 h -19.53 c -14.76,-53.82 -57.42,-86.12 -110.85,-86.12 -67.78,0 -117.62,55.82 -117.62,146.33 v 5.18 h 253.98 v 11.57 c 0,101.67 -52.63,160.28 -136.36,160.28 -83.33,0 -137.95,-64.19 -137.95,-170.65 0,-106.86 54.62,-170.65 137.95,-170.65 64.6,0 116.03,40.67 130.38,104.06 z m -579.33,-96.09 h 19.94 v 174.24 c 0,45.46 1.2,78.95 26.71,107.66 19.14,21.53 47.85,33.49 83.73,33.49 65.79,0 91.31,-33.49 91.31,-105.66 v -209.73 h 19.93 v 216.11 c 0,78.15 -36.68,117.22 -111.64,117.22 -51.83,0 -89.71,-22.32 -110.04,-61 v 53.43 h -19.94 z m -108.05,0 h 19.94 v 325.76 h -19.94 z m 0,398.33 h 19.94 v 52.63 h -19.94 z m -109.64,-398.33 h 19.93 v 450.96 h -19.93 z m -487.63,179.43 c 4.78,85.32 51.83,135.96 120.01,135.96 64.59,0 112.04,-51.03 112.04,-135.96 z m 246.8,-83.34 h -19.13 c -15.16,-53.82 -57.82,-86.12 -111.25,-86.12 -67.78,0 -117.22,55.82 -117.22,146.33 v 5.18 h 253.98 v 11.57 c 0,101.67 -53.03,160.28 -136.76,160.28 -82.93,0 -137.55,-64.19 -137.55,-170.65 0,-106.86 54.62,-170.65 137.55,-170.65 64.6,0 116.03,40.67 130.38,104.06 z m -358.84,65.79 c 0,-96.09 -48.24,-152.71 -122.8,-152.71 -74.56,0 -123.6,56.62 -123.6,152.71 0,96.89 49.04,153.51 123.6,153.51 74.56,0 122.8,-56.62 122.8,-153.51 z m 19.54,288.68 h -19.54 v -196.17 c -18.34,48.24 -63,78.94 -122.8,78.94 -87.32,0 -143.14,-64.59 -143.14,-171.45 0,-107.25 55.82,-170.65 143.14,-170.65 59.8,0 102.47,28.71 122.8,81.34 v -72.57 h 19.54 z m -383.17,-263.96 v -47.44 c 0,-44.26 -4.38,-70.98 -32.29,-95.3 -22.73,-19.14 -56.22,-31.5 -92.9,-31.5 -53.03,0 -82.14,27.11 -82.14,74.96 0,51.84 40.67,69.78 123.61,80.14 47.04,5.59 74.95,7.58 83.72,19.14 z m 60.21,-187.8 v 16.75 c -4.39,-0.8 -7.97,-1.19 -11.56,-1.19 -25.12,0 -28.71,15.94 -28.71,56.21 v 158.3 c 0,26.71 -0.8,48.64 -14.35,66.98 -16.75,25.12 -49.04,37.88 -94.9,37.88 -74.96,0 -121.6,-38.27 -124,-98.48 h 18.34 c 3.19,50.64 41.87,80.54 107.66,80.54 57.01,0 87.31,-24.32 87.31,-68.18 v -27.51 c 0,-32.3 -31.49,-28.31 -98.08,-37.88 -88.11,-12.36 -129.58,-36.29 -129.58,-97.69 0,-54.62 38.28,-92.11 96.89,-92.11 59.01,0 105.26,23.53 130.77,63.4 0,-40.27 12.36,-59.01 43.07,-59.01 4.38,0 9.96,1.2 17.14,1.99 z m -778.29,1.2 h 19.94 v 175.44 c 0,44.66 1.19,77.75 24.32,106.46 17.94,20.73 44.66,33.49 76.15,33.49 35.49,0 62.6,-16.74 74.16,-43.06 8.38,-21.13 9.17,-45.85 9.17,-76.95 v -195.38 h 19.14 v 175.44 c 0,44.66 1.2,77.75 24.72,106.46 17.55,20.73 44.26,33.49 75.76,33.49 35.48,0 62.6,-16.74 73.76,-43.06 8.77,-21.13 9.57,-45.85 9.57,-76.95 v -195.38 h 19.94 v 216.11 c 0,77.35 -35.09,117.22 -102.47,117.22 -47.85,0 -84.53,-23.52 -106.06,-66.98 -11.96,41.86 -46.25,66.98 -96.49,66.98 -45.85,0 -81.34,-22.32 -101.67,-61 v 53.43 h -19.94 z m -269.13,161.88 c 0,-96.09 -48.64,-152.71 -122.8,-152.71 -74.56,0 -123.6,56.62 -123.6,152.71 0,96.89 49.04,153.51 123.6,153.51 74.16,0 122.8,-56.62 122.8,-153.51 z m 19.14,288.68 h -19.14 v -196.17 c -18.74,48.24 -63.39,78.94 -122.8,78.94 -87.72,0 -143.54,-64.59 -143.54,-171.45 0,-107.25 55.82,-170.65 143.54,-170.65 59.41,0 102.07,28.71 122.8,81.34 v -72.57 h 19.14 z m -598.07,-450.56 h 19.54 v 174.24 c 0,45.46 1.19,78.95 26.71,107.66 19.54,21.53 47.85,33.49 83.73,33.49 65.79,0 91.3,-33.49 91.3,-105.66 v -209.73 h 19.94 v 216.11 c 0,78.15 -36.68,117.22 -111.64,117.22 -51.43,0 -89.31,-22.32 -110.04,-61 v 53.43 h -19.54 z m -112.04,186.6 v -47.44 c 0,-44.26 -4.39,-70.98 -32.3,-95.3 -22.72,-19.14 -56.21,-31.5 -92.9,-31.5 -52.63,0 -82.13,27.11 -82.13,74.96 0,51.84 40.67,69.78 123.6,80.14 47.45,5.59 75.36,7.58 83.73,19.14 z m 60.21,-187.8 v 16.75 c -4.39,-0.8 -7.98,-1.19 -11.57,-1.19 -24.72,0 -28.7,15.94 -28.7,56.21 v 158.3 c 0,26.71 -0.4,48.64 -14.36,66.98 -16.74,25.12 -49.04,37.88 -94.89,37.88 -74.96,0 -121.61,-38.27 -124,-98.48 h 18.74 c 2.79,50.64 41.46,80.54 107.25,80.54 57.02,0 87.32,-24.32 87.32,-68.18 v -27.51 c 0,-32.3 -31.5,-28.31 -98.08,-37.88 -88.12,-12.36 -129.58,-36.29 -129.58,-97.69 0,-54.62 38.67,-92.11 96.88,-92.11 59.01,0 105.66,23.53 130.78,63.4 0,-40.27 12.76,-59.01 43.06,-59.01 4.39,0 9.97,1.2 17.15,1.99 z m -688.18,1.2 h 21.93 v 231.26 h 284.68 v -231.26 h 21.13 v 450.96 h -21.13 v -200.96 h -284.68 v 200.96 h -21.93 v -450.96" /><path
         id="path18"
         style="fill:#1a1919;fill-opacity:1;fill-rule:nonzero;stroke:none"
         d="m 5912.63,1212.12 c -7.58,-30.7 -10.77,-63.4 -9.17,-97.69 48.24,-4.78 97.28,0 143.14,13.96 -48.65,23.13 -93.7,51.43 -133.97,83.73 z m 40.67,94.1 c -8.38,-13.56 -15.95,-27.51 -22.33,-41.87 -1.99,-3.58 -3.59,-7.57 -5.18,-11.16 50.23,-43.06 108.45,-78.15 173.44,-104.07 19.93,9.57 38.67,21.14 56.61,33.89 -76.95,27.52 -145.13,70.18 -202.54,123.21 z m 55.02,66.59 c -11.16,-10.77 -21.93,-22.33 -31.5,-34.29 58.21,-54.63 128.78,-97.69 209.33,-123.61 1.59,-0.8 3.18,-1.59 4.78,-2.39 2.39,1.99 4.78,4.39 7.18,6.78 10.36,10.36 19.53,20.73 28.3,31.9 -84.12,22.32 -158.28,64.99 -218.09,121.61 z m 81.73,63 c -17.54,-10.77 -34.68,-22.73 -51.83,-36.29 58.21,-54.22 130.38,-94.1 212.92,-113.24 11.16,18.35 20.73,37.48 28.7,57.82 -53.82,8.37 -102.47,27.91 -145.13,56.22 -15.55,10.76 -30.7,22.33 -44.66,35.49 z m 214.91,42.26 c -48.64,7.58 -94.09,4.39 -137.16,-7.97 -13.55,-3.99 -26.71,-9.17 -39.87,-14.76 9.17,-7.97 19.14,-15.15 29.11,-21.93 39.47,-26.31 84.92,-43.86 135.56,-50.63 8.37,30.3 12.36,61.8 12.36,94.89 z m -572.15,80.54 c 14.35,17.55 29.5,33.89 45.45,49.84 -14.35,61.01 -18.74,124.8 -12.76,189.8 -20.33,-11.17 -39.87,-24.33 -57.81,-39.08 0.8,-1.99 1.19,-4.38 0.8,-6.78 -0.8,-66.98 7.57,-132.37 24.32,-193.78 z M 5611.6,1318.58 c 19.54,74.16 51.03,141.15 91.7,200.56 -20.73,64.19 -32.29,132.38 -34.29,202.95 -99.28,-110.05 -122,-270.34 -57.41,-403.51 z m 379.57,430.22 c 43.46,17.95 89.32,31.9 137.56,41.47 -36.28,21.93 -76.55,37.48 -119.22,45.85 -10.76,-30.3 -16.74,-59.01 -18.34,-87.32 z m -100.07,-51.03 c 19.14,11.56 39.07,22.72 59.41,32.69 0,35.89 5.98,72.57 18.73,110.85 -22.72,1.99 -45.85,1.59 -68.57,-0.8 -2.4,-5.98 -1.6,-3.19 -2.4,-7.18 -9.17,-45.85 -11.16,-91.3 -7.17,-135.56 z m -78.95,-58.22 c 13.56,11.57 27.51,22.73 41.87,33.1 -7.18,52.23 -6.38,106.06 3.59,160.68 -17.15,-3.98 -33.5,-9.17 -49.84,-15.55 -8.38,-60.6 -6.38,-120.41 4.38,-178.23 z m -37.48,-190.59 c 11.96,17.95 25.12,35.09 39.48,51.84 -9.18,20.33 -17.15,41.47 -23.93,63 -15.15,-16.35 -29.5,-33.5 -42.66,-51.44 7.97,-21.53 16.75,-43.06 27.11,-63.4 z m -92.9,-229.26 c 11.96,68.18 35.49,131.97 68.18,189.79 -10.76,20.33 -20.73,41.47 -29.5,63 -45.06,-72.17 -58.21,-123.21 -79.75,-203.35 11.97,-17.55 25.92,-34.29 41.07,-49.44 z m 320.97,428.63 c 67.38,33.09 141.94,54.22 220.09,59.8 -14.36,18.35 -30.7,34.69 -48.65,49.45 -0.79,0 -1.59,-0.4 -2.79,-0.4 -63.79,-9.57 -124,-26.72 -179.82,-51.44 1.6,-19.54 5.59,-38.67 11.17,-57.41 z m -89.31,-55.03 c 17.14,12.76 35.08,24.72 53.82,35.49 -6.38,19.54 -11.16,39.07 -13.55,58.61 -19.54,-9.97 -38.28,-21.13 -56.22,-33.09 3.98,-20.74 9.17,-41.07 15.95,-61.01 z m -33.1,-25.92 c -7.18,19.94 -13.55,40.67 -18.34,61.41 -13.55,-10.37 -26.71,-21.53 -39.47,-33.1 v 0 c 5.58,-21.53 12.76,-42.26 21.13,-62.6 11.56,11.97 23.92,23.13 36.68,34.29 z m 5.19,-116.42 c 10.36,11.96 21.53,23.52 33.49,34.69 -8.38,13.95 -15.55,28.31 -22.33,42.66 -12.36,-10.77 -24.32,-22.33 -35.49,-34.29 7.58,-14.75 15.55,-29.11 24.33,-43.06 z m -61.41,-86.13 c 10.37,18.74 22.33,36.29 34.69,53.43 -9.17,13.96 -17.54,28.31 -25.52,43.46 -13.55,-17.14 -25.91,-34.69 -37.47,-53.03 8.77,-15.15 18.34,-29.5 28.3,-43.86 z m -63.39,-205.34 c 5.18,58.61 19.93,114.43 43.06,165.47 -10.37,14.35 -20.73,29.11 -30.3,44.26 -26.72,-52.23 -45.85,-109.65 -55.03,-170.26 -0.39,-3.19 -1.59,-6.38 -3.58,-8.77 14.75,-11.16 29.9,-21.53 45.85,-30.7 z m 71.37,130.78 c -18.34,-46.65 -29.91,-96.89 -32.7,-149.52 20.34,-8.77 41.87,-15.55 64.2,-20.34 -1.2,42.67 4.38,82.94 15.94,120.82 -16.74,15.55 -32.29,31.9 -47.44,49.04 z m 51.03,93.7 c -11.96,-17.14 -23.12,-35.09 -32.69,-53.83 13.95,-17.14 28.71,-33.09 44.65,-48.64 7.98,18.34 17.95,36.28 29.51,53.03 -14.75,15.95 -28.71,32.3 -41.47,49.44 z m 57.42,67.78 c -11.17,-11.16 -21.93,-22.72 -32.3,-35.08 12.36,-17.15 25.92,-33.89 40.67,-49.45 9.57,11.57 20.33,23.13 31.9,34.3 -14.36,15.94 -27.91,32.69 -40.27,50.23 z m 96.49,116.83 c 71.37,36.28 152.3,56.22 238.03,54.63 -7.18,16.34 -15.55,31.89 -24.72,46.65 -83.73,-2.4 -163.08,-23.53 -234.05,-59.41 5.98,-13.96 12.76,-27.91 20.74,-41.87 z m -87.72,-56.22 c 16.75,13.16 34.69,25.52 53.03,36.68 -7.98,14.36 -14.75,28.31 -20.73,42.27 -18.74,-11.17 -36.29,-23.53 -53.43,-36.68 6.38,-14.36 13.55,-28.71 21.13,-42.27 z m 73.36,2.79 c -18.34,-11.16 -35.48,-23.52 -52.23,-37.08 12.36,-17.54 25.52,-34.29 39.87,-50.24 h 0.4 c 16.35,13.96 33.49,25.92 50.64,37.08 -13.96,15.55 -26.72,32.3 -38.68,50.24 z m 266.74,69.38 c -2.79,-1.2 -5.98,-1.2 -8.77,-1.2 -80.14,2.4 -156.3,-15.15 -222.88,-48.64 11.96,-18.34 25.12,-34.69 39.07,-49.84 19.54,9.57 39.48,17.14 59.81,23.12 46.25,13.56 94.89,17.55 146.33,10.37 -2.79,22.73 -7.18,45.06 -13.56,66.19 z m 283.89,-451.75 c 18.74,10.76 57.01,37.87 23.92,56.61 -13.96,7.98 -22.73,8.38 -27.91,5.19 -16.75,-11.57 -6.78,-48.25 3.99,-61.8 z m -372.4,35.08 c -14.36,-12.36 -61.01,-45.05 -97.69,-61 -151.91,-66.99 -331.33,-33.49 -449.35,84.53 -157.49,157.1 -157.49,415.07 0,572.57 157.1,157.09 415.46,157.09 572.55,0 73.37,-73.37 118.42,-174.65 118.42,-286.29 0,-40.67 -5.98,-80.14 -17.14,-117.22 0,-0.4 0,-0.8 0,-1.2 -0.4,-3.59 -1.6,-6.78 -3.19,-9.57 -9.57,-28.31 -21.93,-55.42 -37.08,-80.54 13.55,5.58 26.31,9.17 39.07,9.97 47.05,3.59 82.93,-25.52 97.29,-108.85 0.8,-31.9 2.39,-61.81 52.23,-64.6 18.74,-0.8 40.27,3.19 60.6,9.97 -3.58,5.58 -6.38,11.56 -8.77,17.54 -6.78,17.15 -8.37,35.09 -5.98,51.04 2.79,17.94 11.17,33.89 25.12,43.06 17.15,11.96 40.67,13.16 69.78,-3.19 38.27,-21.93 42.26,-51.03 25.91,-79.74 -5.98,-10.77 -15.15,-21.13 -27.11,-30.3 47.85,-0.4 106.06,-3.19 156.29,-19.14 54.63,-17.15 100.08,-49.45 114.83,-109.252 2.8,-10.367 -3.98,-21.136 -14.35,-23.929 -10.76,-2.789 -21.53,3.992 -24.32,14.761 -10.77,43.06 -45.45,67.38 -88.12,80.54 -45.85,14.75 -100.87,17.14 -146.32,17.14 -17.95,0 -33.1,3.99 -45.46,11.17 -29.9,-13.16 -63.79,-20.74 -94.09,-19.14 -51.84,2.79 -92.9,30.3 -90.11,99.28 -9.57,55.82 -29.51,75.76 -54.63,74.16 -54.62,-3.98 -104.46,-60.6 -128.38,-71.77 v 0" /><path
         id="path20"
         style="fill:#1a1919;fill-opacity:1;fill-rule:nonzero;stroke:none"
         d="m 4124.4,5042.66 c -22.73,23.13 -60.61,23.13 -83.73,0 -23.13,-22.72 -23.13,-60.6 0,-83.73 23.12,-23.12 61,-23.12 83.73,0 23.12,23.13 23.12,61.01 0,83.73 z m 28.31,28.31 c 38.67,-38.67 38.67,-101.67 0,-140.35 -38.68,-38.67 -101.67,-38.67 -140.35,0 -38.68,38.68 -38.68,101.68 0,140.35 38.68,38.68 101.67,38.68 140.35,0 z m -112.04,-385.56 c 23.12,-23.13 61,-23.13 83.73,0 23.12,23.12 23.12,61 0,84.13 -22.73,23.12 -60.61,23.12 -83.73,0 -23.13,-23.13 -23.13,-61.01 0,-84.13 z m -28.31,-28.31 c -38.68,38.67 -38.68,102.07 0,140.35 38.68,38.67 101.67,38.67 140.35,0 38.67,-38.28 38.67,-101.68 0,-140.35 -38.68,-38.28 -101.67,-38.28 -140.35,0 z m -263.55,28.31 c 22.73,-23.13 60.6,-23.13 83.73,0 23.13,23.12 23.13,61 0,84.13 -23.13,23.12 -61,23.12 -83.73,0 -23.12,-23.13 -23.12,-61.01 0,-84.13 z m -28.31,-28.31 c -38.67,38.67 -38.67,102.07 0,140.35 38.68,38.67 101.67,38.67 140.35,0 38.67,-38.28 38.67,-101.68 0,-140.35 -38.68,-38.28 -101.67,-38.28 -140.35,0 z m 112.04,385.56 c -23.13,23.13 -61,23.13 -83.73,0 -23.12,-22.72 -23.12,-60.6 0,-83.73 22.73,-23.12 60.6,-23.12 83.73,0 23.13,23.13 23.13,61.01 0,83.73 z m 28.31,28.31 c 38.67,-38.67 38.67,-101.67 0,-140.35 -38.68,-38.67 -101.67,-38.67 -140.35,0 -38.67,38.68 -38.67,101.68 0,140.35 38.68,38.68 101.67,38.68 140.35,0 z m 342.09,59.41 c -68.17,68.19 -162.27,110.45 -266.34,110.45 -104.06,0 -198.16,-42.26 -266.34,-110.45 -68.18,-68.18 -110.44,-162.28 -110.44,-266.34 0,-104.07 42.26,-198.17 110.44,-266.35 68.18,-68.18 162.28,-110.45 266.34,-110.45 104.07,0 198.17,42.27 266.34,110.45 68.18,68.18 110.45,162.28 110.45,266.35 0,104.06 -42.27,198.16 -110.45,266.34 z M 3936.6,5280.7 c 115.23,0 219.3,-46.65 294.65,-122.01 75.36,-75.36 122.01,-179.42 122.01,-294.65 0,-114.84 -46.65,-219.3 -122.01,-294.66 -75.35,-75.36 -179.42,-122.01 -294.65,-122.01 -115.22,0 -219.29,46.65 -294.64,122.01 -75.36,75.36 -122.01,179.82 -122.01,294.66 0,115.23 46.65,219.29 122.01,294.65 75.35,75.36 179.42,122.01 294.64,122.01 z m 378.78,-37.88 c -96.89,96.89 -230.85,156.7 -378.78,156.7 -147.92,0 -281.89,-59.81 -378.77,-156.7 -96.89,-96.89 -156.7,-230.86 -156.7,-378.78 0,-147.93 59.81,-281.5 156.7,-378.39 96.88,-96.89 230.85,-157.1 378.77,-157.1 147.93,0 281.89,60.21 378.78,157.1 96.89,96.89 156.7,230.46 156.7,378.39 0,147.92 -59.81,281.89 -156.7,378.78 z m -378.78,196.57 c 158.69,0 302.63,-64.19 406.69,-168.26 104.07,-104.46 168.66,-248 168.66,-407.09 0,-158.7 -64.59,-302.64 -168.66,-406.7 -104.06,-104.07 -248,-168.66 -406.69,-168.66 -158.68,0 -302.62,64.59 -406.68,168.66 -104.07,104.06 -168.66,248 -168.66,406.7 0,159.09 64.59,302.63 168.66,407.09 104.06,104.07 248,168.26 406.68,168.26 v 0" /><path
         id="path22"
         style="fill:#1a1919;fill-opacity:1;fill-rule:nonzero;stroke:none"
         d="m 6096.04,3655.1 c -25.92,7.18 -62.2,11.57 -102.47,11.57 -40.67,0 -76.96,-4.39 -102.87,-11.57 -18.34,-4.78 -29.9,-8.37 -29.9,-9.57 0,-1.19 11.56,-4.78 29.9,-9.96 25.91,-6.78 62.2,-11.17 102.87,-11.17 40.27,0 76.55,4.39 102.47,11.17 18.34,5.18 29.9,8.77 29.9,9.96 0,1.2 -11.56,4.79 -29.9,9.57 z m 180.61,-145.53 v 21.93 c -33.49,-7.18 -67.78,-12.36 -101.67,-16.35 -115.63,-13.55 -247.6,-13.55 -363.23,0 -30.7,3.59 -59.8,7.98 -89.71,13.96 -3.98,0.79 -7.97,1.59 -11.96,2.39 v -21.93 c 13.16,-5.58 29.11,-10.77 47.45,-15.55 131.57,-35.49 340.5,-35.49 471.68,0 18.34,4.78 34.29,9.97 47.44,15.55 z m 0,-76.16 v 33.89 c -11.16,-4.38 -23.52,-8.37 -37.08,-11.96 -138.35,-37.08 -354.05,-37.08 -492.41,0 -13.16,3.59 -25.52,7.58 -37.08,11.96 v -33.89 c 13.16,-5.58 29.11,-10.76 47.45,-15.55 131.57,-35.48 340.5,-35.48 471.68,0 18.34,4.79 34.29,9.97 47.44,15.55 z m 0,-76.15 v 33.89 c -11.16,-4.39 -23.52,-8.37 -37.08,-11.96 -138.35,-37.08 -354.05,-37.08 -492.41,0 -13.16,3.59 -25.52,7.57 -37.08,11.96 v -33.89 c 13.16,-5.59 29.11,-10.77 47.45,-15.55 131.57,-35.49 340.5,-35.49 471.68,0 18.34,4.78 34.29,9.96 47.44,15.55 z m 0,-76.16 v 33.89 c -11.16,-4.38 -23.52,-8.37 -37.08,-11.96 -138.35,-37.08 -354.05,-37.08 -492.41,0 -13.16,3.59 -25.52,7.58 -37.08,11.96 v -33.89 c 13.16,-5.58 29.11,-10.76 47.45,-15.55 131.57,-35.49 340.5,-35.49 471.68,0 18.34,4.79 34.29,9.97 47.44,15.55 z m 0,-76.16 v 33.9 c -11.16,-4.39 -23.52,-8.38 -37.08,-11.97 -138.35,-37.08 -354.05,-37.08 -492.41,0 -13.16,3.59 -25.52,7.58 -37.08,11.97 v -33.9 c 13.16,-5.18 29.11,-10.76 47.45,-15.55 131.57,-35.48 340.5,-35.48 471.68,0 18.34,4.79 34.29,10.37 47.44,15.55 z m 0,-76.15 v 33.89 c -11.16,-3.99 -23.52,-7.98 -37.08,-11.56 -138.35,-37.48 -354.05,-37.48 -492.41,0 -13.16,3.58 -25.52,7.57 -37.08,11.56 v -33.89 c 13.16,-5.19 29.11,-10.37 47.45,-15.55 131.57,-35.09 340.5,-35.09 471.68,0 18.34,5.18 34.29,10.36 47.44,15.55 z m 0,-76.16 v 33.89 c -11.16,-3.98 -23.52,-7.97 -37.08,-11.56 -138.35,-37.48 -354.05,-37.48 -492.41,0 -13.16,3.59 -25.52,7.58 -37.08,11.56 v -33.89 c 13.16,-5.18 29.11,-10.36 47.45,-15.55 131.57,-35.09 340.5,-35.09 471.68,0 18.34,5.19 34.29,10.37 47.44,15.55 z m 0,-76.15 v 33.89 c -11.16,-3.99 -23.52,-7.98 -37.08,-11.57 -138.35,-37.48 -354.05,-37.48 -492.41,0 -13.16,3.59 -25.52,7.58 -37.08,11.57 v -33.89 c 13.16,-5.19 29.11,-10.37 47.45,-15.56 131.57,-35.08 340.5,-35.08 471.68,0 18.34,5.19 34.29,10.37 47.44,15.56 z m 0,-76.16 v 34.29 c -11.16,-4.39 -23.52,-8.37 -37.08,-11.96 -138.35,-37.08 -354.05,-37.08 -492.41,0 -13.16,3.59 -25.52,7.57 -37.08,11.96 v -34.29 c 13.16,-5.18 29.11,-10.37 47.45,-15.55 131.57,-35.09 340.5,-35.09 471.68,0 18.34,5.18 34.29,10.37 47.44,15.55 z m 0,-76.16 v 34.29 c -11.16,-4.38 -23.52,-8.37 -37.08,-11.96 -138.35,-37.08 -354.05,-37.08 -492.41,0 -13.16,3.59 -25.52,7.58 -37.08,11.96 v -34.29 c 13.16,-5.18 29.11,-10.36 47.45,-15.55 131.57,-35.09 340.5,-35.09 471.68,0 18.34,5.19 34.29,10.37 47.44,15.55 z m 0,-76.15 v 34.29 c -11.16,-4.39 -23.52,-8.38 -37.08,-11.96 -138.35,-37.09 -354.05,-37.09 -492.41,0 -13.16,3.58 -25.52,7.57 -37.08,11.96 v -34.29 c 13.16,-5.19 29.11,-10.37 47.45,-15.15 131.57,-35.49 340.5,-35.49 471.68,0 18.34,4.78 34.29,9.96 47.44,15.15 z m 0,-70.98 v 29.11 c -11.16,-4.39 -23.52,-8.37 -37.08,-11.96 -138.35,-37.08 -354.05,-37.08 -492.41,0 -13.16,3.59 -25.52,7.57 -37.08,11.96 l 0.4,-30.3 c 2.79,-13.16 32.7,-27.12 79.34,-38.68 115.23,-29.5 291.86,-29.5 407.09,0 46.65,11.56 76.55,25.52 79.74,38.68 z m -460.51,877.6 c 112.44,-13.16 242.02,-13.16 354.46,0 27.91,3.18 62.99,7.97 92.1,14.75 9.97,1.99 19.93,4.38 29.1,6.38 l 0.8,0.4 c 7.98,1.99 15.95,3.98 23.53,6.38 0.39,0 1.19,0 1.59,0.39 35.49,9.97 63.4,21.93 82.14,35.09 14.35,9.57 22.32,19.14 22.32,27.51 0,23.13 -44.65,46.66 -116.82,65.79 -79.34,21.54 -189.79,34.69 -311.79,34.69 -122.41,0 -232.45,-13.15 -312.2,-34.69 -72.16,-19.13 -116.42,-42.66 -116.42,-65.79 0,-8.37 7.58,-17.94 21.93,-27.51 18.74,-13.16 47.05,-24.72 82.13,-35.09 0.8,-0.39 1.2,-0.39 1.6,-0.39 46.25,-13.56 98.08,-22.33 145.53,-27.91 z m 577.74,-900.72 c -18.74,11.56 -45.06,22.33 -77.36,31.5 v -8.38 c 0,-1.59 -0.39,-6.77 -0.79,-8.37 -5.98,-29.9 -46.65,-54.23 -108.85,-70.17 -122.01,-31.11 -305.02,-31.11 -427.02,0 -62.2,15.94 -102.87,40.27 -108.85,70.17 0,1.6 -0.8,6.78 -0.8,8.37 v 8.38 c -31.9,-9.17 -58.21,-19.94 -77.35,-31.5 -17.94,-10.77 -27.91,-21.53 -27.91,-31.5 0,-23.13 44.26,-46.65 116.42,-65.79 79.75,-21.53 189.79,-34.69 312.2,-34.69 122,0 232.45,13.16 311.79,34.69 72.17,19.14 116.82,42.66 116.82,65.79 0,9.97 -10.36,20.73 -28.3,31.5 z m -75.76,72.57 c 39.87,-11.17 72.56,-23.93 96.49,-38.28 30.3,-18.74 47.45,-40.67 47.45,-65.79 0,-43.46 -56.22,-80.14 -146.33,-104.47 -82.94,-21.93 -196.97,-35.88 -322.16,-35.88 -125.6,0 -239.63,13.95 -322.56,35.88 -90.11,24.33 -145.93,61.01 -145.93,104.47 0,25.12 16.74,47.05 47.05,65.79 23.92,14.35 56.61,27.11 96.49,38.28 -23.13,15.15 -35.89,32.29 -35.89,51.83 0,12.36 4.79,24.32 14.35,34.69 1.2,1.19 2.4,2.39 3.59,3.59 -11.56,11.56 -17.94,24.32 -17.94,37.88 0,12.36 4.79,24.32 14.35,34.68 1.2,1.2 2.4,2.4 3.59,3.59 -11.56,11.57 -17.94,24.33 -17.94,37.88 0,12.36 4.79,23.93 14.35,34.69 1.2,1.2 2.4,2.39 3.59,3.59 -11.56,11.56 -17.94,24.32 -17.94,37.88 0,12.36 4.79,23.92 14.35,34.69 1.2,1.19 2.4,2.39 3.59,3.59 -11.56,11.56 -17.94,24.32 -17.94,37.48 0,12.76 4.79,24.32 14.35,35.08 1.2,1.2 2.4,2.4 3.59,3.59 -11.56,11.57 -17.94,24.32 -17.94,37.48 0,12.76 4.79,24.32 14.35,35.09 1.2,1.2 2.4,2.39 3.59,3.59 -11.56,11.56 -17.94,23.92 -17.94,37.48 0,12.76 4.79,24.32 14.35,35.09 1.2,1.19 2.4,2.39 3.59,3.58 -11.56,11.57 -17.94,23.93 -17.94,37.48 0,12.76 4.79,24.33 14.35,35.09 1.2,1.2 2.4,2.39 3.59,3.59 -11.56,11.56 -17.94,23.92 -17.94,37.48 0,12.76 4.79,24.32 14.35,35.09 1.2,1.2 2.4,2.39 3.59,3.59 -11.56,11.56 -17.94,23.92 -17.94,37.48 0,12.76 4.79,24.32 14.35,35.09 1.2,1.19 2.4,2.39 3.59,3.58 -11.56,11.57 -17.94,23.93 -17.94,37.48 0,4.39 0.4,8.38 1.6,12.76 -28.71,9.57 -52.24,20.74 -69.78,32.7 -25.52,17.54 -39.47,37.88 -39.47,60.6 0,43.47 55.82,80.15 145.93,104.47 82.93,22.33 196.96,35.89 322.56,35.89 125.19,0 239.22,-13.56 322.16,-35.89 90.11,-24.32 146.33,-61 146.33,-104.47 0,-22.72 -14.36,-43.06 -39.88,-60.6 -17.54,-11.96 -41.06,-23.13 -69.77,-32.7 1.19,-4.38 1.99,-8.37 1.99,-12.76 0,-13.55 -6.38,-25.91 -18.34,-37.48 1.2,-1.19 2.39,-2.39 3.59,-3.58 9.57,-10.77 14.75,-22.33 14.75,-35.09 0,-13.56 -6.38,-25.92 -18.34,-37.48 1.2,-1.2 2.39,-2.39 3.59,-3.59 9.57,-10.77 14.75,-22.33 14.75,-35.09 0,-13.56 -6.38,-25.92 -18.34,-37.48 1.2,-1.2 2.39,-2.39 3.59,-3.59 9.57,-10.76 14.75,-22.33 14.75,-35.09 0,-13.55 -6.38,-25.91 -18.34,-37.48 1.2,-1.19 2.39,-2.39 3.59,-3.58 9.57,-10.77 14.75,-22.33 14.75,-35.09 0,-13.56 -6.38,-25.92 -18.34,-37.48 1.2,-1.2 2.39,-2.39 3.59,-3.59 9.57,-10.77 14.75,-22.33 14.75,-35.09 0,-13.16 -6.38,-25.91 -18.34,-37.48 1.2,-1.19 2.39,-2.39 3.59,-3.59 9.57,-10.76 14.75,-22.32 14.75,-35.08 0,-13.16 -6.38,-25.92 -18.34,-37.48 1.2,-1.2 2.39,-2.4 3.59,-3.59 9.57,-10.77 14.75,-22.33 14.75,-34.69 0,-13.56 -6.38,-26.32 -18.34,-37.88 1.2,-1.2 2.39,-2.39 3.59,-3.59 9.57,-10.76 14.75,-22.33 14.75,-34.69 0,-13.55 -6.38,-26.31 -18.34,-37.88 1.2,-1.19 2.39,-2.39 3.59,-3.59 8.77,-9.96 13.95,-21.13 14.35,-32.69 70.97,1.99 114.43,-53.03 160.69,-111.64 69.77,-87.72 146.72,-185.01 352.06,-47.05 9.17,5.98 21.53,3.59 27.51,-5.58 5.98,-9.18 3.59,-21.54 -5.58,-27.52 -235.64,-158.29 -324.55,-45.85 -405.09,55.82 -43.07,54.23 -83.34,105.27 -145.54,94.1 l 1.6,-1.59 c 9.57,-10.37 14.75,-22.33 14.75,-34.69 0,-19.54 -13.16,-37.08 -36.28,-51.83 z m -324.55,980.06 c 43.46,0 83.73,-5.18 112.83,-12.76 36.68,-9.97 59.41,-26.71 59.41,-48.25 0,-21.53 -22.73,-38.27 -59.41,-48.24 -29.1,-7.98 -69.37,-12.76 -112.83,-12.76 -43.86,0 -84.13,4.78 -113.24,12.76 -36.68,9.97 -59.41,26.71 -59.41,48.24 0,21.54 22.73,38.28 59.41,48.25 29.11,7.58 69.38,12.76 113.24,12.76 v 0" /><path
         id="path24"
         style="fill:#1a1919;fill-opacity:1;fill-rule:nonzero;stroke:none"
         d="m 2443.02,2897.53 v 0 m 12.36,153.91 c -5.58,36.28 -18.73,61 -37.08,66.18 v 0 c -18.74,4.79 -42.26,-10.36 -65.38,-39.07 -26.72,-32.3 -50.64,-81.34 -66.19,-138.76 v -0.4 c -15.15,-57.41 -19.14,-112.04 -12.36,-153.5 5.98,-36.29 18.74,-61.41 37.08,-66.19 18.74,-5.19 42.26,9.97 65.39,38.67 26.71,32.7 50.63,81.74 66.18,139.16 v 0 c 15.55,57.81 19.14,112.04 12.36,153.91 z m -454.13,0 c -5.58,36.28 -18.74,61 -37.08,66.18 -18.74,4.79 -42.26,-10.36 -65.39,-39.07 -26.71,-32.3 -50.64,-81.34 -66.19,-138.76 v -0.4 c -15.55,-57.41 -19.13,-112.04 -12.36,-153.5 5.59,-36.29 18.74,-61.41 37.08,-66.19 18.74,-5.19 42.27,9.97 65.39,38.67 26.72,32.7 50.64,81.74 66.19,139.16 v 0 c 15.55,57.81 19.14,112.04 12.36,153.91 z m -370.8,66.18 c -18.74,-5.18 -31.5,-29.9 -37.48,-66.18 -6.38,-41.87 -2.79,-96.1 12.76,-153.91 v 0 c 15.15,-57.42 39.47,-106.46 65.78,-139.16 23.13,-28.7 47.05,-43.86 65.39,-38.67 18.74,4.78 31.5,29.9 37.08,66.19 6.78,41.46 3.19,96.09 -12.36,153.5 v 0.4 c -15.15,57.42 -39.47,106.46 -65.78,138.76 -23.13,28.71 -47.05,43.86 -65.39,39.07 z m -454.14,0 c -18.74,-5.18 -31.5,-29.9 -37.48,-66.18 -6.38,-41.87 -2.79,-96.1 12.36,-153.91 h 0.4 c 15.15,-57.42 39.47,-106.46 65.79,-139.16 23.13,-28.7 46.65,-43.86 65.39,-38.67 18.74,4.78 31.5,29.9 37.08,66.19 6.78,41.46 3.19,96.09 -12.36,153.5 v 0.4 c -15.55,57.42 -39.47,106.46 -65.79,138.76 -23.52,28.71 -47.05,43.86 -65.39,39.07 z m 370.81,-66.18 c -5.98,36.28 -18.74,61 -37.08,66.18 -18.74,4.79 -42.27,-10.36 -65.39,-39.07 -26.72,-32.3 -50.64,-81.34 -66.19,-138.76 v -0.4 c -15.55,-57.41 -19.14,-112.04 -12.36,-153.5 5.58,-36.29 18.74,-61.41 37.08,-66.19 18.74,-5.19 42.26,9.97 65.39,38.67 26.71,32.7 50.64,81.74 66.19,139.16 v 0 c 15.15,57.81 19.13,112.04 12.36,153.91 z m 537.46,496.81 c -18.74,-4.79 -31.5,-29.91 -37.08,-66.19 -6.78,-41.47 -3.19,-96.1 12.36,-153.51 15.15,-57.42 39.47,-106.46 65.79,-139.16 23.12,-28.7 47.05,-43.86 65.39,-38.67 18.74,4.78 31.5,29.9 37.48,66.19 6.38,41.46 2.79,95.69 -12.76,153.51 v 0 c -15.15,57.41 -39.47,106.45 -65.79,139.15 -23.12,28.71 -47.05,43.86 -65.39,38.68 z m 370.8,-66.19 c -5.58,36.28 -18.73,61.4 -37.08,66.19 -18.74,5.18 -42.26,-9.97 -65.38,-38.68 -26.72,-32.7 -50.64,-81.74 -66.19,-139.15 v 0 c -15.15,-57.82 -19.14,-112.05 -12.36,-153.51 5.98,-36.29 18.74,-61.41 37.08,-66.19 18.74,-5.19 42.26,9.97 65.39,38.67 26.71,32.7 50.63,81.74 66.18,139.16 15.55,57.41 19.14,112.04 12.36,153.51 z M 2327.4,3110.45 c -8.77,-1.2 -17.55,-0.8 -25.92,1.59 -21.53,5.58 -38.27,21.53 -50.24,45.06 -11.56,-23.53 -28.31,-39.48 -49.84,-45.06 -8.77,-2.39 -17.54,-2.79 -26.31,-1.59 1.99,-2 3.99,-4.39 5.58,-6.78 28.31,-34.69 53.83,-84.93 70.57,-143.14 17.15,58.21 42.67,108.45 70.97,143.14 1.6,2.39 3.59,4.78 5.19,6.78 z m -326.15,371.61 c -5.58,36.28 -18.74,61.4 -37.08,66.19 -18.74,5.18 -42.26,-9.97 -65.39,-38.68 -26.71,-32.7 -50.64,-81.74 -66.19,-139.15 v 0 c -15.55,-57.82 -19.13,-112.05 -12.36,-153.51 5.59,-36.29 18.74,-61.41 37.08,-66.19 18.74,-5.19 42.27,9.97 65.39,38.67 26.72,32.7 50.64,81.74 66.19,139.16 15.55,57.41 19.14,112.04 12.36,153.51 z m 23.13,-174.64 c -17.15,-58.22 -42.67,-108.46 -70.58,-143.15 -1.99,-2.39 -3.98,-4.38 -5.58,-6.77 8.77,1.19 17.54,0.79 25.92,-1.6 21.53,-5.58 38.27,-21.53 50.24,-45.05 11.56,23.52 28.3,39.47 49.83,45.05 8.78,2.39 17.55,2.79 26.32,1.6 -1.99,2.39 -3.59,4.38 -5.58,6.77 -28.31,34.69 -53.83,84.93 -70.57,143.15 z M 1797.11,3157.1 c -11.56,-23.53 -28.31,-39.48 -49.84,-45.06 -8.77,-2.39 -17.54,-2.79 -26.32,-1.59 2,-2 3.59,-4.39 5.59,-6.78 28.31,-34.69 53.82,-84.93 70.57,-143.14 17.14,58.21 42.66,108.45 70.57,143.14 1.99,2.39 3.99,4.78 5.58,6.78 -8.77,-1.2 -17.54,-0.8 -25.91,1.59 -21.53,5.58 -38.28,21.53 -50.24,45.06 z m -166.66,391.15 c -18.74,-4.79 -31.5,-29.91 -37.48,-66.19 -6.38,-41.47 -2.79,-96.1 12.76,-153.51 15.15,-57.42 39.47,-106.46 65.78,-139.16 23.13,-28.7 47.05,-43.86 65.39,-38.67 18.74,4.78 31.5,29.9 37.08,66.19 6.78,41.46 3.19,95.69 -12.36,153.51 v 0 c -15.15,57.41 -39.47,106.45 -65.78,139.15 -23.13,28.71 -47.05,43.86 -65.39,38.68 z m -454.14,0 c -18.74,-4.79 -31.5,-29.91 -37.48,-66.19 -6.38,-41.47 -2.79,-96.1 12.36,-153.51 15.55,-57.42 39.87,-106.46 66.19,-139.16 23.13,-28.7 46.65,-43.86 65.39,-38.67 18.74,4.78 31.5,29.9 37.08,66.19 6.78,41.46 3.19,95.69 -12.36,153.51 v 0 c -15.55,57.41 -39.47,106.45 -65.79,139.15 -23.52,28.71 -47.05,43.86 -65.39,38.68 z m 370.81,-66.19 c -5.98,36.28 -18.74,61.4 -37.08,66.19 -18.74,5.18 -42.27,-9.97 -65.39,-38.68 -26.72,-32.7 -50.64,-81.74 -66.19,-139.15 v 0 c -15.55,-57.82 -19.14,-112.05 -12.36,-153.51 5.58,-36.29 18.74,-61.41 37.08,-66.19 18.74,-5.19 42.26,9.97 65.39,38.67 26.71,32.7 50.64,81.74 66.19,139.16 15.15,57.41 19.13,112.04 12.36,153.51 z m -127.99,-371.61 c -8.77,-1.2 -17.54,-0.8 -26.32,1.59 -21.13,5.58 -37.87,21.53 -49.84,45.06 -11.56,-23.53 -28.3,-39.48 -49.83,-45.06 -8.78,-2.39 -17.55,-2.79 -26.32,-1.59 1.99,-2 3.59,-4.39 5.58,-6.78 28.31,-34.69 53.83,-84.93 70.57,-143.14 17.15,58.21 42.67,108.45 70.58,143.14 1.99,2.39 3.98,4.78 5.58,6.78 z m 151.11,196.97 c -17.14,-58.22 -42.66,-108.46 -70.97,-143.15 -1.59,-2.39 -3.59,-4.38 -5.18,-6.77 8.77,1.19 17.54,0.79 25.91,-1.6 21.53,-5.58 38.28,-21.53 50.24,-45.05 11.56,23.52 28.31,39.47 49.84,45.05 8.77,2.39 17.54,2.79 26.32,1.6 -2,2.39 -3.99,4.38 -5.59,6.77 -28.31,34.69 -53.82,84.93 -70.57,143.15 z m -50.24,279.5 c 21.53,-5.98 38.28,-21.93 50.24,-45.05 11.56,23.12 28.31,39.07 49.84,45.05 35.09,9.17 73.36,-11.16 106.46,-52.23 28.31,-34.69 53.82,-84.93 70.57,-143.14 17.14,58.21 42.66,108.45 70.57,143.14 33.49,41.07 71.37,61.4 106.46,52.23 21.53,-5.98 38.27,-21.93 50.24,-45.05 11.56,23.12 28.3,39.07 49.83,45.05 35.09,9.17 73.37,-11.16 106.46,-52.23 28.31,-34.69 53.83,-84.93 70.57,-143.14 17.15,58.21 42.67,108.45 70.58,143.14 33.49,41.07 71.37,61.4 106.85,52.23 35.09,-9.57 57.81,-46.65 66.19,-98.48 7.17,-47.05 3.59,-107.26 -13.56,-170.26 -16.74,-63 -43.46,-117.22 -73.36,-153.91 -2,-2.39 -3.99,-4.38 -5.58,-6.77 8.37,1.19 16.74,0.79 24.72,-1.2 1.19,0 1.99,-0.4 2.79,-0.8 34.29,-9.97 56.61,-46.65 64.99,-98.08 7.17,-46.65 3.59,-107.26 -13.56,-169.86 v -0.4 c -16.74,-62.6 -43.46,-116.82 -73.36,-153.91 -33.49,-40.67 -71.37,-61.4 -106.46,-52.23 -21.53,5.98 -38.27,21.93 -50.24,45.06 -11.56,-23.13 -28.31,-39.08 -49.84,-45.06 -35.08,-9.17 -73.36,11.56 -106.45,52.23 -28.31,34.69 -53.83,84.93 -70.57,143.15 -17.15,-58.22 -42.67,-108.46 -70.58,-143.15 -33.49,-40.67 -71.37,-61.4 -106.45,-52.23 -21.53,5.98 -38.28,21.93 -50.24,45.06 -11.56,-23.13 -28.31,-39.08 -49.84,-45.06 -35.09,-9.17 -73.36,11.56 -106.46,52.23 -28.31,34.69 -53.82,84.93 -70.57,143.15 -17.14,-58.22 -42.66,-108.46 -70.97,-143.15 -33.09,-40.67 -70.97,-61.4 -106.46,-52.23 -21.13,5.98 -37.87,21.93 -49.84,45.06 -11.56,-23.13 -28.3,-39.08 -49.83,-45.06 -35.09,-9.17 -73.37,11.56 -106.46,52.23 -29.9,36.69 -56.62,90.51 -73.36,153.11 -0.4,0.4 -0.4,1.2 -0.8,2 -16.35,62.6 -20.34,122.41 -12.76,169.06 8.37,52.23 31.1,88.91 66.19,98.48 8.37,2.39 17.14,2.79 26.31,1.6 -1.99,2.39 -3.99,4.38 -5.58,6.77 -29.9,36.69 -57.02,90.91 -73.76,153.91 -16.75,63 -20.74,123.21 -13.16,170.26 8.37,51.83 31.1,88.91 66.19,98.48 35.08,9.17 73.36,-11.16 106.45,-52.23 28.31,-34.69 53.83,-84.93 70.57,-143.14 17.15,58.21 42.67,108.45 70.58,143.14 33.49,41.07 71.37,61.4 106.45,52.23 z m 564.58,-469.3 c -18.74,-5.18 -31.5,-29.9 -37.08,-66.18 -6.78,-41.87 -3.19,-96.1 12.36,-153.91 v 0 c 15.15,-57.42 39.47,-106.46 65.79,-139.16 23.12,-28.7 47.05,-43.86 65.39,-38.67 18.74,4.78 31.5,29.9 37.48,66.19 6.38,41.46 2.79,96.09 -12.76,153.5 v 0.4 c -15.15,57.42 -39.47,106.46 -65.79,138.76 -23.12,28.71 -47.05,43.86 -65.39,39.07 v 0" /><path
         id="path26"
         style="fill:#1a1919;fill-opacity:1;fill-rule:nonzero;stroke:none"
         d="m 4018.74,3449.36 c -12.36,-14.75 -23.52,-28.31 -33.89,-40.67 12.36,-2.79 24.32,-5.98 36.28,-9.57 18.74,-6.38 37.08,-13.95 55.02,-23.12 27.12,21.53 56.62,35.08 84.13,39.87 33.89,6.38 64.99,-0.4 86.13,-21.53 21.13,-21.53 27.9,-52.23 21.92,-86.13 -5.18,-27.51 -18.74,-57.01 -39.87,-84.53 9.17,-17.54 16.75,-35.88 22.73,-54.62 3.99,-12.36 7.18,-24.32 9.57,-36.68 l 3.59,2.79 c 45.05,37.48 98.08,75.76 138.35,117.22 18.74,21.13 32.3,40.67 42.26,66.99 9.97,24.72 14.76,51.04 14.76,76.95 v 0 c 0,25.12 -4.39,49.84 -13.16,73.77 -8.37,22.72 -20.73,44.65 -37.48,63.79 v 0 l -0.4,0.4 v 0 l -0.8,0.8 -0.79,0.8 -1.6,1.99 h 0.4 -0.4 l -0.8,0.8 c 0,0.4 -0.39,0.4 -0.79,0.79 l -2,2.4 v 0 l -1.59,1.99 h -0.4 l -0.4,0.4 -0.8,0.8 c 0,0 -0.4,0.39 -0.79,0.79 -29.11,29.51 -64.99,48.25 -102.87,56.62 -38.68,8.77 -79.74,6.38 -117.62,-7.17 -13.16,-4.79 -25.92,-10.77 -38.28,-18.35 -45.85,-27.91 -87.72,-88.51 -120.41,-127.59 z m -295.05,-716.5 c 0,35.48 -13.55,70.97 -40.67,98.08 -27.11,26.72 -62.59,40.27 -98.08,40.27 -35.49,0 -70.97,-13.55 -98.08,-40.27 -27.12,-27.11 -40.67,-62.6 -40.67,-98.08 0,-35.49 13.55,-70.98 40.67,-98.09 27.11,-27.11 62.59,-40.67 98.08,-40.67 35.49,0 70.97,13.56 98.08,40.67 27.12,27.11 40.67,62.6 40.67,98.09 z m -12.36,125.99 c 34.69,-34.69 51.83,-80.54 51.83,-125.99 h 0.4 c 0,-7.58 -0.4,-15.16 -1.59,-22.33 115.23,106.46 252.78,219.69 384.36,327.35 21.53,17.54 42.26,34.69 79.34,65.39 -2.39,17.94 -6.78,35.88 -12.36,53.43 -6.38,20.33 -15.15,40.67 -26.31,59.81 -4.39,7.57 -3.19,16.74 2.39,22.72 v 0 c 21.53,24.73 35.48,51.84 39.87,75.76 3.59,21.13 0.4,39.48 -11.16,51.04 -11.17,11.56 -29.91,14.75 -50.64,10.76 -24.32,-4.38 -51.43,-17.94 -75.76,-39.47 -7.17,-5.98 -17.14,-6.78 -24.32,-1.59 -18.74,10.36 -38.27,19.13 -58.21,25.51 -20.73,6.78 -42.26,11.17 -63.79,13.56 -11.17,1.2 -19.14,10.77 -17.95,21.93 0.8,4.39 2.4,7.98 5.19,11.16 21.13,25.52 40.27,48.65 55.42,66.99 40.27,48.25 75.75,102.87 130.38,135.97 14.75,9.17 29.9,16.34 45.85,21.93 44.66,15.94 93.3,18.74 139.55,8.37 45.05,-9.97 87.72,-32.3 122.4,-66.99 0.4,-0.4 0.8,-0.79 1.2,-1.19 l 0.8,-0.8 v -0.4 l 0.4,-0.4 v 0 l 1.99,-1.99 0.4,-0.4 1.99,-2.39 c 0.4,-0.4 0.8,-0.8 1.2,-1.2 l 0.4,-0.4 0.79,-0.8 v 0 0 l 1.6,-1.59 c 0.4,-0.4 0.4,-0.8 0.8,-1.2 l 0.79,-0.79 v 0 l 0.4,-0.8 h 0.4 v 0 l 2,-2.79 c 19.13,-22.73 33.49,-47.45 43.06,-73.37 10.36,-28.31 15.15,-57.81 15.15,-87.32 v 0 c 0,-31.1 -5.98,-62.2 -17.55,-91.7 -10.76,-27.52 -26.71,-53.43 -47.84,-76.56 -6.38,-9.57 -27.11,-26.32 -37.48,-33.89 v 0 l -0.4,-0.4 c 0.4,-0.4 -74.96,-63.8 -96.89,-81.34 -13.55,-10.77 -26.71,-21.93 -39.87,-33.09 -15.15,-12.36 -51.43,-42.27 -88.11,-72.17 -161.88,-132.78 -332.93,-273.53 -460.12,-400.72 -35.09,-34.69 -80.54,-52.23 -126.39,-52.23 -45.06,0 -89.71,16.74 -124.4,50.63 -41.47,24.73 -69.38,63.4 -80.94,106.86 -11.56,44.26 -6.78,92.51 17.94,135.57 91.71,158.69 183.81,362.04 271.13,555.02 40.27,88.52 79.34,175.04 116.42,252.79 2.4,6.78 5.19,13.56 8.38,20.34 3.19,7.18 6.77,13.95 10.76,21.13 v 0 0 l 2,2.79 v 0.4 0 l 1.19,1.99 0.4,0.8 c 4.78,9.97 16.75,13.96 26.71,9.17 1.6,-0.79 3.19,-1.59 4.79,-3.19 v 0 0 c 6.78,-6.38 8.77,-16.34 3.99,-24.72 -0.4,-0.4 -0.8,-0.8 -0.8,-1.19 l -0.4,-0.4 -1.99,-3.19 v 0 l -1.6,-2.4 v 0 c -3.19,-5.98 -5.98,-11.56 -8.77,-17.54 -2.79,-5.58 -5.18,-11.56 -7.18,-17.14 -0.4,-1.2 -0.79,-2.4 -1.19,-3.59 -37.88,-79.35 -76.56,-164.68 -116.43,-252.4 -87.32,-193.38 -179.82,-397.12 -273.12,-558.61 -4.38,-7.57 -7.97,-15.55 -10.76,-23.12 8.77,19.93 21.53,38.27 37.48,54.62 35.08,35.09 80.54,52.23 126.39,52.23 45.85,0 91.3,-17.14 126.39,-52.23 v 0" /><path
         id="path28"
         style="fill:#1a1919;fill-opacity:1;fill-rule:nonzero;stroke:none"
         d="m 6507.51,5035.49 v -94.5 c 0,-11.17 -9.17,-19.94 -19.94,-19.94 -11.16,0 -19.93,8.77 -19.93,19.94 v 56.22 c -5.19,-8.37 -7.58,-17.15 -7.58,-25.92 v 0 -185.4 c 4.79,4.38 9.97,8.77 15.95,12.75 32.3,23.93 78.55,44.26 134.37,60.21 0.39,0 0.79,0.4 1.19,0.4 39.47,10.77 82.94,19.14 128.79,24.72 39.87,4.79 81.33,7.58 123.6,8.37 v 224.49 c -33.1,-0.8 -64.99,-2.79 -95.69,-5.98 v -93.7 c 0,-11.17 -8.78,-19.94 -19.94,-19.94 -11.16,0 -19.94,8.77 -19.94,19.94 v 88.91 c -11.96,-1.99 -23.52,-3.99 -34.68,-5.98 v -96.09 c 0,-10.77 -9.17,-19.94 -19.94,-19.94 -11.16,0 -19.93,9.17 -19.93,19.94 v 87.72 c -11.57,-2.4 -22.33,-5.19 -33.1,-8.38 v -92.9 c 0,-11.16 -8.77,-19.94 -19.93,-19.94 -10.77,0 -19.94,8.78 -19.94,19.94 v 80.14 l -4.38,-1.59 c -5.99,-2.39 -12.36,-4.79 -17.95,-7.18 v -95.69 c 0,-11.17 -9.17,-19.94 -19.93,-19.94 -11.17,0 -19.94,8.77 -19.94,19.94 v 76.16 c -3.98,-2.4 -7.57,-4.39 -11.16,-6.78 z m -466.5,-37.08 c -13.15,4.78 -31.1,7.57 -51.83,7.57 -20.33,0 -38.67,-2.79 -51.43,-7.57 -6.78,-2.8 -11.17,-2 -11.17,-2.8 0,-0.79 4.39,-0.39 11.17,-2.79 12.76,-4.78 31.1,-7.57 51.43,-7.57 20.73,0 38.68,2.79 51.83,7.57 6.78,2.4 10.77,2 10.77,2.79 0,0.8 -3.99,0 -10.77,2.8 z m -51.83,47.44 c 25.12,0 48.24,-3.98 65.39,-9.96 23.13,-8.78 37.08,-22.73 37.08,-40.28 0,-17.54 -13.95,-31.89 -37.08,-40.27 -17.15,-5.98 -40.27,-9.96 -65.39,-9.96 -25.12,0 -47.85,3.98 -64.99,9.96 -23.12,8.38 -37.48,22.73 -37.48,40.27 0,17.55 14.36,31.5 37.48,40.28 17.14,5.98 39.87,9.96 64.99,9.96 z m 137.96,-15.95 c -34.69,13.16 -83.73,20.74 -137.96,20.74 -54.22,0 -102.87,-7.58 -137.56,-20.74 -29.1,-10.36 -47.04,-22.72 -47.04,-34.29 0,-11.56 17.94,-23.92 47.04,-34.68 34.69,-12.76 83.34,-20.74 137.56,-20.74 54.23,0 103.27,7.98 137.96,20.74 29.1,10.76 47.04,23.12 47.04,34.68 0,11.57 -17.94,23.93 -47.04,34.29 z m -137.96,60.61 c 59.01,0 112.44,-8.77 151.91,-23.13 45.06,-16.34 72.97,-41.86 72.97,-71.77 0,-29.9 -27.91,-55.42 -72.97,-71.77 -39.47,-14.35 -92.9,-23.52 -151.91,-23.52 -58.61,0 -112.44,9.17 -151.51,23.52 -45.05,16.35 -72.96,41.87 -72.96,71.77 0,29.91 27.91,55.43 72.96,71.77 39.07,14.36 92.9,23.13 151.51,23.13 z m 223.68,-29.11 c -57.02,20.74 -135.96,33.9 -223.68,33.9 -87.32,0 -166.26,-13.16 -223.28,-33.9 -50.64,-18.74 -82.13,-41.86 -82.13,-65.79 0,-23.92 31.49,-47.04 82.13,-65.79 57.02,-21.13 135.96,-33.89 223.28,-33.89 87.72,0 166.66,12.76 223.68,33.89 50.64,18.75 82.13,41.87 82.13,65.79 0,23.93 -31.49,47.05 -82.13,65.79 z m -223.68,73.77 c 92.5,0 176.23,-13.96 237.23,-36.29 66.99,-24.72 108.46,-61 108.46,-103.27 0,-42.26 -41.47,-78.54 -108.46,-103.27 -61,-22.32 -144.73,-36.28 -237.23,-36.28 -92.1,0 -175.83,13.96 -236.84,36.28 -66.98,24.73 -108.44,61.01 -108.44,103.27 0,42.27 41.46,78.55 108.44,103.27 61.01,22.33 144.74,36.29 236.84,36.29 z m -430.61,-139.95 c 0,-0.8 0,-1.2 0,-1.6 v -0.4 c 0,-1.99 0.4,-3.99 0.8,-5.98 3.19,-16.75 16.74,-33.89 38.67,-49.84 16.75,-12.36 38.68,-23.92 64.2,-34.29 l 1.59,-0.8 h 0.4 l 2.39,-0.79 0.8,-0.4 v 0 l 3.19,-1.2 v 0 c 2.39,-1.2 4.39,-1.99 6.78,-2.79 3.59,-1.2 7.57,-2.79 11.16,-3.99 h 0.4 l 1.2,-0.4 1.99,-0.79 h 0.4 l 0.8,-0.4 3.19,-1.2 h 0.39 l 3.59,-1.2 v 0 h 0.8 l 2.39,-0.79 v 0 l 2.39,-0.8 2.4,-0.8 v 0 l 2.39,-0.79 1.99,-0.4 h 0.4 l 2.39,-0.8 v 0 l 2.4,-0.8 2.39,-0.8 v 0 c 80.94,-21.53 175.43,-31.89 268.73,-31.89 96.49,0 190.98,10.76 269.13,31.89 l 0.8,0.4 c 3.99,1.2 7.97,2.4 11.96,3.59 l 1.99,0.8 2,0.4 h 0.4 l 2.39,0.79 h 0.4 l 0.4,0.4 2.79,0.8 h 0.4 l 0.4,0.4 2.39,0.8 1.19,0.4 h 0.4 c 2.39,0.79 4.79,1.59 7.18,2.39 h 0.4 c 2.39,1.19 4.78,1.99 7.57,2.79 2,0.8 4.39,1.59 6.78,2.79 h 0.4 c 1.59,0.8 3.59,1.6 5.58,1.99 l 0.4,0.4 v 0 l 1.99,0.8 c 25.52,10.37 47.45,21.93 64.2,34.29 21.93,15.95 35.48,33.09 38.67,50.24 0.4,2.39 0.8,5.18 0.8,7.97 0,36.29 -45.45,71.38 -118.82,98.49 -79.74,29.11 -189.78,47.05 -312.19,47.05 -122.01,0 -232.45,-17.94 -311.79,-47.05 -73.37,-27.11 -118.82,-62.2 -118.82,-98.49 z m 766.73,-131.58 v -89.72 c 0,-11.16 -8.78,-19.93 -19.94,-19.93 -10.76,0 -19.94,8.77 -19.94,19.93 v 76.16 c -5.18,-1.99 -10.36,-3.19 -15.94,-4.78 v 0 0 0 0 -0.4 0 h -0.8 l -0.8,-0.4 h -0.4 -0.4 c -5.98,-1.6 -12.36,-3.19 -18.74,-4.79 v -93.7 c 0,-10.76 -8.77,-19.93 -19.93,-19.93 -10.77,0 -19.94,9.17 -19.94,19.93 v 84.53 c -17.94,-3.59 -36.68,-6.78 -55.82,-9.57 0,-0.4 0,-1.19 0,-1.99 v -93.3 c 0,-11.17 -8.77,-19.94 -19.93,-19.94 -10.77,0 -19.94,8.77 -19.94,19.94 v 90.51 c -17.94,-1.6 -36.68,-3.19 -55.82,-4.39 v -90.91 c 0,-11.16 -8.77,-19.93 -19.93,-19.93 -10.77,0 -19.94,8.77 -19.94,19.93 v 89.32 c -9.17,0 -18.34,0 -27.91,0 -9.17,0 -18.34,0 -27.91,0 v -89.32 c 0,-11.16 -8.77,-19.93 -19.94,-19.93 -10.76,0 -19.93,8.77 -19.93,19.93 v 90.91 c -18.74,1.2 -37.48,2.39 -55.82,4.39 v -90.51 c 0,-11.17 -8.77,-19.94 -19.94,-19.94 -10.76,0 -19.93,8.77 -19.93,19.94 v 93.3 c 0,0.8 0.4,1.59 0.4,1.99 -19.54,2.79 -37.88,5.98 -56.22,9.57 v -84.53 c 0,-10.76 -8.77,-19.93 -19.94,-19.93 -10.76,0 -19.93,9.17 -19.93,19.93 v 93.7 c -12.76,3.19 -25.12,6.38 -37.08,10.37 v -76.16 c 0,-11.16 -8.77,-19.93 -19.94,-19.93 -10.76,0 -19.93,8.77 -19.93,19.93 v 89.72 c -9.17,3.59 -17.95,7.57 -26.32,11.56 l -1.99,0.8 -0.4,0.4 v 0 l -1.6,0.39 v -72.96 c 0,-11.17 -8.77,-19.94 -19.93,-19.94 -10.77,0 -19.94,8.77 -19.94,19.94 v 93.3 c 0,0.8 0,1.59 0.4,2.39 -3.19,2 -5.98,3.99 -8.77,5.98 -5.98,3.99 -11.16,8.38 -15.95,12.76 v -185.41 0 c 0,-36.68 45.45,-71.37 118.82,-98.48 79.34,-29.11 189.78,-47.45 311.79,-47.45 122.41,0 232.45,18.34 312.19,47.45 73.37,27.11 118.82,61.8 118.82,98.48 v 0 185.41 c -4.78,-4.38 -9.97,-8.77 -15.95,-12.76 -2.79,-1.99 -5.58,-3.98 -8.77,-5.98 0,-0.8 0,-1.59 0,-2.39 v -93.3 c 0,-11.17 -8.77,-19.94 -19.94,-19.94 -10.76,0 -19.93,8.77 -19.93,19.94 v 72.96 l -1.2,-0.39 h -0.4 l -1.99,-1.2 v 0 c -8.37,-3.99 -17.14,-7.58 -26.71,-11.56 z m 295.84,-43.07 c -51.43,-14.75 -93.3,-33.09 -121.61,-53.82 -24.72,-18.34 -39.07,-37.48 -39.47,-57.02 -0.4,-6.78 -3.99,-13.16 -9.97,-16.35 -19.53,-38.28 -67.78,-71.77 -135.16,-96.49 -83.73,-30.7 -198.96,-49.84 -325.75,-49.84 -126.79,0 -241.62,19.14 -325.35,49.84 -89.71,33.09 -145.13,80.94 -145.13,135.96 v 0 259.57 c 0,0.8 0,2 0,3.19 0,55.03 55.42,102.88 145.13,135.57 83.73,31.1 198.56,49.84 325.35,49.84 126.79,0 242.02,-18.74 325.75,-49.84 66.19,-23.92 113.63,-56.62 133.97,-93.7 24.32,26.71 63.79,50.24 114.03,68.58 82.13,30.7 195.77,50.24 320.96,50.64 11.17,0 19.94,-8.77 19.94,-19.54 v 0 0 -264.35 c 0,-10.77 -8.77,-19.94 -19.94,-19.94 -0.4,0 -0.79,0 -1.59,0 -46.25,0 -92.5,-3.19 -137.16,-8.77 -43.86,-5.18 -85.32,-13.16 -123.2,-23.53 h -0.8" /><path
         id="path30"
         style="fill:#1a1919;fill-opacity:1;fill-rule:nonzero;stroke:none"
         d="m 1411.15,4468.5 c -2.79,0.4 -5.58,0.4 -8.37,0.8 l -3.19,0.4 v -0.4 l 0.4,-0.8 v -0.4 0 c 7.18,-26.71 13.56,-51.03 20.73,-66.58 3.59,-7.98 5.98,-12.76 5.98,-12.76 0.4,0 -0.39,4.78 -0.79,11.96 -1.2,15.95 -6.78,38.28 -13.56,63 v 0 z m -22.32,41.47 c 3.59,0 7.57,0 11.16,-0.4 -29.9,110.05 -61.8,220.89 -94.49,331.74 27.11,-111.25 54.22,-221.69 83.33,-331.34 z m 65.39,-48.25 c 5.58,-21.93 10.36,-41.86 11.56,-58.21 1.99,-27.51 -5.18,-47.05 -28.71,-53.03 -24.32,-6.78 -40.27,7.57 -52.63,34.29 -8.37,19.14 -15.55,45.05 -23.12,73.36 v 0 0 0 0.8 l -2.8,9.97 v 0 0 0.4 c -50.23,-5.98 -82.53,-33.89 -87.71,-96.89 -7.18,-78.95 33.49,-112.84 100.47,-118.82 100.48,-8.37 254.78,39.07 407.89,100.48 -14.76,5.58 -29.51,10.76 -43.86,16.35 -103.27,38.27 -201.35,74.96 -281.09,91.3 z m -261.96,685.81 c -27.51,117.22 -54.62,233.65 -80.94,342.5 -3.19,10.37 2.79,21.53 13.56,24.72 10.37,2.79 21.53,-3.19 24.72,-13.55 31.1,-106.86 66.19,-222.09 100.87,-337.72 66.59,-219.3 133.17,-439.8 192.58,-659.09 86.12,-14.76 192.98,-54.63 306.21,-96.89 27.91,-10.37 55.82,-20.74 84.13,-31.1 116.83,49.04 228.86,103.27 311.8,143.54 72.16,35.08 122.8,59.41 139.15,61.8 11.16,1.59 21.13,-5.98 22.72,-16.75 1.6,-11.16 -5.98,-21.13 -17.14,-22.72 -9.97,-1.6 -58.21,-24.73 -127.19,-58.22 -74.16,-35.88 -171.05,-82.53 -274.32,-127.19 228.87,-79.75 457.73,-131.18 559,29.9 5.58,9.17 17.94,11.96 27.11,6.38 9.57,-5.98 12.36,-18.34 6.38,-27.51 -123.2,-195.77 -390.34,-124 -646.31,-31.9 -170.65,-70.57 -350.07,-129.58 -466.5,-119.62 -91.3,7.58 -146.32,54.23 -137.15,161.49 7.57,86.52 50.23,124.8 116.82,133.17 -55.42,210.93 -105.26,425.04 -155.5,638.76 v 0" /><path
         id="path32"
         style="fill:#1a1919;fill-opacity:1;fill-rule:nonzero;stroke:none"
         d="m 4232.05,1498.01 c -13.56,13.55 -32.29,21.93 -53.03,21.93 -20.73,0 -39.47,-8.38 -53.03,-21.93 v 0 c -13.55,-13.56 -21.93,-32.3 -21.93,-53.03 0,-20.74 8.38,-39.48 21.93,-53.03 13.56,-13.56 32.3,-21.93 53.03,-21.93 20.74,0 39.47,8.37 53.03,21.93 13.56,13.55 21.93,32.29 21.93,53.03 0,20.73 -8.37,39.47 -21.93,53.03 z m -53.03,61.8 c 31.9,0 60.61,-12.76 81.34,-33.49 20.73,-20.74 33.49,-49.45 33.49,-81.34 0,-31.5 -12.76,-60.21 -33.49,-80.94 v -0.4 c -20.73,-20.74 -49.44,-33.5 -81.34,-33.5 -31.5,0 -60.2,12.76 -81.34,33.5 -20.73,21.13 -33.49,49.84 -33.49,81.34 0,31.89 12.76,60.6 33.49,81.34 h 0.4 v 0 0 c 20.74,20.73 49.44,33.49 80.94,33.49 z m 18.74,379.98 h -60.2 v -161.48 h 60.2 z m -80.14,39.87 h 100.08 c 11.16,0 19.93,-9.17 19.93,-19.93 v -201.36 c 0,-10.76 -8.77,-19.93 -19.93,-19.93 h -100.08 c -10.76,0 -19.94,9.17 -19.94,19.93 v 201.36 c 0,10.76 9.18,19.93 19.94,19.93 z m 591.69,-160.28 h -160.28 v -18.34 h 160.28 z m -343.29,-299.44 c 0,7.97 -0.4,16.34 -0.4,24.72 v 3.19 l -16.35,0.4 v -28.31 z m 39.87,45.05 0.8,-62.2 c 1.99,-48.64 7.57,-91.71 15.55,-124.8 8.37,-34.29 16.34,-55.42 21.93,-55.42 5.58,0 13.55,21.13 21.93,55.42 10.36,42.27 16.74,101.28 16.74,166.67 0,65.39 -6.38,124.4 -16.74,166.66 -8.38,34.29 -16.35,55.43 -21.93,55.43 -5.59,0 -13.56,-21.14 -21.93,-55.43 -9.17,-37.87 -15.15,-88.91 -16.35,-146.33 z M 3387.18,1212.12 v -73.36 h 620 c 45.05,181.42 0.79,251.99 -89.71,275.91 -68.18,18.34 -163.08,13.16 -266.74,7.58 -53.43,-2.79 -109.25,-5.98 -163.87,-5.98 -16.75,-5.98 -37.88,-35.49 -57.02,-72.17 -23.13,-44.26 -41.07,-97.29 -42.66,-131.98 z m 959.7,376 19.94,-0.4 c 1.99,51.04 7.97,97.29 16.74,132.77 12.76,53.43 33.89,86.13 60.61,86.13 20.73,0 37.87,-19.54 50.63,-53.43 l 14.76,24.32 c -0.4,1.2 -0.4,2.39 -0.4,3.59 v 58.21 c 0,11.17 8.77,19.94 19.93,19.94 h 200.16 c 11.16,0 19.93,-8.77 19.93,-19.94 v -58.21 c 0,-11.16 -8.77,-19.94 -19.93,-19.94 h -183.81 c -0.4,-1.19 -1.2,-2.39 -1.6,-3.58 l -34.68,-57.42 c 8.37,-43.06 13.55,-96.89 13.55,-155.5 0,-68.18 -6.77,-130.39 -17.94,-175.84 -12.76,-53.43 -33.89,-86.12 -60.6,-86.12 -26.72,0 -47.85,32.69 -60.61,86.12 -7.57,30.7 -12.76,68.58 -15.55,111.24 h -18.74 V 1125.2 h 126.39 c 10.77,0 19.94,-8.77 19.94,-19.94 V 883.969 c 0,-10.758 -9.17,-19.93 -19.94,-19.93 h -1331.7 c -11.16,0 -19.93,9.172 -19.93,19.93 v 234.051 c 0,10.77 8.77,19.94 19.93,19.94 h 163.47 v 65.39 l -72.56,3.19 c -10.77,0.4 -19.14,9.17 -19.14,19.94 v 0 480.06 c 0,10.76 8.77,19.94 19.94,19.94 h 96.09 c 3.98,0 7.97,-1.2 11.16,-3.59 224.08,-129.19 326.55,-101.28 530.29,-45.06 40.67,11.17 85.72,23.53 134.37,35.49 35.88,8.77 68.97,14.35 98.88,17.14 64.99,5.19 118.02,-3.19 157.49,-24.32 41.46,-21.93 68.58,-57.02 80.14,-103.27 1.2,-4.78 1.99,-9.57 2.79,-14.75 z M 4309.4,1500 v 68.18 c -0.8,8.77 -1.99,17.15 -3.99,25.12 -8.77,34.69 -28.7,61.01 -59.8,77.75 -33.1,17.15 -78.55,24.32 -135.57,19.54 -28.7,-2.39 -59.4,-7.58 -93.29,-15.95 -50.24,-12.36 -93.7,-24.32 -133.17,-35.09 -213.32,-58.61 -320.97,-88.51 -557.01,47.05 h -70.97 v -441.38 l 71.37,-3.19 h 0.4 c 11.16,0 19.94,-8.78 19.94,-19.94 v -6.38 c 2.79,39.87 22.32,98.48 47.44,146.73 23.93,46.25 54.23,84.13 82.54,92.5 1.99,0.8 4.38,1.2 6.78,1.2 56.61,0 111.63,2.79 164.66,5.98 106.86,5.58 204.94,10.77 279.1,-8.77 116.03,-31.1 173.04,-117.23 114.43,-338.12 -1.99,-9.17 -9.96,-16.35 -19.53,-16.35 h -655.49 c -10.36,0 -18.74,7.58 -19.93,17.55 -0.8,-10.37 -9.17,-18.34 -19.94,-18.34 H 3163.9 V 903.91 h 1291.83 v 181.42 h -126.39 c -10.77,0 -19.94,9.17 -19.94,19.93 V 1500" /><path
         id="path34"
         style="fill:#1a1919;fill-opacity:1;fill-rule:nonzero;stroke:none"
         d="m 1908.35,1043.06 c 7.58,31.5 27.11,60.21 57.02,78.15 29.5,18.34 64.19,22.73 95.29,15.15 31.5,-7.57 60.2,-27.11 78.15,-57.01 v 0 c 18.34,-29.51 22.72,-63.8 15.15,-95.299 v 0 c -7.58,-31.5 -27.11,-59.809 -57.02,-78.149 v 0 c -29.5,-17.941 -63.39,-22.332 -94.49,-15.152 l -0.8,0.398 c -31.5,7.571 -59.81,27.114 -78.15,56.622 -17.94,29.5 -22.33,63.39 -15.15,94.5 z m 77.75,44.26 c -20.34,-12.36 -33.89,-31.9 -39.07,-53.43 v -0.8 c -5.19,-21.13 -2,-44.25 10.36,-64.59 12.76,-20.73 31.1,-33.09 54.23,-39.07 21.13,-4.789 44.65,-2 64.59,10.359 v 0 c 20.33,12.762 33.89,32.301 39.07,53.43 v 0 0 c 5.19,21.531 2,45.061 -10.36,65.391 v 0 c -12.36,20.74 -31.9,33.89 -53.43,39.08 -21.53,5.18 -45.06,1.99 -65.39,-10.37 z m -545.44,-44.26 c 7.58,31.5 26.71,59.81 56.22,78.15 h 0.4 c 29.9,18.34 64.19,22.73 95.69,15.15 31.1,-7.57 59.8,-27.11 77.75,-57.01 18.34,-29.11 22.72,-63 15.55,-94.498 l -0.4,-0.801 c -7.58,-31.5 -27.11,-59.809 -57.02,-78.149 -29.1,-17.941 -62.99,-22.332 -94.09,-15.152 l -1.2,0.398 c -31.1,7.184 -59.41,26.711 -77.75,56.223 l -0.4,0.399 c -17.94,29.902 -22.33,64.19 -14.75,95.29 z m 78.55,45.06 c -0.8,-0.4 -1.6,-0.8 -2,-1.2 -19.93,-12.76 -33.09,-31.9 -37.88,-53.03 h -0.39 0.39 c -5.18,-21.13 -2.39,-44.261 9.57,-64.191 0.4,-0.797 0.8,-1.597 1.2,-2 12.36,-19.929 31.9,-33.09 53.03,-38.269 h 0.4 c 21.53,-4.789 44.65,-2 64.59,10.359 20.73,12.762 33.89,32.301 39.07,53.43 l 0.4,0.801 c 4.79,21.53 1.6,44.66 -10.76,64.59 -12.36,20.34 -31.9,33.89 -53.43,39.08 -21.13,5.18 -44.26,2.39 -64.19,-9.57 z m 701.33,841.7 -396.72,-450.55 93.3,-106.06 c 70.57,82.53 130.78,181.02 185,288.67 42.67,84.53 81.34,174.64 118.42,267.94 z m -558.59,-633.97 -43.86,-72.17 c 19.93,-5.58 39.47,-13.55 58.21,-25.12 h 0.4 c 18.34,-11.56 34.29,-25.12 48.24,-40.27 l 43.46,70.98 c -32.69,25.91 -62.2,53.82 -90.9,83.73 v 0.4 z m 84.52,63 c 3.19,12.76 11.17,24.32 23.13,31.9 12.36,7.58 26.31,9.17 39.07,5.98 v 0 c 12.76,-3.19 24.32,-11.16 31.9,-23.13 7.18,-11.96 9.17,-25.91 5.98,-38.67 -3.19,-13.16 -11.16,-24.72 -23.13,-31.9 -11.96,-7.18 -25.51,-9.17 -37.87,-6.38 -0.4,0 -0.8,0 -1.2,0 -12.76,3.19 -24.32,11.16 -31.9,23.53 -7.17,11.96 -9.17,25.91 -5.98,38.67 z m -171.05,-128.79 53.83,88.12 c 0.4,0.8 1.2,1.6 1.99,2.79 v 0 l 19.54,21.93 c -55.02,63.8 -104.06,136.37 -148.32,215.31 -78.55,139.16 -143.54,297.85 -205.74,460.53 -3.19,7.98 -1.59,17.15 5.19,23.13 8.37,7.17 20.73,6.38 28.31,-1.6 l 466.89,-530.7 467.29,530.7 c 7.18,7.98 19.94,8.77 27.91,1.6 6.78,-5.98 8.77,-15.15 5.18,-23.13 -49.44,-129.98 -100.87,-257.58 -159.88,-374.8 C 2081.39,1531.9 2018,1429.43 1943.84,1342.9 l 19.53,-21.93 c 0,0 1.6,-2.79 2,-2.79 l 53.42,-88.12 c 37.08,2.4 74.16,-5.18 107.26,-21.53 35.48,-17.14 65.39,-43.46 86.92,-76.55 v 0 c 1.19,-1.6 1.99,-3.19 2.79,-4.79 l 0.4,-0.4 v 0 l 1.59,-2.39 v 0 l 1.2,-2.39 v 0 l 1.59,-2.39 v 0 l 1.2,-2.39 v 0 l 1.19,-2.4 v 0 l 1.2,-2.39 0.4,-0.4 1.2,-1.99 v -0.4 c 8.77,-17.94 14.75,-35.89 18.74,-55.82 13.15,-72.17 -10.37,-146.33 -63.4,-196.971 -11.16,-10.371 -23.13,-19.937 -36.28,-27.91 -5.58,-3.59 -11.57,-6.777 -17.55,-9.57 -45.05,-22.328 -93.69,-28.309 -142.74,-17.547 -1.59,0.398 -2.79,0.797 -3.98,1.199 -44.26,10.371 -81.34,33.489 -111.24,66.188 v 0.402 c -19.54,22.328 -34.69,47.449 -43.86,75.359 l -0.4,1.989 c -12.76,38.281 -13.96,78.151 -4.79,116.431 v 1.19 c 5.19,20.74 13.16,40.67 23.93,59.01 l -47.05,76.96 -47.05,-76.96 c 10.77,-18.34 19.14,-38.27 23.92,-59.01 l 0.4,-1.19 c 10.37,-43.86 6.78,-90.908 -11.56,-134.771 v 0 c -11.96,-27.508 -29.11,-51.84 -50.64,-72.57 -31.89,-30.297 -70.97,-49.039 -113.63,-56.219 l -0.8,-0.399 h -0.4 c -8.37,-1.191 -16.74,-1.992 -25.12,-2.39 h -0.39 c -15.55,-0.801 -31.1,0.398 -46.65,3.187 h -0.4 c -20.34,3.594 -39.08,9.973 -57.82,19.141 v 0 l -2.39,1.191 v 0 l -2.39,1.2 v 0 l -2.39,1.199 v 0 l -2.39,1.59 v 0 l -2.4,1.203 v 0 l -2.39,1.59 v 0 c -3.59,2 -6.78,3.988 -9.97,5.98 v 0 c -12.76,8.379 -23.12,17.148 -33.49,27.52 v 0.39 c -10.37,9.969 -18.74,20.738 -26.71,32.699 v 0 c -12.76,19.539 -21.53,39.071 -27.91,61.399 -3.19,10.371 -5.19,20.738 -6.38,31.5 -0.8,5.98 -1.2,11.961 -1.6,17.94 -1.99,50.64 12.76,99.29 44.26,140.75 v 0 c 43.86,56.62 111.64,88.92 184.6,84.53 z m 195.37,249.21 -396.72,450.55 c 49.44,-124.8 102.07,-244.81 163.08,-352.07 42.26,-74.96 88.11,-143.94 139.95,-204.54 z m 113.64,-366.03 c -9.57,-16.35 -16.75,-29.11 -22.73,-48.25 l -0.4,-1.59 c -13.95,-47.05 -7.57,-98.091 18.34,-141.15 0.4,-0.398 0.8,-1.199 1.2,-1.988 25.52,-41.071 64.99,-68.192 108.85,-78.953 5.98,-1.598 12.76,-2.387 19.14,-3.188 v 0 c 2.39,-0.402 4.38,-0.801 6.38,-0.801 27.91,-2.39 56.61,1.602 83.33,12.762 v 0 c 77.35,31.898 122,113.238 106.85,195.768 v 0.4 l -0.4,2 c -10.76,53.42 -46.25,100.47 -96.09,124.4 -30.3,14.75 -64.59,20.73 -98.48,16.74 h -0.8 c -23.92,-2.79 -47.84,-10.76 -69.77,-23.92 -0.8,-0.4 -1.2,-1.2 -2,-1.59 -21.92,-13.16 -39.87,-30.71 -53.42,-50.64 z m 91.7,110.44 -43.86,72.17 -135.16,153.51 -93.3,-106.06 c 14.35,-15.55 29.5,-30.3 44.66,-44.66 19.13,-17.54 39.07,-34.29 60.6,-50.63 2.39,-1.6 4.79,-3.19 6.78,-5.19 2.39,-1.59 3.99,-3.59 5.58,-5.58 l 48.24,-78.95 c 13.56,15.15 29.51,28.71 47.85,40.27 h 0.4 c 18.74,11.57 38.28,19.54 58.21,25.12 z m -319.37,-59.8 c -0.8,0.39 -1.59,1.19 -2.39,1.59 -21.93,13.16 -45.45,21.13 -69.38,23.92 h -1.19 c -33.89,3.99 -67.78,-1.99 -98.48,-16.74 -13.56,-6.78 -26.72,-15.15 -38.28,-25.52 -2.39,-1.6 -4.39,-3.59 -6.38,-5.58 v 0 c -47.85,-45.86 -64.59,-111.65 -48.64,-173.448 v 0 c 4.78,-17.942 12.36,-34.293 21.93,-50.243 v 0 l 1.19,-1.589 v 0 l 1.2,-2 v 0 l 1.19,-1.59 1.2,-1.602 v 0 l 1.6,-1.988 v 0 c 13.95,-18.738 29.5,-33.488 49.44,-45.852 v 0 0 0 0 0 h 0.39 v 0 0 0 0 0 0 -0.398 0 0 0 0 0 0 0 0 0 0 0 0 0 h 0.4 v 0 0 0 0 0 0 0 0 0 0 0 0 0 0 0 0 0 0 0 0 0 0 h 0.4 v 0 0 -0.399 0 0 0 0 0 0 0 0 0 0 0 0 0 0 0 0 0 0 0 h 0.4 v 0 0 0 0 0 0 0 0 0 0 0 0 0 0 0 0 0 0 0 0 -0.402 0 0 0 0 0 0 0 h 0.4 v 0 0 0 0 0 0 0 0 0 0 0 0 0 0 0 0 0 0 0 0 0 l 1.99,-1.187 v 0 l 2,-1.2 v 0 l 1.99,-1.203 v 0 l 1.99,-0.789 v 0 l 2,-1.199 c 22.72,-10.371 37.87,-16.352 63.79,-19.141 v 0 c 19.14,-1.988 40.67,-0.398 59.01,3.989 48.64,11.961 89.71,43.461 113.63,86.921 h 0.4 c 16.35,30.301 23.13,63 21.53,95.29 v 0 1.6 0.4 0.4 l -0.4,1.59 v 0 0.8 1.2 0 l -0.39,1.59 c -2.4,26.71 -11.17,52.23 -25.12,75.36 l -0.8,1.2 v 0 l -0.8,1.19 -1.99,2.79 c 0,0.4 -0.4,0.8 -0.8,1.6 -13.56,19.93 -31.5,37.48 -53.03,50.64 z m 133.57,192.98 c -8.77,-5.58 -6.38,-19.14 3.59,-21.53 h 0.4 c 2.79,-0.4 5.58,0 8.37,1.59 8.77,5.19 6.78,18.74 -3.19,21.13 h -0.4 v 0 c -2.79,0.8 -5.98,0.4 -8.77,-1.19 v 0" /></g></g></svg>