<?xml version='1.0' encoding='utf-8'?>
<!-- Generator: imaengine 6.0   -->
<svg xmlns:xlink="http://www.w3.org/1999/xlink" xmlns="http://www.w3.org/2000/svg" viewBox="0,0,1071,580" style="enable-background:new 0 0 1071 580;" version="1.1">
<defs/>
<g id="layer0" visibility="hidden">
<path d="M359,541C372.827,538.162 397.341,546.006 404,536C420.244,536 438.009,536 453,536C471.732,538.487 486.008,534.999 496,530C516.952,534.708 523.84,523.831 540,525C543.491,524.413 551.564,526.115 552,524C551.06,519.727 552.726,518.059 557,519C568.555,521.776 574.241,516.639 579,514C583.079,514 589.449,514 592,514C593.591,503.592 614.051,512.05 617,503C620.491,502.413 628.564,504.115 629,502C633.45,494.452 645.518,494.517 651,488C663.331,484.086 676.326,479.317 682,470C694.745,466.08 700.13,454.795 709,447C713.359,447.28 711.169,438.721 717,442C714.717,427.718 728.208,429.207 729,418C724.901,397.656 743.406,398.396 747,387C751.646,375.402 770.574,376.565 774,365C777.671,364.593 786.161,366.713 784,362C793.735,359.736 796.882,350.881 812,354C809.217,347.139 815.865,347.416 819,348C819.285,336.287 841.531,346.53 845,338C861.506,338.262 866.695,325.686 887,331C890.641,318.396 922.769,332.759 927,322C940.316,318.651 959.176,320.841 975,320C980.874,309.629 1006.9,317.888 1019,315C1035.75,315.508 1056.18,318.174 1054,301C1054,284.756 1054,266.991 1054,252C1054,235.756 1054,217.991 1054,203C1054,186.756 1054,168.991 1054,154C1054,137.756 1054,119.991 1054,105C1054.23,88.5262 1029.45,95.5448 1016,94C999.335,94 982.665,94 966,94C954.549,98.7929 938.702,100.711 922,99C910.753,103.997 896.479,107.489 879,105C879.667,109.746 874.722,111.171 871,110C854.006,105.005 857.992,120.993 841,116C834.945,114.024 832.61,118.059 834,122C817.274,117.273 818.49,130.491 803,127C798.455,138.699 775.853,133.862 771,144C761.684,150.928 747.32,154.329 740,162C726.519,163.436 722.256,185.427 712,171C706.272,160.063 695.678,153.987 689,144C682.201,134.554 663.719,135.272 657,127C646.455,121.301 632.762,117.229 625,110C621.509,109.413 613.436,111.115 613,109C604.753,105.248 595.048,102.95 587,99C575.7,93.6345 555.69,96.9751 548,88C526.795,92.9608 522.908,79.0829 504,83C499.921,83 493.551,83 491,83C487.045,74.9565 473.366,76.6324 461,77C444.756,77 426.991,77 412,77C405.712,66.6228 380.908,74.7569 367,72C352.229,73.4735 341.598,80.607 323,77C307.78,78.0244 287.285,75.2941 276,79C270.058,89.3023 238.573,75.5826 236,88C231.921,88 225.551,88 223,88C207.506,84.505 210.577,99.5785 193,94C185.748,90.8269 189.917,101.366 185,99C167.75,93.7489 168.178,106.179 155,105C147.641,101.72 149.83,110.279 147,110C132.218,107.217 130.126,117.127 121,120C107.418,122.662 99.2072,132.216 88,136C73.3811,138.046 69.8111,151.146 61,159C49.9203,164.165 44.2046,176.214 39,186C29.4197,192.664 33.6608,214.67 33,229C33,245.244 33,263.009 33,278C33,294.244 33,312.009 33,327C33,343.244 33,361.009 33,376C35.8375,389.407 27.9939,415.015 38,420C39.1763,435.068 48.9006,443.109 55,452C66.3516,457.313 70.9425,469.392 82,475C90.3282,482.916 107.252,483.757 114,492C125.811,496.434 135.756,504.253 149,506C164.538,506.706 171.572,517.437 188,516C186.55,521.529 196.532,517.916 198,519C212.521,516.478 210.365,530.636 228,525C237.449,531.795 256.651,530.358 272,530C276.309,541.936 302.67,533.339 315,536C328.407,538.838 354.015,530.994 359,541ZM469,507C453.043,508.64 432.957,507.599 417,508C399.403,508 380.358,508 364,508C346.403,508 327.358,508 311,508C292.498,508.905 284.009,498.349 263,503C258.334,503 253.666,503 249,503C250.783,488.361 219.459,505.098 221,492C216.334,492 211.666,492 207,492C204.706,490.961 198.176,494.157 199,490C199.215,480.327 176.787,491.306 177,483C176.564,478.77 168.492,482.174 165,481C159.811,473.333 143.206,475.35 137,470C129.071,473.263 134.733,462.933 129,464C118.753,461.391 114.52,451.037 105,449C93.6328,442.77 87.8791,429.479 77,424C79.3676,416.966 68.8281,422.838 72,415C68.52,405.624 56.4631,403.093 61,387C61,369.403 61,350.358 61,334C61,316.403 61,297.358 61,281C56.9736,248.638 75.1913,279.522 81,282C84.2801,296.317 82.1982,317.444 83,333C81.0002,352.597 82.2025,370.439 104,365C114.494,358.163 108.393,334.725 110,319C110,314.334 110,309.666 110,305C110.457,302.124 108.376,296.709 113,298C120.565,299.893 127.02,304.887 132,308C132,325.597 132,344.642 132,361C125.322,380.859 142.915,394.285 155,383C165.362,375.765 157.051,348.409 160,335C160,330.334 160,325.666 160,321C158.066,312.024 181.339,321.514 182,326C193.555,332.042 184.773,359.869 188,373C183.505,395.092 193.487,404.155 205,409C216.378,402.781 225.475,392.833 221,372C225.618,359.021 210.635,324.993 233,331C240.822,327.844 233.179,340.155 241,337C260.359,330.497 261.429,344.015 259,358C259,375.597 259,394.642 259,411C259.821,421.784 297.689,428.596 287,404C287,386.403 287,367.358 287,351C286.968,333.371 319.258,346.616 331,342C331,359.597 331,378.642 331,395C328.588,414.744 331.116,429.553 353,425C364.72,419.123 356.545,391.903 359,378C359,373.334 359,368.666 359,364C351.438,343.582 370.033,347.59 382,348C409.841,337.756 402.897,363.745 403,380C404.581,396.016 397.826,421.816 411,425C433.927,430.33 432.025,409.383 431,392C432.587,375.99 428.356,352.715 434,342C450.082,343.515 479.018,333.624 469,360C471.208,375.389 465.221,400.421 473,409C469.097,428.951 507.954,420.889 502,407C502,389.403 502,370.358 502,354C502,349.334 502,344.666 502,340C512.374,337.518 525.698,336.255 532,331C549.629,330.968 536.384,363.258 541,375C536.788,396.809 547.817,404.824 560,409C568.784,400.187 576.798,389.156 574,370C575.588,353.99 571.356,330.715 577,320C603.966,310.365 594.783,336.885 596,353C591.788,374.809 602.817,382.824 615,387C634.603,389.006 627.758,363.116 629,348C633.561,334.964 620.112,302.47 638,304C653.565,281.132 652.563,321.025 651,332C648.995,351.602 650.405,369.237 671,365C683.914,360.317 677.362,334.721 679,320C679,315.334 679,310.666 679,306C676.694,290.838 679.848,279.404 688,276C701.643,259.229 693.936,302.604 696,311C696,328.597 696,347.642 696,364C696,381.597 696,400.642 696,417C686.991,425.588 685.825,443.467 668,442C664.008,455.605 643.123,453.765 637,464C631.751,463.418 626.804,463.138 629,470C620.237,474.093 604.233,472.677 601,481C586.709,484.306 567.571,484.213 559,492C540.498,491.095 532.009,501.651 511,497C507.958,511.289 475.86,496.529 469,507ZM740,358C718.686,363.897 733.975,327.906 729,315C729,296.335 729,277.665 729,259C730.618,249.463 724.655,204.135 734,222C735.732,238.933 727.584,265.752 747,265C768.196,267.532 760.724,241.389 762,224C764.471,207.806 755.788,180.453 771,177C774.248,192.417 772.216,213.119 773,231C774.175,234.491 770.77,242.564 775,243C788.624,252.218 788.838,245.451 799,238C800.624,220.959 799.608,201.273 800,183C800,178.334 800,173.666 800,169C800.254,165.818 798.937,158.825 802,160C813.492,161.057 818.328,146.985 817,166C817.392,184.273 816.376,203.959 818,221C825.839,217.827 819.968,228.366 827,226C847.912,232.914 846.626,217.624 845,202C845,183.335 845,164.665 845,146C845.436,141.77 853.508,145.174 857,144C859.873,143.437 867.222,145.111 867,143C873.262,127.157 872.631,154.701 872,159C872,177.665 872,196.335 872,215C875.581,216.085 883.863,212.471 883,218C888.123,220.773 900.79,209.951 900,200C900,181.335 900,162.665 900,144C901.085,140.419 897.471,132.137 903,133C919.299,141.844 928.927,113.762 927,139C927,157.665 927,176.335 927,195C923.848,213.353 956.441,215.727 955,197C955,178.335 955,159.665 955,141C955,136.334 955,131.666 955,127C972.641,130.642 973.138,117.137 992,122C1009.8,122.864 1037.39,113.948 1027,143C1027,161.273 1027,180.959 1027,198C1027,216.665 1027,235.335 1027,254C1028.09,273.752 1032.47,296.809 1004,287C988.698,290.363 960.696,281.032 954,293C936.317,293.982 913.079,289.414 903,298C898.334,298 893.666,298 889,298C878.268,301.267 868.624,305.626 856,307C855.564,311.23 847.492,307.826 844,309C841.127,309.563 833.778,307.889 834,310C833.092,319.23 812.966,311.177 813,320C797.967,323.632 783.55,327.885 773,336C771.624,339.29 761.849,334.183 762,339C757.313,347.848 742.252,348.007 740,358ZM364,314C351.663,313.021 326.699,319.126 320,310C332.337,310.979 357.301,304.874 364,314ZM458,314C439.922,312.843 408.255,319.179 397,310C415.078,311.157 446.745,304.821 458,314ZM508,308C496.683,308.825 479.028,310.043 469,307C474.169,298.17 501.406,311.405 502,298C520.852,302.854 522.859,290.857 539,293C544.352,284.817 560.408,285.653 569,282C575.712,274.713 590.227,275.226 594,265C607.146,264.612 607.859,250.104 618,248C627.039,243.04 627.56,229.558 635,223C634.966,209.499 637.719,191.526 629,188C624.995,178.006 615.702,173.297 609,166C606.476,154.525 591.22,155.779 585,148C578.309,140.692 565.847,139.151 558,133C540.271,137.194 540.062,122.183 524,126C518.565,117.436 494.042,127.957 492,116C488.564,116 482.889,116 481,116C467.041,119.96 465.231,111.768 457,110C443.001,110 428.999,110 415,110C401.466,110 386.245,110 374,110C360.001,110 345.999,110 332,110C320.944,112.942 297.911,103.913 296,116C282.888,116.886 264.198,112.199 260,122C241.781,117.316 237.645,128.4 224,127C218.256,135.255 202.554,133.555 193,138C186.753,145.287 171.019,144.774 169,155C165.818,155.254 158.825,153.937 160,157C159.193,166.331 144.254,163.466 144,172C136.498,178.033 131.433,188.188 127,196C126.717,210.281 125.146,225.855 132,233C129.73,238.706 135.721,238.39 138,238C145.927,240.072 139.841,256.16 152,254C160.134,259.865 162.381,271.621 177,271C174.73,276.706 180.721,276.39 183,276C185.908,283.091 197.927,281.074 204,285C219.6,283.399 221.026,295.975 237,294C239.535,298.135 276.641,298.725 250,304C230.709,309.292 233.289,292.71 214,298C198.321,300.145 195.098,288.147 178,293C170.155,286.846 156.395,286.604 147,282C141.256,273.745 125.554,275.445 116,271C117.849,265.715 114.175,263.713 111,265C100.496,265.365 101.958,251.831 91,254C85.7633,245.702 74.5269,241.718 72,232C69.5089,223.579 57.0395,213.775 64,204C62.3961,188.862 73.7556,185.001 78,177C83.5615,168.563 95.8389,166.837 103,160C106.27,159.833 104.279,152.167 109,155C115.01,151.011 123.768,149.767 128,144C131.436,144 137.111,144 139,144C140.681,135.543 157.786,140.574 160,134C176.609,136.611 177.682,123.681 193,125C200.52,118.521 223.344,127.343 226,116C245.235,121.7 246.647,107.893 261,110C273.8,108.801 292.791,113.789 298,105C311.534,105 326.755,105 339,105C352.999,105 367.001,105 381,105C394.534,105 409.755,105 422,105C435.999,105 450.001,105 464,105C469.21,113.789 488.198,108.803 501,110C504.436,110 510.111,110 512,110C510.864,121.275 530.547,113.664 537,116C538.454,128.081 565.28,116.475 567,127C585.827,122.172 584.465,137.537 602,134C599.31,140.126 607.618,137.494 609,138C618.316,138.683 621.88,145.121 629,148C647.749,143.25 645.675,159.326 659,160C662.308,170.226 678.04,169.714 683,177C688.064,185.935 696.244,191.757 696,206C696,209.436 696,215.111 696,217C695.881,226.88 687.781,228.782 687,238C678.517,243.516 677.098,256.099 662,255C651.591,258.126 648.359,270.114 637,271C633.73,271.167 635.721,278.833 631,276C616.05,271.189 619.598,286.809 606,282C599.62,279.056 603.57,288.681 600,287C584.873,281.872 587.521,294.522 576,293C569.782,300.781 551.776,296.778 541,300C537.377,309.911 510.072,297.827 508,308ZM353,281C341.072,279.321 312.237,287.617 309,276C288.403,277.932 272.187,275.478 258,271C254.329,270.005 245.839,273.828 248,267C233.228,267.773 226.251,260.747 213,260C207.265,261.069 212.928,250.738 205,254C194.551,250.45 187.17,243.829 177,240C169.772,228.563 152.967,226.698 155,206C160.505,192.84 171.647,185.312 182,177C190.651,166.987 210.828,168.493 221,160C228.839,163.173 222.968,152.634 230,155C249.291,160.292 246.711,143.71 266,149C269.671,148.005 278.161,151.828 276,145C284.839,140.304 310.306,150.551 310,138C328.665,138 347.335,138 366,138C374.139,150.36 335.655,140.904 324,144C319.54,144.206 312.821,142.155 315,149C311.564,149 305.889,149 304,149C288.965,144.104 288.207,155.418 279,155C273.164,153.83 269.919,155.253 270,160C266.564,160 260.889,160 259,160C254.654,165.792 242.934,166.146 239,171C233.519,184.184 216.893,186.228 215,203C209.857,226.808 224.168,231.167 232,242C237.921,240.745 235.941,247.393 239,249C245.38,246.056 241.43,255.681 245,254C255.559,253.579 256.316,264.896 270,260C269.92,264.746 273.163,266.171 279,265C282.492,264.944 289.127,263.984 287,268C288.605,276.394 310.463,264.538 309,276C322.407,278.837 348.015,270.994 353,281ZM453,281C440.164,281.223 419.137,284.001 409,279C419.136,273.568 440.163,277.469 453,276C450.822,269.156 457.538,271.205 462,271C465.436,271 471.111,271 473,271C471.152,259.013 494.671,270.46 493,260C497.666,260 502.334,260 507,260C514.195,253.196 524.026,249.024 530,241C528.931,235.265 539.262,240.928 536,233C541.451,224.453 549.799,218.798 547,202C540.503,189.833 531.896,179.769 522,171C512.67,161.666 495.476,160.189 482,155C475.358,156.976 474.725,152.941 474,149C457.306,151.696 447.915,147.084 437,144C426.134,141.369 385.051,149.905 397,138C415.273,138 434.959,138 452,138C452.726,141.94 453.357,145.977 460,144C477.228,140.77 485.108,146.893 497,149C501.666,149 506.334,149 511,149C516.816,157.183 531.655,156.347 542,160C552.212,168.453 571.499,167.836 581,177C591.973,184.691 601.118,194.217 607,207C603.32,221.985 595.107,232.442 585,241C585.151,245.818 575.377,240.711 574,244C569.368,253.366 553.461,251.463 547,259C545.624,262.29 535.849,257.183 536,262C537.738,267.174 529.073,264.184 528,265C512.455,259.593 514.885,274.097 503,271C499.509,272.175 491.436,268.77 491,273C483.058,278.592 463.703,274.458 453,276C453,277.436 453,281.111 453,281ZM364,248C360.682,250.082 351.318,248.401 348,249C344,249 340,249 336,249C318.478,254.523 322.464,238.535 306,243C301.188,242.412 290.635,245.283 293,239C291.111,236.889 285.437,238.563 282,238C274.206,233.795 266.446,229.553 258,226C237.389,219.717 241.77,197.016 260,193C270.752,182.421 292.37,182.701 308,177C313.254,176.855 323.118,179.036 320,172C332.836,171.777 353.863,168.999 364,174C364.488,179.887 352.504,175.586 350,177C332.605,175.603 329.205,188.207 315,190C313.047,193.447 305.744,193.826 309,201C296.152,209.211 312.896,224.456 316,232C323.419,229.914 316.513,242.154 326,238C329.436,238.563 335.111,236.889 337,239C338.476,249.523 364.08,235.922 364,248ZM442,248C438.682,250.082 429.318,248.401 426,249C410.991,254.016 379.232,243.166 411,243C415.369,241.97 426.612,245.53 425,240C436.31,235.312 448.274,231.272 453,220C450.835,214.066 463.659,213.966 456,210C450.826,211.174 453.816,204.183 453,201C455.744,186.257 437.498,192.5 436,182C429.266,183.335 423.189,181.729 424,177C408.753,182.305 380.084,170.358 412,171C417.399,171 425.082,171 429,171C433.254,182.99 462.81,171.199 467,182C483.318,187.329 504.114,189.443 513,201C530.863,215.514 499.392,227.053 491,232C479.399,242.045 453.585,239.142 442,248ZM414,214C401.755,215.754 386.535,214.536 373,215C365.359,214.654 331.319,217.708 347,210C349.023,198.024 372.089,207.087 383,204C393.415,207.12 419.572,196.183 414,214Z" fill="#030000"/>
</g>
<g id="layer1" visibility="hidden">
<path d="M391.858,532.085C438.28,532.081 630.536,526.96 710,437C714.796,425.131 727.485,421.15 725,402C784.534,315.434 1005.41,310.076 1021,309C1041.68,313.015 1051.32,305.981 1049,287C1049,270.335 1049,153.665 1049,137C1047.1,122.239 1052.95,99.7165 1036,100C807.119,95.7856 743.268,172.603 730,176C719.367,189.316 706.185,171.772 700,166C600.552,69.3431 408.165,83.5002 396,79C381.722,77.5128 104.383,75.1067 39.7404,195.185C37.7085,209.818 39,385.335 39,402C62.0862,523.119 330.3,531.415 391.858,532.085ZM393.608,514.218C139.699,505.614 92.0784,448.7 67,417C46.6447,370.664 55.3009,279.326 57.2004,263.227C97.5456,272.428 88.4988,313.46 89,330C87.8954,354.396 103.127,368.326 104.218,341.779C106.783,311.666 101.101,283.688 120.301,295.762C138.478,304.415 137.244,327.784 137.351,353.539C136.667,386.915 154.293,385.218 155.394,360.415C156.131,331.956 151.998,307.764 174.171,315.875C197.612,324.057 195.462,355.112 194.167,374.405C193.764,407.446 214.918,404.488 215.436,379.884C217.662,337.856 207.553,321.121 242.808,330.541C271.9,331.161 262.865,352.145 265,391C265.723,416.668 282.627,421.43 283.062,396.449C283.385,342.353 277.666,333.331 308.569,336.208C341.469,338.655 336.103,347.196 336.733,402.651C338.32,427.189 353.291,421.413 354.407,404.532C354.765,350.602 347.707,341.824 379.134,342.295C416.822,340.56 408.027,363.614 409.094,403.049C409.543,425.275 427.372,424.111 426.836,402.825C425.389,359.277 419.418,341.129 448,337C475.385,335.628 474.213,348.607 474.588,398.77C476.266,426.389 496.937,419.485 497.424,396.391C498.034,351.319 487.921,334.179 520.544,328.825C552.632,321.931 546.917,348.019 547,385C547.181,412.48 569.67,403.754 568.73,378.965C568.365,326.398 570.533,320.356 585.558,316.353C601.681,310.084 601.153,338.571 602.082,364.783C602.607,387.04 625.009,388.017 624,357C623.269,325.093 617.941,307.66 635.722,297.998C658.507,287.257 654.383,320.397 655.898,339.892C656.803,371.989 675.684,361.044 675.079,333.844C674.012,306.064 677.464,279.032 686.55,271.34C700.096,260.754 700.967,267.626 701,291C701,308.998 701,381.002 701,399C703.339,419.337 697.138,431.14 688,440C678.16,448.159 589.974,506.19 393.608,514.218ZM717,405C715.577,454.677 714.614,269.166 710.344,236.057C717.672,177.82 720.625,394.65 717,405ZM762,348C741.751,354.817 736.065,371.999 726,361C725.132,341.135 722.571,266.294 724,250C721.736,204.118 724.817,208.415 732.478,201.866C738.011,202.391 737.525,212.698 738.66,231.908C741.305,278.741 760.336,263.184 757.228,221.429C756.685,197.37 758.791,176.214 768.94,175.159C777.442,171.744 778.512,195.731 778.717,214.857C779.252,254.263 796.231,237.392 795.709,210.665C795.641,192.554 788.021,153.947 807.184,153.779C827.202,140.269 823.21,185.449 823,199.242C823.5,234.59 843.151,228.225 841.041,194.296C839.427,155.762 831.463,143.566 855.473,137.254C881.528,131.406 878.629,154.539 877.889,187.746C878.898,222.667 894.693,211.955 894.653,185.885C894.111,141.406 886.928,125.168 912.913,124.712C932.487,123.889 932.602,124.815 933,179C933.48,203.183 948.496,212.964 949.109,179.175C949.698,160.816 947.653,142.375 951,128C960.855,118.907 976.145,113.867 996,116C1016.21,114.733 1038.13,113.148 1033,136C1033,155.331 1033,233.277 1033,251C1030.62,267.95 1039.8,296.471 1017,293C998.855,293.392 855.181,294.136 762,348ZM460,312C460.083,321.863 440.386,318.005 429,319C417.001,317.667 399.343,321.989 395,313C396.325,300.993 415.738,307.07 427,305C438.684,306.648 457.037,301.631 460,312ZM365,308C367.834,326.319 329.98,317.238 319,316C316.166,297.681 354.02,306.762 365,308ZM294,303C300.627,316.879 273.875,313.763 270,310C260.395,297.261 289.734,300.419 294,303ZM469.075,307.801C471.287,297.526 632.094,289.827 631.458,205.685C628.044,112.43 417.625,117.436 380.958,115.096C299.269,115.538 142.882,120.084 130.5,204.297C127.655,274.408 236.114,293.221 249,295C271.505,299.707 262.262,310.544 244,308C113.612,284.917 61.45,251.114 57,204C97.1508,94.6939 381.551,96.3378 396.216,96.3378C507.083,104.874 700.023,131.605 700.122,209.431C699.202,281.992 468.411,326.666 469.075,307.801ZM361.748,279.839C353.652,290.34 153.436,272.936 152.591,202.848C173.377,142.07 350.727,121.945 367.966,140.577C348.281,150.399 234.307,141.915 215.124,207.483C219.358,280.331 351.664,269.338 361.748,279.839ZM549.939,206.207C520.697,137.65 408.663,155.164 391.636,140.573C429.519,128.102 602.465,145.406 609.246,209.68C604.582,258.952 419.386,294.33 404.034,279.664C424.489,258.689 531.791,281.465 549.939,206.207ZM399.466,248.369C420.956,236.898 452.328,235.98 453.541,209.627C454.886,176.993 403.342,175.965 396.081,173.051C409.436,160.313 519.837,176.736 520.667,209.84C513.746,240.212 404.168,255.665 399.466,248.369ZM371.732,247.614C359.733,261.211 245.161,246.714 239.896,208.655C261.471,167.017 370.211,160.67 370.728,173.676C331.361,177.18 308.206,192.621 309,210C310.67,229.455 334.714,245.573 371.732,247.614ZM52,235C46.5185,241.079 46.5591,267.083 45,239C44.1033,234.667 46.4202,231.309 46,229C47.9887,231.362 49.0029,222.148 52,235ZM417,205C425.224,226.541 398.495,218.67 384,220C369.424,217.91 346.335,224.33 339,215C339.535,198.87 356.641,199.306 373,199C387.541,201.124 408.705,196.63 417,205ZM298,114C306.75,108.085 325.961,112.627 339,111C353.213,111 369.067,111 382,111C396.213,111 412.067,111 425,111C437.221,112.087 458.903,108.628 464,113C454.873,107.462 436.147,111.518 423,110C408.787,110 392.933,110 380,110C365.787,110 349.933,110 337,110C325.029,112.242 302.945,106.012 298,114Z" fill="#000000"/>
</g>
<g id="layer2">
<path d="M696.075,532.085C649.653,532.081 457.397,526.96 377.933,437C373.137,425.131 360.448,421.15 362.933,402C303.399,315.434 82.522,310.076 66.9329,309C46.2529,313.015 36.6165,305.982 38.9329,287C38.9329,270.335 38.9329,153.665 38.9329,137C40.8364,122.239 34.9843,99.7166 51.9329,100C280.814,95.7857 344.665,172.603 357.933,176C368.566,189.317 381.748,171.772 387.933,166C487.381,69.3431 679.768,83.5002 691.933,79C706.211,77.5128 983.55,75.1066 1048.19,195.184C1050.22,209.818 1048.93,385.335 1048.93,402C1025.85,523.119 757.633,531.415 696.075,532.085ZM694.325,514.218C948.234,505.614 995.855,448.7 1020.93,417C1041.29,370.664 1032.63,279.325 1030.73,263.227C990.387,272.428 999.434,313.46 998.933,330C1000.04,354.396 984.805,368.326 983.715,341.779C981.15,311.666 986.831,283.688 967.632,295.762C949.455,304.415 950.689,327.784 950.582,353.539C951.266,386.915 933.64,385.218 932.539,360.414C931.802,331.956 935.935,307.764 913.762,315.875C890.321,324.057 892.471,355.112 893.765,374.405C894.168,407.446 873.015,404.488 872.496,379.884C870.271,337.856 880.38,321.121 845.125,330.541C816.033,331.16 825.068,352.145 822.933,391C822.21,416.668 805.306,421.43 804.871,396.449C804.548,342.353 810.267,333.331 779.364,336.208C746.464,338.655 751.83,347.196 751.2,402.651C749.613,427.189 734.642,421.413 733.526,404.532C733.168,350.602 740.226,341.824 708.799,342.295C671.111,340.56 679.906,363.614 678.839,403.049C678.39,425.275 660.561,424.111 661.097,402.825C662.544,359.277 668.515,341.129 639.933,337C612.548,335.628 613.72,348.607 613.345,398.77C611.667,426.389 590.996,419.485 590.509,396.391C589.899,351.319 600.012,334.179 567.389,328.825C535.301,321.931 541.016,348.019 540.933,385C540.752,412.48 518.263,403.754 519.203,378.965C519.568,326.398 517.4,320.357 502.375,316.353C486.252,310.084 486.78,338.571 485.851,364.783C485.326,387.04 462.924,388.017 463.933,357C464.664,325.093 469.992,307.66 452.211,297.998C429.426,287.257 433.55,320.397 432.034,339.892C431.13,371.989 412.249,361.044 412.854,333.844C413.921,306.064 410.469,279.032 401.383,271.34C387.837,260.754 386.966,267.626 386.933,291C386.933,308.998 386.933,381.002 386.933,399C384.594,419.338 390.795,431.14 399.933,440C409.773,448.159 497.959,506.19 694.325,514.218ZM370.933,405C372.356,454.677 373.319,269.166 377.589,236.057C370.261,177.82 367.308,394.65 370.933,405ZM325.933,348C346.182,354.817 351.868,371.999 361.933,361C362.801,341.135 365.362,266.294 363.933,250C366.197,204.118 363.116,208.415 355.455,201.866C349.922,202.391 350.408,212.698 349.273,231.908C346.628,278.741 327.596,263.184 330.705,221.429C331.248,197.37 329.142,176.214 318.993,175.159C310.491,171.744 309.421,195.731 309.216,214.857C308.681,254.263 291.701,237.392 292.224,210.665C292.292,192.554 299.912,153.947 280.748,153.779C260.731,140.269 264.722,185.45 264.933,199.242C264.433,234.59 244.782,228.225 246.892,194.296C248.506,155.762 256.47,143.566 232.459,137.254C206.405,131.406 209.304,154.539 210.044,187.746C209.035,222.667 193.24,211.955 193.28,185.886C193.822,141.406 201.005,125.168 175.02,124.712C155.446,123.889 155.331,124.815 154.933,179C154.453,203.183 139.437,212.964 138.824,179.175C138.235,160.816 140.28,142.375 136.933,128C127.078,118.907 111.788,113.868 91.9329,116C71.7182,114.734 49.8038,113.149 54.9329,136C54.9329,155.332 54.9329,233.278 54.9329,251C57.3143,267.95 48.1302,296.471 70.9329,293C89.0779,293.392 232.752,294.137 325.933,348ZM627.933,312C627.85,321.863 647.547,318.005 658.933,319C670.932,317.667 688.59,321.989 692.933,313C691.608,300.993 672.195,307.07 660.933,305C649.249,306.648 630.896,301.631 627.933,312ZM722.933,308C720.099,326.319 757.953,317.238 768.933,316C771.767,297.681 733.913,306.762 722.933,308ZM793.933,303C787.306,316.879 814.058,313.763 817.933,310C827.538,297.261 798.199,300.419 793.933,303ZM618.858,307.801C616.646,297.526 455.839,289.827 456.475,205.685C459.889,112.43 670.308,117.436 706.975,115.096C788.664,115.538 945.051,120.084 957.433,204.297C960.278,274.408 851.819,293.221 838.933,295C816.428,299.707 825.671,310.544 843.933,308C974.321,284.917 1026.48,251.113 1030.93,204C990.782,94.6938 706.382,96.3378 691.716,96.3378C580.85,104.874 387.909,131.606 387.811,209.431C388.731,281.992 619.522,326.666 618.858,307.801ZM726.185,279.839C734.281,290.34 934.497,272.936 935.342,202.848C914.555,142.07 737.206,121.945 719.967,140.577C739.652,150.398 853.626,141.915 872.808,207.483C868.575,280.331 736.268,269.338 726.185,279.839ZM537.993,206.207C567.236,137.65 679.27,155.164 696.297,140.573C658.414,128.102 485.468,145.407 478.686,209.68C483.351,258.952 668.547,294.33 683.899,279.664C663.444,258.689 556.142,281.465 537.993,206.207ZM688.467,248.369C666.977,236.898 635.605,235.98 634.392,209.627C633.047,176.993 684.591,175.965 691.852,173.051C678.497,160.313 568.096,176.736 567.266,209.84C574.187,240.212 683.765,255.665 688.467,248.369ZM716.201,247.614C728.2,261.211 842.772,246.714 848.037,208.655C826.462,167.017 717.722,160.67 717.205,173.676C756.572,177.18 779.727,192.621 778.933,210C777.262,229.455 753.219,245.573 716.201,247.614ZM1035.93,235C1041.41,241.079 1041.37,267.083 1042.93,239C1043.83,234.667 1041.51,231.309 1041.93,229C1039.94,231.362 1038.93,222.148 1035.93,235ZM671.328,207.838C672.66,227.9 742.423,222.35 743.872,210.834C745.691,194.05 671.858,192.819 671.328,207.838ZM789.933,114C749.026,110.328 667.72,113.129 623.933,113C669.464,107.813 747.254,106.041 789.933,114Z" fill="#000000"/>
</g>
</svg>
