<?xml version='1.0' encoding='utf-8'?>
<!-- Generator: imaengine 6.0   -->
<svg xmlns:xlink="http://www.w3.org/1999/xlink" xmlns="http://www.w3.org/2000/svg" viewBox="0,0,598,580" style="enable-background:new 0 0 598 580;" version="1.1">
<defs/>
<g id="layer0" visibility="hidden">
<path d="M150,564C165.998,564 182.002,564 198,564C213.998,564 230.002,564 246,564C256.604,558.605 277.766,563.764 288,558C304.601,559.034 315.572,552.878 329,552C341.331,548.333 354.276,545.275 364,539C374.85,534.282 387.275,529.581 392,520C402.14,512.843 398.659,491.35 390,486C383.256,477.177 370.302,473.004 362,467C347.293,464.871 333.031,458.807 351,450C360.595,439.211 337.42,419.309 363,427C374.668,431.33 382.323,439.679 390,448C397.901,455.666 404.089,466.605 412,473C417.405,483.594 426.502,490.5 435,498C441.353,507.215 453.93,511.764 463,517C473.529,522.469 492.847,519.154 508,520C519.557,515.989 532.786,512.092 543,508C552.167,501.169 563.757,496.756 572,489C589.505,484.647 572.335,458.289 560,473C551.51,480.508 540.932,485.934 530,491C519.013,495.581 505.105,498.799 492,500C482.851,499.921 465.92,496.356 457,491C447.25,485.182 439.06,476.246 432,469C426.121,458.881 417.574,451.424 411,442C403.573,433.86 395.735,424.571 388,418C379.596,410.405 366.11,407.889 354,404C340.466,394.572 356.109,379.707 352,371C340.366,358.902 359.021,346.941 351,336C341.738,323.689 360.69,313.153 351,301C344.44,290.414 361.726,277.497 348,268C352.361,254.874 356.836,243.553 348,233C356.205,220.244 352.881,210.825 348,197C360.241,187.009 347.272,174.443 349,163C362,152.402 341.742,140.414 351,129C350.269,112.27 366.566,112.565 376,106C386.165,100.167 393.504,91.5021 398,80C398.835,63.5978 387.045,58.2609 381,50C372.002,42.9994 358.347,40.651 349,34C336.879,30.5532 321.858,28.4479 311,25C296.905,23.0967 282.255,21.7436 269,19C251.327,21.1055 239.43,15.8759 225,16C209.002,16 192.998,16 177,16C162.533,17.1006 149.063,20.7572 133,19C119.674,21.6724 105.659,23.6608 91,25C79.0734,28.641 64.7187,31.4128 53,34C43.7809,40.7793 29.3874,42.389 21,50C12.4692,56.175 4.41756,67.4968 4,78C6.18657,91.8118 14.4592,99.5424 25,105C31.8566,113.711 53.6231,109.071 50,127C63.7529,136.393 43.1766,144.629 52,161C61.9557,167.755 40.8788,183.709 53,196C57.4674,199.771 40.9517,222.534 55,230C46.6349,237.506 49.1504,260.941 55,265C42.7753,272.259 55.0595,295.715 53,299C41.5244,311.755 59.9106,327.25 53,334C40.3345,348.066 64.5537,359.499 50,367C45.7335,387.559 62.7785,390.163 50,402C51.4788,421.215 57.7333,423.06 50,440C50.6899,453.653 68.8407,464.079 47,466C34.0666,469.065 24.3178,475.319 16,483C6.94495,487.594 1.35169,505.24 8,516C14.8926,525.106 22.2438,533.758 34,538C45.4863,542.081 55.693,549.001 69,550C81.2808,553.718 94.2364,556.765 109,558C118.585,563.982 141.674,558.02 150,564ZM238,545C220.278,546.609 199.948,545.617 181,546C161.689,545.98 149.034,539.297 128,541C110.644,539.025 94.1712,536.16 78,533C63.7399,528.312 46.6182,525.104 37,517C15.2706,513.178 27.9034,489.121 43,489C45.6371,486.902 51.9671,486.197 53,484C70.0207,477.471 66.3045,497.624 75,502C88.1255,508.206 101.627,514.041 118,517C134.408,519.541 148.476,525.802 168,524C181.403,529.929 205.072,525.597 223,527C238.559,523.228 258.862,524.193 274,520C288.961,515.63 306.263,513.594 318,506C333.34,505.578 332.126,475.43 349,486C361.287,489.365 383.604,496.523 376,511C365.044,518.992 350.943,525.22 338,530C321.804,533.135 305.585,536.254 289,539C275.813,544.761 250.024,539.301 238,545ZM205,505C185.832,503.898 157.372,507.285 140,502C122.553,496.116 99.8529,495.478 88,484C83.7428,485.518 82.8024,469.975 89,473C100.474,478.858 116.719,479.949 131,483C149.981,487.35 175.092,485.577 196,488C215.804,487.535 239.131,485.788 260,484C281.62,484.718 301.222,474.663 316,476C312.994,496.325 286.84,493.509 270,500C251.102,504.433 229.556,506.225 205,505ZM247,466C225.878,467.542 202.32,466.656 180,467C156.281,468.055 138.594,463.07 118,461C115.823,457.778 108.369,457.549 104,458C89.6669,462.632 73.766,433.053 95,444C112.723,448.941 134.541,449.795 152,455C175.272,454.386 197.357,455.938 218,455C243.382,457.717 259.575,451.239 279,448C284.242,447.842 292.917,448.835 294,446C295.376,443.297 305.151,446.702 305,444C319.866,432.633 319.359,460.69 304,455C287.861,461.525 266.486,462.821 247,466ZM241,435C219.537,436.531 194.463,435.663 173,436C153.679,432.656 131.001,432.663 114,427C110.84,424.761 100.484,427.434 100,424C78.4358,426.481 82.0357,396.875 99,414C118.314,417.35 138.639,419.697 158,423C180.994,423 205.2,423 227,423C250.475,423.811 267.7,418.364 289,417C289.841,412.441 299.454,414.372 303,414C325.556,399.455 314.637,429.177 300,426C280.803,429.467 262.723,434.059 241,435ZM235,403C214.077,403.991 187.58,404.546 168,403C147.193,400.813 124.771,399.029 107,395C105.423,390.578 96.2871,393.712 94,390C91.6273,388.294 82.9289,390.622 85,386C81.2947,366.688 98.6425,384.217 107,382C122.192,389.472 146.847,387.489 165,392C187.994,392 212.2,392 234,392C251.942,386.948 279.346,390.146 293,382C300.71,383.71 302.682,379.681 308,379C313.177,381.093 314.462,372.186 316,378C320.627,395.293 301.312,388.647 295,395C276.427,399.091 255.607,400.943 235,403ZM229,372C208.839,372.229 179.614,375.512 164,370C140.726,370.281 121.075,365.726 104,361C95.41,363.591 95.5437,357.456 90,357C84.4374,358.484 84.5064,352.045 85,349C90.6607,340.392 100.89,354.839 113,351C128.271,358.393 155.117,354.218 171,361C192.735,359.742 220.367,363.167 238,359C259.318,357.324 280.204,354.004 299,351C300.011,346.011 309.82,349.82 312,346C326.552,358.505 297.037,361.623 289,364C271.454,369.118 248.775,369.11 229,372ZM208,341C188.706,340.362 165.009,338.117 144,338C125.758,333.578 105.212,331.452 88,326C78.6723,301.057 117.355,327.312 130,323C149.607,326.058 170.416,327.92 192,329C217.776,331.782 235.416,325.216 258,326C276.31,321.646 297.878,320.542 314,314C318.078,334.949 283.519,328.067 270,335C253.837,341.502 227.687,338.022 208,341ZM205,308C189.312,303.756 156.273,310.853 142,304C120.636,302.7 102.992,297.673 86,292C87.4403,270.515 118.762,295.989 133,292C149.593,298.072 177.695,292.641 195,298C215.083,295.089 239.89,295.691 259,293C281.1,292.436 296.583,285.248 316,282C315.011,304.005 283.184,296.384 269,304C251.349,309.014 225.917,306.253 205,308ZM247,275C225.878,276.542 202.32,275.656 180,276C156.6,277.08 137.872,272.25 119,270C112.476,271.124 112.891,263.027 106,266C99.52,268.401 100.146,261.405 96,263C79.2271,266.642 83.8423,241.156 97,254C115.098,258.223 137.002,259.875 155,263C178.806,260.014 199.481,267.968 219,263C242.883,264.562 263.028,261.15 280,257C285.027,256.627 294.641,258.559 294,254C298.079,254 304.449,254 307,254C321.696,242.82 317.006,269.892 304,265C285.793,269.113 267.111,273.989 247,275ZM241,244C219.537,245.531 194.463,244.663 173,245C153.592,241.743 132.899,239.765 114,236C110.84,233.161 100.484,237.516 100,232C76.5889,236.253 84.5906,202.879 98,223C117.875,225.79 137.171,229.165 157,232C179.994,232 204.2,232 226,232C249.693,233.028 266.376,227.04 288,226C290.769,222.77 296.33,222.33 303,223C324.54,207.438 315.63,239.17 300,235C280.765,238.429 260.498,240.834 241,244ZM235,212C213.537,213.531 188.463,212.663 167,213C147.579,209.428 125.149,207.651 107,204C105.423,199.578 96.2871,202.712 94,199C91.6273,197.294 82.9289,199.622 85,195C81.9238,175.059 97.5684,194.291 107,191C123.484,197.18 145.89,197.445 165,201C187.994,201 212.2,201 234,201C253.355,197.362 277.125,196.926 293,191C300.71,192.71 302.682,188.681 308,188C313.177,190.093 314.462,181.186 316,187C320.627,204.293 301.312,197.647 295,204C275.969,207.633 255.643,209.978 235,212ZM229,181C209.001,181.067 179.405,184.721 164,179C140.003,180.333 123.841,173.824 105,170C99.9748,169.026 94.148,168.851 91,166C84.9619,167.959 84.3987,162.153 85,159C88.346,148.626 101.637,163.054 112,160C128.187,166.477 152.831,164.505 171,169C193.365,168.371 219.283,170.083 239,168C260.181,166.517 279.068,162.732 299,160C300.368,155.369 309.436,158.435 312,155C326.997,167.951 296.408,169.994 288,172C272.58,179.245 248.684,178.019 229,181ZM213,149C190.09,152.33 172.776,145.2 149,147C131.179,142.501 107.963,142.159 94,135C67.946,117.057 113.587,134.701 126,132C142.31,138.01 170.766,133.111 189,136C208.719,140.646 228.399,131.878 252,135C272.388,133.068 293.598,130.72 312,128C314.547,118.163 318.971,133.78 314,133C303.065,138.73 287.238,139.573 275,144C255.255,146.575 232.894,147.772 213,149ZM254,115C237.351,116.624 216.649,115.608 200,116C182.403,115.599 163.358,116.64 147,115C129.817,114.185 116.098,109.901 98,110C85.3265,104.675 69.5519,102.446 57,97C44.5743,91.153 25.8991,90.1417 25,74C31.0919,62.0938 47.2765,60.2747 58,53C74.0046,51.0064 86.5133,45.5115 103,44C117.319,40.3207 135.695,40.6935 151,38C170.428,39.1555 188.14,37.1805 204,36C218.488,39.51 238.448,37.5536 256,38C271.191,40.8073 288.168,41.8337 304,44C317.234,48.7638 334.391,49.6108 346,56C359.051,61.2219 375.757,64.2025 379,78C370.502,87.4998 359.434,94.4359 344,97C331.133,102.131 317.091,106.093 303,110C286.619,111.617 270.489,113.491 254,115Z" fill="#030000"/>
<path d="M175,103C191.921,103 210.325,103 226,103C238.247,98.5818 255.365,99.0305 264,91C275.751,83.8402 278.079,71.2195 266,63C258.024,54.3105 241.609,54.0556 229,50C212.079,50 193.675,50 178,50C164.681,53.3462 147.759,53.0937 138,60C127.229,62.8835 122.177,87.6606 137,91C146.018,98.6474 162.429,98.9063 175,103ZM213,84C194.213,87.0564 177.794,81.1625 162,80C139.171,73.8044 180.368,70.5702 189,69C209.745,67.2029 226.269,71.0084 241,74C262.381,78.8553 222.12,83.3874 213,84Z" fill="#030000"/>
</g>
<g id="layer1" visibility="hidden">
<path d="M373.884,476.447C356.216,469.343 375.939,459.841 374.884,448.447C370.444,433.566 380.678,424.125 395.884,431.447C406.882,435.114 415.054,441.612 421.884,449.447C429.084,456.912 435.523,465.143 441.884,473.447C448.553,481.443 440.312,507.232 448.173,514.036C455.124,521.75 460.282,513.795 453.457,505.954C451.315,485.255 455.525,477.273 442.884,463.447C437.242,454.423 428.713,448.283 422.884,439.447C414.196,433.244 405.915,425.036 393.884,423.447C382.032,420.634 373.92,414.076 372.884,400.447C376.129,390.759 372.162,372.796 372.884,362.447C377.486,351.085 368.214,337.34 373.884,325.447C372.796,308.915 371.652,301.481 373.884,285.447C368.277,272.12 377.028,260.852 372.884,248.447C370.209,236.616 377.682,221.417 371.884,209.447C377.436,197.83 370.724,181.84 372.884,170.447C376.197,155.923 368.007,141.685 375.884,132.447C375.029,116.928 389.242,116.471 397.884,110.447C402.335,107.622 317.017,132.036 231.5,131.705C144.664,131.37 57.6065,106.336 61.8836,109.447C70.6437,115.352 84.1677,116.498 85.8836,129.447C93.1847,140.879 87.1958,153.873 87.8836,168.447C93.0935,178.682 83.0762,194.989 89.8836,206.447C85.364,218.607 89.4166,233.981 88.8836,245.447C84.3039,259.257 93.7532,272.512 87.8836,284.447C88.8419,296.704 90.8557,308.38 87.8836,322.447C93.857,334.864 84.7948,347.731 88.8836,361.447C90.8292,373.305 84.2674,388.443 89.8836,400.447C83.4565,412.139 92.4066,428.229 87.8836,438.447C79.9886,455.006 99.4676,461.009 93.8836,471.447C92.3132,473.214 88.6589,512.246 223.86,526.841C346.513,525.002 350.682,497.974 373.884,476.447ZM211.884,490.447C224.549,490.447 237.218,490.447 249.884,490.447C261.069,489.455 274.56,488.99 283.884,487.447C294.668,486.055 307,484.43 315.884,482.447C326.501,480.888 336.567,476.997 347.884,477.447C355.907,483.742 327.945,504.754 319.311,506.986C310.098,509.95 292.923,515.621 283.884,517.447C272.672,518.413 259.122,518.82 249.884,520.447C237.218,520.447 224.549,520.447 211.884,520.447C201.778,518.376 187.792,518.405 177.884,517.447C167.12,516.034 155.959,513.238 146.884,511.447C137.29,508.864 126.127,506.07 119.884,501.447C110.557,501.951 106.851,481.153 115.884,477.447C123.875,478.034 137.634,480.807 145.884,482.447C156.208,484.3 168.347,486.118 177.884,487.447C188.145,489.363 202.059,489.406 211.884,490.447ZM196.884,458.447C209.061,458.447 223.018,458.447 233.884,458.447C245.439,458.003 258.887,459.449 268.884,457.447C279.986,456.372 292.711,455.141 301.884,453.447C312.755,452.32 321.404,448.966 331.884,447.447C342.779,441.87 357.477,446.429 350.884,459.447C346.471,467.033 336.037,468.602 326.884,471.447C317.999,474.562 306.239,474.804 296.884,477.447C285.814,478.377 275.628,480.193 263.884,480.447C252.96,481.701 238.898,481.596 227.884,481.447C214.894,482.438 205.345,479.985 192.884,480.447C181.845,479.309 168.927,478.27 159.884,476.447C150.158,474.174 139.286,473.044 129.884,470.447C121.221,466.932 107.818,466.379 110.884,452.447C111.079,438.143 126.342,448.576 134.884,448.447C144.27,451.06 154.825,452.507 164.884,454.447C175.8,455.53 186.393,456.939 196.884,458.447ZM358.884,433.447C354.446,438.619 357.265,430.971 358.884,430.447C361.011,414.116 368.556,413.393 364.884,422.447C363.803,430.977 368.047,424.753 369.884,424.447C381.188,419.534 362.279,423.972 358.884,433.447ZM212.884,427.447C225.061,427.447 239.018,427.447 249.884,427.447C261.095,426.659 271.527,425.089 282.884,424.447C294.289,423.676 305.037,420.466 314.884,419.447C324.546,417.111 334.413,414.975 344.884,413.447C356.566,414.437 351.726,435.675 342.884,434.447C334.91,438.473 324.266,439.831 314.884,442.447C305.003,444.565 293.901,445.466 283.884,447.447C273.501,449.064 260.299,447.864 249.884,449.447C237.707,449.447 223.75,449.447 212.884,449.447C202.469,447.863 189.266,449.064 178.884,447.447C168.602,445.552 155.788,444.409 146.884,442.447C137.501,439.831 126.857,438.473 118.884,434.447C109.695,435.357 106.307,410.402 118.884,413.447C128.747,415.583 139.02,417.312 148.884,419.447C158.987,421.343 169.278,423.054 179.884,424.447C191.062,425.268 201.494,426.838 212.884,427.447ZM212.884,395.447C224.572,394.959 239.817,396.247 248.884,394.447C261.586,395.151 271.01,392.572 282.884,392.447C292.884,390.27 306.388,389.818 314.884,387.447C324.846,385.411 334.382,382.945 344.884,381.447C356.87,382.133 351.604,403.798 342.884,402.447C334.91,406.473 324.266,407.831 314.884,410.447C304.655,412.217 294.472,414.037 283.884,415.447C272.026,415.588 262.919,418.484 249.884,417.447C237.707,417.447 223.75,417.447 212.884,417.447C200.219,418.113 190.224,416.106 178.884,415.447C168.099,414.055 155.767,412.43 146.884,410.447C137.501,407.831 126.857,406.473 118.884,402.447C109.224,403.828 106.656,378.053 118.884,381.447C128.747,383.583 139.02,385.312 148.884,387.447C158.944,389.385 169.172,391.16 179.884,392.447C190.739,393.591 202.376,393.956 212.884,395.447ZM213.884,363.447C222.158,363.751 239.116,363.325 248.884,363.447C259.589,362.154 271.592,362.154 281.884,360.447C292.83,359.217 305.417,357.847 313.884,355.447C324.786,354.351 333.025,350.587 344.884,350.447C358.553,351.724 349.41,371.878 342.884,371.447C334.098,374.661 324.298,376.863 313.884,378.447C304.469,381.032 293.243,381.807 282.884,383.447C271.026,383.588 261.919,386.484 248.884,385.447C236.707,385.447 222.75,385.447 211.884,385.447C198.848,386.484 189.741,383.589 177.884,383.447C167.602,381.552 154.788,380.409 145.884,378.447C135.755,376.577 126.098,374.231 117.884,370.447C107.674,370.467 108.181,345.682 119.884,349.447C129.546,351.783 139.413,353.919 149.884,355.447C159.289,358.04 169.629,359.704 180.884,360.447C191.069,362.261 203.339,361.993 213.884,363.447ZM216.884,331.447C229.554,331.94 242.733,331.162 252.884,330.447C264.902,330.467 275.896,329.459 286.884,328.447C296.704,326.091 310.271,325.701 317.884,322.447C328.22,321.786 338.134,317.048 348.884,319.447C357.092,328.579 347.224,340.519 338.884,340.447C329.636,343.199 320.177,345.742 309.884,347.447C299.37,348.932 289.576,351.141 278.884,352.447C267.327,352.889 255.734,353.299 244.884,354.447C233.188,353.965 217.709,355.488 208.884,353.447C196.642,353.69 186.62,351.71 174.884,351.447C165.001,349.153 151.715,348.482 143.884,345.447C133.093,344.239 123.995,341.335 115.884,337.447C106.645,333.759 110.428,311.204 121.884,318.447C132.032,320.298 141.916,322.416 151.884,324.447C161.437,326.892 172.928,327.404 182.884,329.447C193.837,330.493 206.12,330.212 216.884,331.447ZM206.884,299.447C219.061,299.447 233.018,299.447 243.884,299.447C254.894,298.459 267.298,298.86 277.884,297.447C288.337,295.724 301.782,295.212 309.884,292.447C320.159,290.724 329.743,288.306 339.884,286.447C355.839,280.957 353.851,304.814 345.884,305.447C338.413,309.975 328.476,312.04 317.884,313.447C309.172,316.735 297.697,317.262 287.884,319.447C277.017,320.58 264.469,320.034 254.884,322.447C242.707,322.447 228.75,322.447 217.884,322.447C204.568,323.764 196.874,319.455 183.884,320.447C174.076,318.078 160.187,318.01 151.884,315.447C142.012,313.32 131.601,311.729 122.884,308.447C111.396,310.357 107.175,292.769 113.884,286.447C121.667,286.445 134.741,288.801 142.884,291.447C153.766,292.564 162.869,295.463 173.884,296.447C184.544,297.785 195.864,298.468 206.884,299.447ZM200.884,267.447C213.061,267.447 227.018,267.447 237.884,267.447C250.736,268.3 260.883,266.446 272.884,266.447C283.092,264.478 296.7,264.13 304.884,261.447C315.587,260.152 325.325,257.887 334.884,255.447C348.336,247.492 357.444,263.237 348.884,270.447C344.136,277.698 332.364,277.929 323.884,281.447C313.226,282.788 304.002,285.567 292.884,286.447C283.298,288.86 270.751,288.315 259.884,289.447C249.43,291.171 234.55,290.247 223.884,290.447C212.027,290.305 200.764,289.566 189.884,288.447C177.505,288.649 166.64,285.557 156.884,284.447C146.147,283.185 136.779,280.551 126.884,278.447C117.518,276.858 106.698,270.292 111.884,258.447C114.964,248.581 129.956,258.733 137.884,258.447C147.97,260.359 158.113,262.219 168.884,263.447C178.719,265.611 190.262,266.07 200.884,267.447ZM215.884,236.447C227.86,236.247 242.741,237.171 251.884,235.447C264.698,236.263 273.717,233.279 284.884,232.447C295.83,231.217 308.417,229.847 316.884,227.447C326.982,225.547 336.429,222.991 347.884,222.447C357.153,229.5 349.018,244.578 340.884,244.447C331.921,247.483 322.072,249.637 311.884,251.447C302.663,254.225 290.855,254.42 280.884,256.447C270.962,258.524 256.751,256.316 246.884,258.447C235.318,257.836 219.646,259.551 210.884,257.447C198.637,257.695 186.775,257.555 176.884,255.447C165.954,254.199 153.166,253.031 144.884,250.447C134.523,248.809 125.364,245.965 116.884,242.447C107.237,242.571 108.12,214.156 120.884,223.447C131.458,224.871 141.453,226.879 150.884,229.447C161.798,230.531 171.7,232.632 182.884,233.447C193.212,235.118 204.848,235.484 215.884,236.447ZM213.884,204.447C225.45,203.836 241.121,205.551 249.884,203.447C262.934,204.499 271.439,201.002 283.884,201.447C294.208,199.594 306.347,197.777 315.884,196.447C325.546,194.111 335.413,191.975 345.884,190.447C357.512,193.282 349.802,212.293 342.884,212.447C333.193,214.756 323.605,217.17 313.884,219.447C303.655,221.217 293.472,223.037 282.884,224.447C272.444,226.007 259.121,224.686 248.884,226.447C236.707,226.447 222.75,226.447 211.884,226.447C201.405,224.927 188.733,225.597 177.884,224.447C167.794,222.36 155.198,220.999 145.884,219.447C136.383,216.949 126.573,214.756 117.884,211.447C108.136,211.929 107.389,185.89 119.884,190.447C129.546,192.783 139.413,194.919 149.884,196.447C159.612,198.718 170.156,200.176 180.884,201.447C192.241,202.089 202.673,203.659 213.884,204.447ZM215.884,172.447C227.86,172.247 242.741,173.171 251.884,171.447C264.473,172.038 273.576,169.139 285.884,169.447C295.599,167.164 306.821,166.384 316.884,164.447C326.99,162.555 335.411,158.973 347.884,159.447C356.012,166.437 349.74,181.611 339.884,180.447C331.892,184.455 320.826,185.391 311.884,188.447C300.877,189.439 290.891,191.455 279.884,192.447C269.055,193.617 258.743,195.308 245.884,194.447C233.707,194.447 219.75,194.447 208.884,194.447C196.531,194.801 186.913,192.417 175.884,191.447C165.146,190.186 153.919,189.411 144.884,186.447C134.322,185.01 125.195,182.135 116.884,178.447C106.862,177.588 109.444,151.726 120.884,159.447C131.354,160.975 141.221,163.111 150.884,165.447C161.99,166.339 170.957,169.376 182.884,169.447C193.176,171.154 205.178,171.154 215.884,172.447ZM198.884,139.447C221.585,138.818 246.636,140.531 267.884,138.447C290.411,137.644 310.984,134.879 331.884,132.447C368.127,126.45 341.912,158.61 322.884,153.447C304.894,158.788 282.754,159.987 261.884,162.447C240.08,164.005 215.642,163.92 194.884,161.447C172.69,160.31 152.588,157.074 133.884,152.447C107.571,157.138 103.238,118.006 135.884,132.447C156.077,135.585 176.721,138.279 198.884,139.447Z" fill="#000000"/>
</g>
<g id="layer2">
<path d="M412.491,85.8497C412.491,113.063 330.984,135.124 230.441,135.124C129.897,135.124 48.3907,113.063 48.3907,85.8499C48.3907,58.6365 129.897,36.5756 230.441,36.5755C330.984,36.5755 412.491,58.6363 412.491,85.8497Z" stroke="#000000" stroke-width="10" stroke-linecap="round" fill="none" stroke-linejoin="round"/>
<path stroke="#000000" stroke-width="8.41089" d="M292.061,85.1724C292.061,94.5322 264.745,102.12 231.05,102.12C197.355,102.12 170.039,94.5322 170.039,85.1725C170.039,75.8127 197.355,68.225 231.05,68.225C264.745,68.225 292.061,75.8126 292.061,85.1724Z" fill="#000000" stroke-linecap="round" fill-opacity="0.316711" stroke-linejoin="round"/>
<path stroke="#000000" stroke-width="10" d="M224.613,566.046C407.73,575.628 417.718,523.272 413.906,514.254C404.991,493.17 365.327,478.947 365.327,478.947C353.191,504.334 317.012,527.828 232.859,524.631C148.705,521.435 103.209,506.12 98.675,478.558C97.0913,468.93 -72.5577,550.496 224.613,566.046Z" fill="#000000" stroke-linecap="round" fill-opacity="0.32255" stroke-linejoin="round"/>
<path d="M373.884,476.447C356.216,469.343 375.939,459.841 374.884,448.447C370.444,433.566 380.678,424.125 395.884,431.447C406.882,435.114 415.054,441.612 421.884,449.447C429.084,456.912 435.523,465.143 441.884,473.447C448.553,481.443 440.312,507.232 448.173,514.036C455.124,521.75 460.282,513.795 453.457,505.954C451.315,485.255 455.525,477.273 442.884,463.447C437.242,454.423 428.713,448.283 422.884,439.447C414.196,433.244 405.915,425.036 393.884,423.447C382.032,420.634 373.92,414.076 372.884,400.447C376.129,390.759 372.162,372.796 372.884,362.447C377.486,351.085 368.214,337.34 373.884,325.447C372.796,308.915 371.652,301.481 373.884,285.447C368.277,272.12 377.028,260.852 372.884,248.447C370.209,236.616 377.682,221.417 371.884,209.447C377.436,197.83 370.724,181.84 372.884,170.447C376.197,155.923 368.007,141.685 375.884,132.447C375.029,116.928 389.242,116.471 397.884,110.447C402.335,107.622 317.017,132.036 231.5,131.705C144.664,131.37 57.6065,106.336 61.8836,109.447C70.6437,115.352 84.1677,116.498 85.8836,129.447C93.1847,140.879 87.1958,153.873 87.8836,168.447C93.0935,178.682 83.0762,194.989 89.8836,206.447C85.364,218.607 89.4166,233.981 88.8836,245.447C84.3039,259.257 93.7532,272.512 87.8836,284.447C88.8419,296.704 90.8557,308.38 87.8836,322.447C93.857,334.864 84.7948,347.731 88.8836,361.447C90.8292,373.305 84.2674,388.443 89.8836,400.447C83.4565,412.139 92.4066,428.229 87.8836,438.447C79.9886,455.006 99.4676,461.009 93.8836,471.447C92.3132,473.214 88.6589,512.246 223.86,526.841C346.513,525.002 350.682,497.974 373.884,476.447ZM211.884,490.447C224.549,490.447 237.218,490.447 249.884,490.447C261.069,489.455 274.56,488.99 283.884,487.447C294.668,486.055 307,484.43 315.884,482.447C326.501,480.888 336.567,476.997 347.884,477.447C355.907,483.742 327.945,504.754 319.311,506.986C310.098,509.95 292.923,515.621 283.884,517.447C272.672,518.413 259.122,518.82 249.884,520.447C237.218,520.447 224.549,520.447 211.884,520.447C201.778,518.376 187.792,518.405 177.884,517.447C167.12,516.034 155.959,513.238 146.884,511.447C137.29,508.864 126.127,506.07 119.884,501.447C110.557,501.951 106.851,481.153 115.884,477.447C123.875,478.034 137.634,480.807 145.884,482.447C156.208,484.3 168.347,486.118 177.884,487.447C188.145,489.363 202.059,489.406 211.884,490.447ZM196.884,458.447C209.061,458.447 223.018,458.447 233.884,458.447C245.439,458.003 258.887,459.449 268.884,457.447C279.986,456.372 292.711,455.141 301.884,453.447C312.755,452.32 321.404,448.966 331.884,447.447C342.779,441.87 357.477,446.429 350.884,459.447C346.471,467.033 336.037,468.602 326.884,471.447C317.999,474.562 306.239,474.804 296.884,477.447C285.814,478.377 275.628,480.193 263.884,480.447C252.96,481.701 238.898,481.596 227.884,481.447C214.894,482.438 205.345,479.985 192.884,480.447C181.845,479.309 168.927,478.27 159.884,476.447C150.158,474.174 139.286,473.044 129.884,470.447C121.221,466.932 107.818,466.379 110.884,452.447C111.079,438.143 126.342,448.576 134.884,448.447C144.27,451.06 154.825,452.507 164.884,454.447C175.8,455.53 186.393,456.939 196.884,458.447ZM358.884,433.447C354.446,438.619 357.265,430.971 358.884,430.447C361.011,414.116 368.556,413.393 364.884,422.447C363.803,430.977 368.047,424.753 369.884,424.447C381.188,419.534 362.279,423.972 358.884,433.447ZM212.884,427.447C225.061,427.447 239.018,427.447 249.884,427.447C261.095,426.659 271.527,425.089 282.884,424.447C294.289,423.676 305.037,420.466 314.884,419.447C324.546,417.111 334.413,414.975 344.884,413.447C356.566,414.437 351.726,435.675 342.884,434.447C334.91,438.473 324.266,439.831 314.884,442.447C305.003,444.565 293.901,445.466 283.884,447.447C273.501,449.064 260.299,447.864 249.884,449.447C237.707,449.447 223.75,449.447 212.884,449.447C202.469,447.863 189.266,449.064 178.884,447.447C168.602,445.552 155.788,444.409 146.884,442.447C137.501,439.831 126.857,438.473 118.884,434.447C109.695,435.357 106.307,410.402 118.884,413.447C128.747,415.583 139.02,417.312 148.884,419.447C158.987,421.343 169.278,423.054 179.884,424.447C191.062,425.268 201.494,426.838 212.884,427.447ZM212.884,395.447C224.572,394.959 239.817,396.247 248.884,394.447C261.586,395.151 271.01,392.572 282.884,392.447C292.884,390.27 306.388,389.818 314.884,387.447C324.846,385.411 334.382,382.945 344.884,381.447C356.87,382.133 351.604,403.798 342.884,402.447C334.91,406.473 324.266,407.831 314.884,410.447C304.655,412.217 294.472,414.037 283.884,415.447C272.026,415.588 262.919,418.484 249.884,417.447C237.707,417.447 223.75,417.447 212.884,417.447C200.219,418.113 190.224,416.106 178.884,415.447C168.099,414.055 155.767,412.43 146.884,410.447C137.501,407.831 126.857,406.473 118.884,402.447C109.224,403.828 106.656,378.053 118.884,381.447C128.747,383.583 139.02,385.312 148.884,387.447C158.944,389.385 169.172,391.16 179.884,392.447C190.739,393.591 202.376,393.956 212.884,395.447ZM213.884,363.447C222.158,363.751 239.116,363.325 248.884,363.447C259.589,362.154 271.592,362.154 281.884,360.447C292.83,359.217 305.417,357.847 313.884,355.447C324.786,354.351 333.025,350.587 344.884,350.447C358.553,351.724 349.41,371.878 342.884,371.447C334.098,374.661 324.298,376.863 313.884,378.447C304.469,381.032 293.243,381.807 282.884,383.447C271.026,383.588 261.919,386.484 248.884,385.447C236.707,385.447 222.75,385.447 211.884,385.447C198.848,386.484 189.741,383.589 177.884,383.447C167.602,381.552 154.788,380.409 145.884,378.447C135.755,376.577 126.098,374.231 117.884,370.447C107.674,370.467 108.181,345.682 119.884,349.447C129.546,351.783 139.413,353.919 149.884,355.447C159.289,358.04 169.629,359.704 180.884,360.447C191.069,362.261 203.339,361.993 213.884,363.447ZM216.884,331.447C229.554,331.94 242.733,331.162 252.884,330.447C264.902,330.467 275.896,329.459 286.884,328.447C296.704,326.091 310.271,325.701 317.884,322.447C328.22,321.786 338.134,317.048 348.884,319.447C357.092,328.579 347.224,340.519 338.884,340.447C329.636,343.199 320.177,345.742 309.884,347.447C299.37,348.932 289.576,351.141 278.884,352.447C267.327,352.889 255.734,353.299 244.884,354.447C233.188,353.965 217.709,355.488 208.884,353.447C196.642,353.69 186.62,351.71 174.884,351.447C165.001,349.153 151.715,348.482 143.884,345.447C133.093,344.239 123.995,341.335 115.884,337.447C106.645,333.759 110.428,311.204 121.884,318.447C132.032,320.298 141.916,322.416 151.884,324.447C161.437,326.892 172.928,327.404 182.884,329.447C193.837,330.493 206.12,330.212 216.884,331.447ZM206.884,299.447C219.061,299.447 233.018,299.447 243.884,299.447C254.894,298.459 267.298,298.86 277.884,297.447C288.337,295.724 301.782,295.212 309.884,292.447C320.159,290.724 329.743,288.306 339.884,286.447C355.839,280.957 353.851,304.814 345.884,305.447C338.413,309.975 328.476,312.04 317.884,313.447C309.172,316.735 297.697,317.262 287.884,319.447C277.017,320.58 264.469,320.034 254.884,322.447C242.707,322.447 228.75,322.447 217.884,322.447C204.568,323.764 196.874,319.455 183.884,320.447C174.076,318.078 160.187,318.01 151.884,315.447C142.012,313.32 131.601,311.729 122.884,308.447C111.396,310.357 107.175,292.769 113.884,286.447C121.667,286.445 134.741,288.801 142.884,291.447C153.766,292.564 162.869,295.463 173.884,296.447C184.544,297.785 195.864,298.468 206.884,299.447ZM200.884,267.447C213.061,267.447 227.018,267.447 237.884,267.447C250.736,268.3 260.883,266.446 272.884,266.447C283.092,264.478 296.7,264.13 304.884,261.447C315.587,260.152 325.325,257.887 334.884,255.447C348.336,247.492 357.444,263.237 348.884,270.447C344.136,277.698 332.364,277.929 323.884,281.447C313.226,282.788 304.002,285.567 292.884,286.447C283.298,288.86 270.751,288.315 259.884,289.447C249.43,291.171 234.55,290.247 223.884,290.447C212.027,290.305 200.764,289.566 189.884,288.447C177.505,288.649 166.64,285.557 156.884,284.447C146.147,283.185 136.779,280.551 126.884,278.447C117.518,276.858 106.698,270.292 111.884,258.447C114.964,248.581 129.956,258.733 137.884,258.447C147.97,260.359 158.113,262.219 168.884,263.447C178.719,265.611 190.262,266.07 200.884,267.447ZM215.884,236.447C227.86,236.247 242.741,237.171 251.884,235.447C264.698,236.263 273.717,233.279 284.884,232.447C295.83,231.217 308.417,229.847 316.884,227.447C326.982,225.547 336.429,222.991 347.884,222.447C357.153,229.5 349.018,244.578 340.884,244.447C331.921,247.483 322.072,249.637 311.884,251.447C302.663,254.225 290.855,254.42 280.884,256.447C270.962,258.524 256.751,256.316 246.884,258.447C235.318,257.836 219.646,259.551 210.884,257.447C198.637,257.695 186.775,257.555 176.884,255.447C165.954,254.199 153.166,253.031 144.884,250.447C134.523,248.809 125.364,245.965 116.884,242.447C107.237,242.571 108.12,214.156 120.884,223.447C131.458,224.871 141.453,226.879 150.884,229.447C161.798,230.531 171.7,232.632 182.884,233.447C193.212,235.118 204.848,235.484 215.884,236.447ZM213.884,204.447C225.45,203.836 241.121,205.551 249.884,203.447C262.934,204.499 271.439,201.002 283.884,201.447C294.208,199.594 306.347,197.777 315.884,196.447C325.546,194.111 335.413,191.975 345.884,190.447C357.512,193.282 349.802,212.293 342.884,212.447C333.193,214.756 323.605,217.17 313.884,219.447C303.655,221.217 293.472,223.037 282.884,224.447C272.444,226.007 259.121,224.686 248.884,226.447C236.707,226.447 222.75,226.447 211.884,226.447C201.405,224.927 188.733,225.597 177.884,224.447C167.794,222.36 155.198,220.999 145.884,219.447C136.383,216.949 126.573,214.756 117.884,211.447C108.136,211.929 107.389,185.89 119.884,190.447C129.546,192.783 139.413,194.919 149.884,196.447C159.612,198.718 170.156,200.176 180.884,201.447C192.241,202.089 202.673,203.659 213.884,204.447ZM215.884,172.447C227.86,172.247 242.741,173.171 251.884,171.447C264.473,172.038 273.576,169.139 285.884,169.447C295.599,167.164 306.821,166.384 316.884,164.447C326.99,162.555 335.411,158.973 347.884,159.447C356.012,166.437 349.74,181.611 339.884,180.447C331.892,184.455 320.826,185.391 311.884,188.447C300.877,189.439 290.891,191.455 279.884,192.447C269.055,193.617 258.743,195.308 245.884,194.447C233.707,194.447 219.75,194.447 208.884,194.447C196.531,194.801 186.913,192.417 175.884,191.447C165.146,190.186 153.919,189.411 144.884,186.447C134.322,185.01 125.195,182.135 116.884,178.447C106.862,177.588 109.444,151.726 120.884,159.447C131.354,160.975 141.221,163.111 150.884,165.447C161.99,166.339 170.957,169.376 182.884,169.447C193.176,171.154 205.178,171.154 215.884,172.447ZM198.884,139.447C221.585,138.818 246.636,140.531 267.884,138.447C290.411,137.644 310.984,134.879 331.884,132.447C368.127,126.45 341.912,158.61 322.884,153.447C304.894,158.788 282.754,159.987 261.884,162.447C240.08,164.005 215.642,163.92 194.884,161.447C172.69,160.31 152.588,157.074 133.884,152.447C107.571,157.138 103.238,118.006 135.884,132.447C156.077,135.585 176.721,138.279 198.884,139.447Z" fill="#000000"/>
</g>
</svg>
