<?xml version='1.0' encoding='utf-8'?>
<!-- Generator: imaengine 6.0   -->
<svg xmlns:xlink="http://www.w3.org/1999/xlink" xmlns="http://www.w3.org/2000/svg" viewBox="0,0,800,600" style="enable-background:new 0 0 800 600;" version="1.1">
<defs/>
<g id="layer0">
<path d="M302.188,145.212C302.188,192.081 264.193,230.076 217.324,230.076C170.455,230.076 132.46,192.081 132.46,145.212C132.46,98.3433 170.455,60.3484 217.324,60.3484C264.193,60.3484 302.188,98.3433 302.188,145.212Z" fill="#000000"/>
<path d="M492.866,198.501C492.866,246.751 453.751,285.866 405.501,285.866C357.251,285.866 318.136,246.751 318.136,198.501C318.136,150.251 357.251,111.136 405.501,111.136C453.751,111.136 492.866,150.251 492.866,198.501Z" fill="#000000"/>
<path d="M676.864,145.212C676.864,192.081 638.869,230.076 592,230.076C545.131,230.076 507.136,192.081 507.136,145.212C507.136,98.3433 545.131,60.3484 592,60.3484C638.869,60.3484 676.864,98.3433 676.864,145.212Z" fill="#000000"/>
<path d="M212.394,246.941C211.782,247.06 169.217,243.546 143.85,252.51C113.934,263.081 89.1792,289.224 89.5121,316.525C90.1273,366.976 89.5522,399.081 89.2732,403.972C88.9942,408.864 86.1772,423.832 109.171,430.131C132.166,436.43 150.354,451.094 214.617,451.699C253.21,452.062 243.96,442.037 245.772,381.666C247.125,336.56 280.778,302.484 299.645,296.176C318.511,289.868 344.088,287.23 326.449,273.245C308.81,259.26 292,248.949 275.328,247.595C258.657,246.242 212.394,246.941 212.394,246.941Z" fill="#000000"/>
<path d="M598.599,247.598C599.211,247.717 641.776,244.202 667.143,253.167C697.059,263.738 721.814,289.881 721.481,317.182C720.865,367.632 721.441,399.737 721.72,404.629C721.999,409.52 724.816,424.488 701.821,430.788C678.827,437.087 660.639,451.75 596.376,452.355C557.783,452.719 567.033,442.694 565.221,382.323C563.868,337.217 530.215,303.141 511.348,296.833C492.482,290.525 466.905,287.887 484.544,273.902C502.183,259.916 518.992,249.605 535.664,248.252C552.336,246.899 598.599,247.598 598.599,247.598Z" fill="#000000"/>
<path d="M362.125,305.062C348.236,305.35 331.246,306.863 318.562,311.875C288.647,323.695 263.886,352.943 264.219,383.469C264.834,439.879 264.279,475.781 264,481.25C263.721,486.719 260.912,503.425 283.906,510.469C306.9,517.512 325.081,533.917 389.344,534.594C395.793,534.662 400.792,534.352 404.844,533.562C408.685,534.179 413.288,534.467 419.094,534.406C483.357,533.73 501.537,517.348 524.531,510.312C547.525,503.277 544.716,486.557 544.438,481.094C544.159,475.63 543.604,439.755 544.219,383.406C544.552,352.914 519.79,323.714 489.875,311.906C466.729,302.771 430.753,305.161 423.906,305.562C414.298,305.475 409.226,305.465 402.125,305.531C396.251,305.495 392.683,305.541 385.844,305.594C383.957,305.509 374.812,304.8 362.125,305.062Z" fill="#000000"/>
</g>
</svg>
